<?xml version="1.0" encoding="utf-8"?>
<!-- Generator: Adobe Illustrator 23.0.1, SVG Export Plug-In . SVG Version: 6.00 Build 0)  -->
<svg version="1.1" id="Layer_1" xmlns="http://www.w3.org/2000/svg" xmlns:xlink="http://www.w3.org/1999/xlink" x="0px" y="0px"
	 viewBox="0 0 500 500" style="enable-background:new 0 0 500 500;" xml:space="preserve">
<style type="text/css">
	.st0{opacity:0.6;fill:url(#SVGID_1_);}
	.st1{opacity:0.5;fill:none;stroke:url(#SVGID_2_);stroke-width:2.3461;stroke-miterlimit:10;}
	.st2{opacity:0.2;fill:none;stroke:url(#SVGID_3_);stroke-width:2.3461;stroke-miterlimit:10;}
	.st3{opacity:0.3;}
	.st4{fill:#FF00AA;}
	.st5{opacity:0.4;fill:#FF00AA;}
	.st6{opacity:0.5;}
	.st7{opacity:0.5;clip-path:url(#SVGID_5_);fill:url(#SVGID_6_);}
	.st8{fill:#FF00E7;}
</style>
<g>
	
		<radialGradient id="SVGID_1_" cx="840.228" cy="244.5991" r="175.1718" gradientTransform="matrix(1.9038 0.4631 -0.2208 0.9077 -1252.8015 -337.5421)" gradientUnits="userSpaceOnUse">
		<stop  offset="0" style="stop-color:#FF00AA;stop-opacity:0.3"/>
		<stop  offset="1" style="stop-color:#FF00AA;stop-opacity:0"/>
	</radialGradient>
	<path class="st0" d="M626.28,354.68c-21.36,87.82-187.98,122.69-372.16,77.9S-62.05,280.27-40.69,192.45s187.98-122.69,372.16-77.9
		S647.64,266.86,626.28,354.68z"/>
	<linearGradient id="SVGID_2_" gradientUnits="userSpaceOnUse" x1="132.0557" y1="353.0134" x2="258.4019" y2="134.1754">
		<stop  offset="0" style="stop-color:#38029B;stop-opacity:0"/>
		<stop  offset="1" style="stop-color:#FF0080"/>
	</linearGradient>
	<polygon class="st1" points="240.36,125.3 115.35,145.37 70.22,263.66 150.1,361.89 275.11,341.82 320.24,223.53 	"/>
	<linearGradient id="SVGID_3_" gradientUnits="userSpaceOnUse" x1="356.0659" y1="298.7907" x2="418.168" y2="298.7907">
		<stop  offset="0" style="stop-color:#38029B;stop-opacity:0"/>
		<stop  offset="0.7461" style="stop-color:#FF0080"/>
	</linearGradient>
	<polyline class="st2" points="406.06,325.05 416.83,296.82 397.77,273.38 367.93,278.17 357.16,306.4 	"/>
	<g class="st3">
		
			<rect x="320.26" y="193.24" transform="matrix(0.9869 -0.1612 0.1612 0.9869 -27.1301 54.3694)" class="st4" width="2.62" height="2.34"/>
		
			<rect x="313.28" y="194.43" transform="matrix(0.9869 -0.1612 0.1612 0.9869 -27.4129 53.2601)" class="st4" width="2.62" height="2.34"/>
		
			<rect x="333.23" y="190.06" transform="matrix(0.9869 -0.1612 0.1612 0.9869 -26.4183 56.7846)" class="st4" width="7.16" height="2.34"/>
		
			<rect x="343.09" y="187.85" transform="matrix(0.988 -0.1547 0.1547 0.988 -25.0381 56.3762)" class="st4" width="13.38" height="2.48"/>
		
			<rect x="326.42" y="187.38" transform="matrix(0.9869 -0.1612 0.1612 0.9869 -26.1051 55.2862)" class="st4" width="2.62" height="2.34"/>
		
			<rect x="308.35" y="187.18" transform="matrix(0.9869 -0.1612 0.1612 0.9869 -26.2627 52.9358)" class="st4" width="9.63" height="2.34"/>
		<g>
			
				<rect x="284.25" y="209.19" transform="matrix(0.9869 -0.1612 0.1612 0.9869 -29.9253 51.8107)" class="st4" width="40.28" height="2.34"/>
			
				<rect x="327.1" y="204.48" transform="matrix(0.9869 -0.1612 0.1612 0.9869 -28.8011 56.2468)" class="st4" width="10.41" height="2.34"/>
			
				<rect x="248.32" y="216.17" transform="matrix(0.9869 -0.1612 0.1612 0.9869 -31.6082 45.0135)" class="st4" width="26.66" height="2.34"/>
		</g>
		<g>
			
				<rect x="188.07" y="224.44" transform="matrix(0.9869 -0.1612 0.1612 0.9869 -33.6408 36.5074)" class="st4" width="40.28" height="2.34"/>
			
				<rect x="230.91" y="219.73" transform="matrix(0.9869 -0.1612 0.1612 0.9869 -32.5166 40.9436)" class="st4" width="10.41" height="2.34"/>
			
				<rect x="152.14" y="231.42" transform="matrix(0.9869 -0.1612 0.1612 0.9869 -35.3236 29.7102)" class="st4" width="26.66" height="2.34"/>
		</g>
		<g>
			
				<rect x="340.66" y="202.27" transform="matrix(0.9869 -0.1612 0.1612 0.9869 -28.2711 58.3569)" class="st4" width="9.83" height="2.34"/>
			
				<rect x="352.75" y="199.54" transform="matrix(0.9869 -0.1612 0.1612 0.9869 -27.6193 60.9374)" class="st5" width="18.1" height="2.34"/>
			
				<rect x="373.2" y="197.25" transform="matrix(0.9869 -0.1612 0.1612 0.9869 -27.0844 62.9498)" class="st4" width="2.55" height="2.34"/>
		</g>
		<g>
			
				<rect x="246.3" y="202.08" transform="matrix(0.9869 -0.1612 0.1612 0.9869 -29.4745 43.1464)" class="st4" width="9.83" height="2.34"/>
			
				<rect x="258.4" y="199.36" transform="matrix(0.9869 -0.1612 0.1612 0.9869 -28.8227 45.7269)" class="st5" width="18.1" height="2.34"/>
			
				<rect x="278.84" y="197.27" transform="matrix(0.9869 -0.1612 0.1612 0.9869 -28.321 47.742)" class="st4" width="2.55" height="2.34"/>
		</g>
	</g>
	
		<rect x="307.98" y="208.58" transform="matrix(0.9869 -0.1612 0.1612 0.9869 -29.7488 52.5643)" class="st4" width="2.29" height="2.14"/>
	<g class="st6">
		<defs>
			<polygon id="SVGID_4_" class="st6" points="204.25,108.58 188.63,149.46 216.21,183.43 259.43,176.53 275.05,135.65 
				247.47,101.68 			"/>
		</defs>
		<clipPath id="SVGID_5_">
			<use xlink:href="#SVGID_4_"  style="overflow:visible;"/>
		</clipPath>
		
			<linearGradient id="SVGID_6_" gradientUnits="userSpaceOnUse" x1="-4.7311" y1="189.3274" x2="942.8985" y2="246.0865" gradientTransform="matrix(0.9969 0.0789 -0.0789 0.9969 58.6786 -67.5709)">
			<stop  offset="0" style="stop-color:#FF00AA"/>
			<stop  offset="1" style="stop-color:#2445EA"/>
		</linearGradient>
		<path class="st7" d="M348.69,155.83c-0.11-1.65-0.59-2.45-1.4-2.39c-0.83,0.05-1.69-0.3-2.56-1.07c1.59-0.92,4.46-1.32,8.63-1.19
			c4.15,0.15,7.39-1.11,9.71-3.75c13.31,0.8,23.99-0.74,32.04-4.59c-5.06-1.32-10.51-2-16.3-2.04c-5.81-0.02-11.08,1.77-15.82,5.39
			l-7.59-1.99c-1.55,1.77-3.15,2.7-4.79,2.8c-1.66,0.11-2.96-0.63-3.88-2.23c-3.87,4.42-8.99,5.16-15.4,2.26
			c-6.41-2.89-11.63-3.38-15.65-1.47c0.92,1.61,2.02,2.36,3.26,2.28c1.24-0.08,2.29,0.27,3.18,1.03c-3.98,2.75-9.06,4.13-15.28,4.11
			c-6.22,0-11.32,1.37-15.28,4.12c-4.14,0.27-8.27,0.54-12.39,0.81c-4.14,0.27-7.38,1.32-9.75,3.13c-3.31,0.22-4.98-0.08-5.04-0.92
			c-1.55,1.78-2.95,2.49-4.21,2.15c-1.27-0.33-2.7-0.01-4.29,0.9c-1.88-3.18-4.45-4.46-7.72-3.84c-3.28,0.64-5.69,1.83-7.23,3.59
			c1.7,0.72,3.56,0.6,5.57-0.37c2-0.95,3.88-0.66,5.66,0.87c-4.85,1.99-8.96,2.67-12.31,2.05c-3.36-0.6-7.13-1.18-11.31-1.74
			c-0.72,1.72,0.15,2.28,2.6,1.7c2.45-0.57,4.52-0.5,6.23,0.21c-1.56,1.77-3.75,2.95-6.61,3.55c-2.87,0.62-4.77,0.12-5.7-1.5
			c-0.83,0.05-0.82,0.27,0.04,0.62c0.84,0.38,0.88,0.99,0.12,1.86c-6.73-1.21-11.79-2.53-15.19-3.98c-3.42-1.42-8.37-1.1-14.86,0.98
			c0.16,2.48,1.23,3.03,3.22,1.66c1.97-1.37,3.44-1.26,4.38,0.33c-0.72,1.72-1.72,2.19-3.01,1.44c-1.29-0.73-2.74-0.63-4.34,0.28
			c-3.42-1.43-6.09-1.03-8.01,1.15c-1.93,2.2-4.53,3.84-7.77,4.86c1.7,0.72,3.56,0.6,5.57-0.36c2-0.95,4.28-1.09,6.81-0.45
			c-6.51,2.1-13.24,3.79-20.19,5.06c-6.97,1.29-13.32,2.55-19.03,3.73c-2.75-3.96-7.38-4.9-13.87-2.82
			c0.06,0.83,0.49,1.21,1.32,1.16c-3.2,1.88-5.22,2.82-6.03,2.88c0.22,3.31,1.48,3.63,3.8,1c0.11,1.66-1.07,2.56-3.55,2.72
			c-3.58-3.91-7.14-4.51-10.69-1.79c-3.56,2.72-7.45,3.4-11.69,2.01c-2.37,1.82-4.82,2.4-7.35,1.73c-2.53-0.65-4.58-0.1-6.11,1.64
			c-1.77-1.53-3.23-1.85-4.42-0.95c-1.18,0.92-2.66,0.6-4.41-0.96c-0.78,0.89-0.75,1.29,0.08,1.24l1.32,1.16
			c0.27,4.14-1.24,6.52-4.51,7.13c-3.28,0.65-6.52,1.89-9.71,3.75c-1.77-1.54-3.44-1.83-5.03-0.91c-1.61,0.94-2.77,2.26-3.47,3.96
			c-4.2-0.54-8.09-0.09-11.72,1.4c-3.64,1.48-6.31,1.87-8.01,1.15c-0.11-1.65,0.88-2.33,2.97-2.07c2.08,0.29,3.08-0.39,2.97-2.06
			c1.65-0.11,3.91-0.26,6.81-0.45c2.88-0.19,4.69-1.12,5.41-2.84c-1.72-0.7-3.39-1.02-5.04-0.91c-1.66,0.11-2.96-0.62-3.88-2.23
			c-0.83,0.06-0.82,0.27,0.04,0.62c0.84,0.37,0.88,0.99,0.12,1.86c-4.14,0.27-7.83,0.94-11.07,1.97c-3.26,1.05-6.94,1.7-11.07,1.97
			c0.92,1.61,1.81,2.37,2.64,2.31c0.81-0.05,1.29,0.75,1.4,2.4c-2.48,0.16-4.55,0.3-6.19,0.41c-1.66,0.11-3.36-0.6-5.12-2.15
			c-1.61,0.94-3.02,1.44-4.25,1.52c-1.24,0.08-2.23,0.98-2.93,2.68c-4.14,0.27-7.04,0.27-8.71-0.05c-1.69-0.3-4.62-0.72-8.79-1.29
			c0.16,2.48-0.18,3.75-1,3.8c0.87,0.78,1.93,0.92,3.14,0.42c1.21-0.49,1.87,0.09,1.98,1.73c-2.48,0.16-5.11,1.17-7.89,3.01
			c-2.79,1.86-6.3,2.09-10.53,0.69c0.7-1.7,2.13-2.2,4.25-1.53c2.11,0.7,3.53,0.2,4.25-1.53c2.48-0.16,3.69-0.64,3.63-1.48
			c-0.05-0.81-0.91-1.18-2.56-1.07c-1.66,0.11-2.01,0.97-1.07,2.55c-3.42-1.42-6.94-1.41-10.57,0.07
			c-3.63,1.49-7.17,1.52-10.57,0.07c-0.78,0.89-0.74,1.51,0.12,1.86c0.84,0.37,1.31,0.96,1.36,1.77c-2.48,0.16-3.69,0.67-3.63,1.49
			c1.65-0.11,3.14,0.41,4.46,1.56c1.32,1.16,3.22,1.66,5.69,1.5c-0.94-1.59-1.81-2.15-2.6-1.7c-0.81,0.48-0.85-0.14-0.12-1.85
			c1.7,0.72,2.59,1.5,2.64,2.31c0.06,0.83,0.87,0.78,2.48-0.16c-1.45,3.42-3.86,4.61-7.23,3.59c-3.39-1.02-6.74-1.42-10.03-1.21
			c-2.42,0.99-5.27,2.02-8.51,3.05c-3.26,1.05-6.14,1.23-8.67,0.57c-1.55,1.78-3.73,3.36-6.53,4.78c-2.82,1.43-5.1,1.38-6.85-0.17
			c0.87,0.78,0.5,1.43-1.12,1.94c-1.64,0.53-2.89,0.4-3.75-0.38c-0.11-1.64,0.47-2.3,1.73-1.98c1.27,0.35,1.85-0.32,1.74-1.98
			c-0.89-0.76-1.72-0.7-2.48,0.16c-0.78,0.89-1.58,1.35-2.4,1.4c-0.72,1.72-0.26,2.5,1.4,2.39l0.08,1.24
			c-5.06-1.32-8.75-0.67-11.07,1.97c-4.25-1.37-7.74-0.92-10.49,1.32c-2.77,2.26-5.04,2.2-6.85-0.18c-0.72,1.72,0.2,3.1,2.76,4.18
			c2.56,1.07,4.65,1.56,6.31,1.45c-1.55,1.78-2.74,2.67-3.55,2.72l-3.72,0.24c-0.94-1.59-0.98-2.21-0.12-1.86
			c0.84,0.37,1.25,0.13,1.2-0.7c-1.66,0.11-3.3,0.43-4.91,0.94c-1.64,0.53-3.35-0.4-5.16-2.77c-0.89-0.76-1.09-0.55-0.58,0.66
			c0.49,1.21,0.32,1.84-0.49,1.9c-1.77-1.53-3.44-1.83-5.04-0.91c-1.61,0.94-3.28,0.64-5.04-0.91c1.75,1.55,1.89,3.6,0.41,6.19
			c-1.72-0.71-1.96-1.53-0.78-2.44c1.19-0.9,0.92-1.71-0.78-2.44c-2.48,0.16-2.85,1.02-1.08,2.56l-2.4,1.4
			c-1.72-0.7-2.76-0.85-3.14-0.42c-0.4,0.45-1.44,0.31-3.14-0.41l0.16,2.48c-3.36-0.6-5.83-0.24-7.39,1.1
			c-1.58,1.35-3.24,1.26-4.99-0.29l0.16,2.47c-4.25-1.37-7.95-0.91-11.11,1.36c-3.17,2.29-7.23,3.58-12.18,3.91
			c-0.78,0.89-0.96,1.31-0.54,1.28c0.41-0.03,0.22,0.41-0.54,1.28c-2.53-0.65-4.99-0.3-7.39,1.11c-2.4,1.4-4.46,1.75-6.15,1.03
			c-1.56,1.78-3.74,3.16-6.57,4.16c-2.85,1.02-5.14,0.77-6.89-0.79c0.05,0.83,0.28,1.22,0.7,1.19c0.41-0.03,0.65,0.39,0.7,1.2
			c-4.14,0.27-7.62,0.93-10.45,1.93c-2.85,1.02-6.35,1.25-10.53,0.69c-0.11-1.65,0.27-2.08,1.16-1.32c0.87,0.78,1.26,0.34,1.16-1.32
			c-0.89-0.76-2.11-0.48-3.68,0.86c-1.58,1.35-2.83,1.24-3.76-0.37c-0.78,0.89-0.74,1.51,0.12,1.86c0.84,0.37,0.85,0.56,0.04,0.62
			c-5.79,0.38-10.95,0.72-15.48,1.01c-4.55,0.3-8.85,1.01-12.92,2.09c-0.78,0.89-1.24,0.08-1.4-2.39c-2.48,0.16-3.61,1.91-3.39,5.19
			c-3.31,0.22-6.83,0.26-10.57,0.07c-3.74-0.16-6.8,0.66-9.17,2.47c-1.66,0.11-2.31-0.26-1.94-1.12c0.35-0.84,0.11-1.25-0.7-1.2
			c-0.83,0.05-0.79,0.67,0.12,1.86c0.89,1.18,0.5,1.42-1.2,0.7c-2.53-13.09-1.52-23.1,3-30.05c4.52-6.92,9.91-13.09,16.2-18.48
			c0.81-0.06,1.25,0.13,1.28,0.54c0.03,0.43,0.45,0.59,1.28,0.54c1.54-1.75,2.88-3.5,4.01-5.24c1.13-1.73,2.56-1.82,4.34-0.28
			c1.53-1.75,2.28-3.05,2.23-3.88c2.59,1.5,5.22,0.7,7.93-2.38c2.69-3.08,5.75-3.9,9.17-2.47c1.54-1.75,2.93-2.68,4.17-2.76
			c1.24-0.08,2.64-0.59,4.25-1.52c0.81-0.06,0.8-0.25-0.04-0.62c-0.86-0.35-0.49-1,1.12-1.94c3.35,0.62,5.8,0.05,7.35-1.73
			c1.54-1.75,3.58-2.29,6.11-1.64l-0.16-2.48c5.01,0.51,9.5-0.41,13.5-2.75c3.99-2.32,8.85-4.1,14.58-5.31
			c0.81-0.06,1.21-0.49,1.15-1.32c2.37-1.81,5.62-2.64,9.79-2.51c4.15,0.16,6.97-1.08,8.47-3.67c0.81-0.05,1.25,0.13,1.28,0.54
			c0.03,0.43,0.45,0.59,1.28,0.54c-0.11-1.65,0.66-2.32,2.35-2.02c1.67,0.32,2.87-0.39,3.59-2.1c1.59-0.92,2.43-0.97,2.48-0.16
			c0.06,0.84,0.49,1.21,1.32,1.16c1.54-1.75,3.34-2.71,5.41-2.85c2.05-0.14,4.72-0.72,7.97-1.77c0.81-0.05,1.21-0.48,1.16-1.32
			c2.53,0.67,4.35-0.07,5.45-2.23c1.1-2.13,2.95-2.46,5.53-0.98l-1.16,1.32l-1.24,0.08c0.11,1.67,0.95,2.02,2.56,1.08
			c1.59-0.92,1.92-2.19,0.99-3.8c3.29-0.22,6.17-0.81,8.59-1.81c2.42-0.97,5.71-1.19,9.91-0.65c2.31-2.64,5.93-4.31,10.86-5.07
			c4.93-0.74,8.58-2,10.94-3.83c3.4,1.45,6.29,1.04,8.63-1.19c2.34-2.21,5.62-2.64,9.87-1.27l-0.16-2.48
			c1.7,0.73,3.54,0.39,5.53-0.98c1.97-1.37,3.84-1.28,5.61,0.25c0.7-1.69,2.33-2.43,4.83-2.18c2.51,0.26,4.54-0.08,6.15-1.03
			c0.82-0.05,1.19-0.89,1.08-2.56c0.76-0.87,2.21-0.96,4.33-0.28c2.11,0.69,3.53,0.2,4.26-1.53c1.7,0.72,3.57,0.81,5.61,0.25
			c2.02-0.54,3.41-1.66,4.13-3.38c0.92,1.62,3.02,1.88,6.27,0.83c3.24-1.03,4.82-2.38,4.71-4.04c4.18,0.56,6.67,0.61,7.47,0.13
			c0.79-0.46,2.84-0.81,6.15-1.02c0.76-0.87,0.72-1.49-0.12-1.86c-0.86-0.35-0.87-0.57-0.04-0.62c4.12-0.27,8.2-1.16,12.26-2.67
			c4.04-1.51,8.15-1.98,12.35-1.43c0.81-0.05,0.8-0.24-0.04-0.62c-0.86-0.35-0.9-0.97-0.12-1.86c2.53,0.67,5.42,0.48,8.67-0.57
			c3.24-1.03,6.09-2.05,8.51-3.05l0.16,2.48c0.76-0.87,1.58-1.13,2.44-0.78c0.84,0.37,0.8-0.25-0.12-1.86
			c1.64-0.11,3.26-0.62,4.87-1.56c1.59-0.92,3.26-0.62,5.04,0.91c1.59-0.92,1.97-1.37,1.16-1.32c-0.83,0.06-1.26-0.33-1.32-1.16
			c13.15-1.68,26.61-5.05,40.38-10.12c1.76,1.55,3.44,2.07,5.08,1.53c1.62-0.52,3.25-0.84,4.91-0.95c1.65-0.11,2.42-0.97,2.31-2.64
			c0.06,0.84,1.32,1.16,3.8,1c2.48-0.16,3.24-1.03,2.32-2.64c1.75,1.56,3.22,1.66,4.38,0.34c1.16-1.32,2.52-2.44,4.13-3.38
			c0.92,1.61,2.4,1.92,4.42,0.96c2-0.95,3.88-0.66,5.66,0.87c1.54-1.75,2.28-3.05,2.23-3.88c0.11,1.66,0.97,2.23,2.6,1.69
			c1.62-0.51,2.38-1.59,2.27-3.26c1.64-0.11,2.53,0.67,2.64,2.31c1.54-1.75,3.55-2.72,6.03-2.88c2.48-0.16,4.5-0.7,6.11-1.64
			c1.75,1.55,4.04,1.81,6.89,0.79c2.83-1,4.61-2.36,5.33-4.08c0.81-0.06,1.47,0.52,1.98,1.74c0.49,1.21,1.09,0.98,1.82-0.74
			l-1.24,0.08c4.01-1.92,8.48-3.46,13.38-4.61c4.9-1.14,9.46-1.03,13.7,0.35l-1.32-1.16l-1.24,0.08c6.49-2.08,13.01-3.75,19.57-5.02
			c6.55-1.25,13.09-2.51,19.66-3.78c0.81-0.06,1.67,0.32,2.56,1.08c0.87,0.78,1.67,0.31,2.4-1.4l-2.48,0.16
			c10.5-3.99,19.57-5.02,27.17-3.03c-0.11-1.64-0.58-2.24-1.36-1.77c-0.81,0.48-1.22,0.3-1.28-0.54c0.76-0.87,2.41-1.19,4.91-0.94
			c2.51,0.26,3.7-0.44,3.59-2.1c3.4,1.45,7.17,2.02,11.31,1.74c-0.11-1.65-0.77-2.22-1.98-1.74c-1.21,0.51-1.84,0.34-1.9-0.5
			c3.24-1.03,6.14-1.22,8.67-0.57c2.53,0.67,4.98,0.1,7.35-1.73c0.81-0.05,1.25,0.13,1.28,0.54c0.03,0.43,0.45,0.59,1.28,0.54
			c2.31-2.64,5.75-3.89,10.32-3.79c4.56,0.13,8.91,0.04,13.05-0.23c-0.83,0.05-0.48-0.78,1.08-2.56
			c17.34-1.14,33.36-3.44,48.06-6.89c10.72-0.7,21.41-2.22,32.04-4.59c10.61-2.35,21.74-3.49,33.36-3.44
			c1.59-0.92,2.81-1.21,3.67-0.86c0.84,0.37,2.07,0.08,3.68-0.87c1.75,1.56,3.85,1.83,6.27,0.83c-0.05-0.81,0.33-1.27,1.16-1.32
			c1.59-0.92,3.84-1.28,6.77-1.06c2.91,0.23,5.14-0.53,6.69-2.31c3.4,1.45,9.19,1.07,17.34-1.14c1.65-0.11,3.53,0.2,5.66,0.87
			c2.1,0.7,4.39,0.55,6.81-0.45c-0.05-0.81-0.67-0.77-1.86,0.12c-1.18,0.92-1.42,0.52-0.7-1.2c4.12-0.27,7.62-0.5,10.53-0.69
			c2.88-0.19,6.36-0.83,10.45-1.93l0.16,2.48c0.81-0.06,1-0.48,0.54-1.28c-0.48-0.79,0.11-1.25,1.78-1.36
			c1.7,0.72,3.78,0.8,6.23,0.21c2.45-0.56,4.91-0.94,7.39-1.11c11.5-1.57,21.59-2.66,30.27-3.23c8.67-0.57,17.07-1.94,25.23-4.15
			c2.64,2.31,3.94,3.06,3.88,2.23c4.01-1.92,8.53-2.62,13.54-2.14c5.01,0.51,9.51-0.19,13.54-2.13c5.06,1.34,9.63,1.66,13.74,0.96
			c4.1-0.68,8.18-1.57,12.26-2.67c6.71,1.23,13.33,1.2,19.9-0.07c6.55-1.24,13.6-1.3,21.14-0.14c4.01-1.91,6.9-2.1,8.67-0.57
			c0.82-0.05,1.02-0.26,0.58-0.66c-0.45-0.38-0.25-0.6,0.58-0.66c7.59,1.99,15.46,1.9,23.61-0.31c8.14-2.19,14.36-2.19,18.66,0.01
			c-0.11-1.65,0.68-2.1,2.4-1.4c1.7,0.72,3.34,0.61,4.95-0.32c1.7,0.72,4.2,0.96,7.51,0.75c15.68-1.03,32.45-1.3,50.32-0.82
			c17.86,0.5,33.77-0.14,47.77-1.9c0.87,0.78,1.94,1.12,3.18,1.04c1.24-0.08,2.29,0.28,3.18,1.03c14.03-0.92,28.74-1.05,44.13-0.41
			c15.38,0.66,29.38,2.23,41.98,4.71c0.92,1.61,3.1,3.12,6.52,4.54c0.33,4.95,3.37,7.24,9.16,6.86c-0.72,1.72,0.16,2.48,2.64,2.32
			c2.19,8.16,3.76,16.35,4.72,24.57c0.95,8.24-0.42,15.79-4.1,22.66l-1.24,0.08c-4.41,8.59-10.84,14.82-19.3,18.68
			c-8.45,3.88-18.05,6.38-28.74,7.49c-10.72,1.13-21.67,1.64-32.87,1.54c-11.2-0.08-21.75,0.19-31.66,0.84
			c-5.9-1.26-9.61-1.02-11.15,0.73c-3.41-1.43-6.96-1.82-10.65-1.17c-3.69,0.67-7.25,0.28-10.65-1.17
			c-13.27,0.06-26.92,0.52-40.96,1.45c-14.05,0.92-26.92,0.53-38.64-1.19c-0.78,0.89-1.37,1.33-1.78,1.36
			c-0.42,0.03-1.02,0.5-1.77,1.36c-5.01-0.49-10-0.78-14.98-0.88c-4.98-0.08-9.92,0.46-14.82,1.59c-1.72-0.7-4.21-0.75-7.47-0.13
			c-3.28,0.64-5.4,0.16-6.31-1.45c-1.67,0.11-3.26,1.05-4.79,2.8c-6.62,0.43-12.02,0.17-16.22-0.8c-4.22-0.97-8.74-0.46-13.58,1.51
			c-4.25-1.37-8.6-1.3-13.04,0.24c-4.47,1.53-8.44,1.17-11.89-1.09c-3.09,3.53-8.43,4.28-16.02,2.3c-4.03,1.94-8.53,2.64-13.54,2.14
			c-5.01-0.49-9.56-0.19-13.62,0.9c-1.66,0.11-2.5-0.25-2.56-1.08c-0.05-0.81-0.88-0.75-2.47,0.16c-1.66,0.11-1.61,0.95,0.16,2.48
			c-5.01-0.48-9.95,0.04-14.83,1.6c-4.87,1.56-9.49,0.84-13.83-2.2c-1.61,0.95-3.26,1.05-4.95,0.33c-1.72-0.7-2.93-0.21-3.64,1.48
			c-2.48,0.16-2.96-0.62-1.4-2.4c-1.66,0.11-2.39,1.4-2.23,3.88c-3.36-0.59-5.71-1.68-7.06-3.27c-1.35-1.56-4.06-1.79-8.13-0.71
			c-0.89-0.76-0.91-1.19-0.08-1.24c0.81-0.06,1.21-0.49,1.16-1.32c-4.14,0.27-7.65,0.31-10.57,0.07c-2.93-0.21-5.15,0.55-6.69,2.31
			c1.75,1.55,3.45,2.26,5.12,2.15c1.65-0.11,3.32,0.21,5.04,0.91c0.11,1.67-0.7,2.13-2.4,1.4c-1.72-0.71-2.5-0.25-2.4,1.4
			c-3.42-1.42-5.95-2.1-7.6-1.99c-1.66,0.11-4.19-0.54-7.6-1.98c-0.05-0.82,0.34-1.05,1.2-0.71c0.84,0.38,1.66,0.11,2.44-0.78
			c-1.77-1.53-3.66-1.82-5.66-0.87c-2.01,0.96-3.9,0.68-5.65-0.88c-5.52,4.52-11.3,4.9-17.34,1.14c-1.66,0.11-2.26,0.58-1.78,1.36
			c0.46,0.8,1.11,1.17,1.94,1.12c-13.89,3.4-27.64,5.35-41.29,5.82c-13.65,0.49-27.5,1.19-41.53,2.11l-0.16-2.48
			c-0.67,2.53-2.05,3.67-4.13,3.38c-2.1-0.27-3.91,0.47-5.45,2.23c-1.72-0.7-2.8-1.47-3.26-2.27c-0.48-0.79-1.13-1.17-1.94-1.12
			c-0.83,0.05-1.18,0.91-1.07,2.55c-5.06-1.32-10.51-1.99-16.31-2.04C361.17,150.25,355.07,152.11,348.69,155.83z M-205.62,276.84
			l1.24-0.08l0.08,1.24l-1.24,0.08L-205.62,276.84z M-201.48,273.46c1.16-1.32,0.93-1.49-0.66-0.57
			C-202.87,274.6-202.64,274.78-201.48,273.46z M-160.52,262.69l1.24-0.08l-0.08-1.24l-1.24,0.08L-160.52,262.69z M-149.86,207.25
			c-0.48-0.78-1.07-0.34-1.78,1.36c0.81-0.06,1.05,0.36,0.7,1.2c-0.37,0.86,0.25,0.82,1.86-0.12
			C-149.13,208.88-149.4,208.06-149.86,207.25z M-147.92,208.37c-0.72,1.72-0.5,1.9,0.66,0.58
			C-146.1,207.63-146.33,207.45-147.92,208.37z M-144.2,208.13c0.7-1.7,1.92-2.19,3.63-1.48c1.7,0.73,2.89-0.19,3.55-2.72
			c-2.42,1-4.5,1.13-6.19,0.41C-143.99,205.22-144.31,206.48-144.2,208.13z M-144.79,218.12c2.48-0.16,4.1-0.68,4.87-1.56
			c-0.88-0.76-1.94-1.12-3.18-1.04C-144.33,215.6-144.9,216.47-144.79,218.12z M-138.35,221.42l1.24-0.08
			c-0.05-0.81-0.51-1.21-1.32-1.16L-138.35,221.42z M-137.44,216.39c0.81-0.05,1.21-0.49,1.16-1.32l-1.24,0.08L-137.44,216.39z
			 M-129.86,237.04c-1.66,0.11-2.71-0.23-3.18-1.04c-0.48-0.78-0.64-0.37-0.54,1.28c0.05,0.83,0.71,1.41,1.98,1.74
			C-130.33,239.36-129.75,238.7-129.86,237.04z M-122.69,204.22c2.05-0.14,3.45-1.04,4.17-2.76c-1.61,0.94-3.44,1.47-5.49,1.61
			c-2.07,0.13-3.47,1.06-4.17,2.76C-126.59,204.91-124.76,204.36-122.69,204.22z M-127.3,238.11l-1.32-1.16
			C-128.52,238.62-128.08,239-127.3,238.11z M-125.12,195.68c1.65-0.11,2.45-0.57,2.4-1.4
			C-124.39,194.38-125.17,194.86-125.12,195.68z M-119.41,187.84c-1.66,0.11-2.04,0.56-1.16,1.32
			C-119.7,189.94-119.3,189.5-119.41,187.84c1.7,0.73,2.1,0.7,1.24-0.08C-119.06,187-119.47,187.03-119.41,187.84z M-121.58,211.61
			c0.81-0.05,1.21-0.49,1.16-1.32c-0.89-0.76-1.51-0.72-1.86,0.12C-122.65,211.27-122.41,211.67-121.58,211.61z M-122.27,239.03
			c-0.83,0.06-1.21,0.51-1.16,1.32C-122.61,240.29-122.21,239.86-122.27,239.03z M-121.26,216.57c1.65-0.11,3.11,0.01,4.38,0.33
			c1.27,0.35,1.84-0.31,1.73-1.98C-118.46,215.14-120.5,215.7-121.26,216.57z M-121.44,232.75c0.87,0.78,1.91,0.71,3.1-0.2
			c1.19-0.89,1.32-1.74,0.46-2.51c-0.78,0.88-1.79,1.16-3.06,0.82C-122.2,230.53-122.38,231.16-121.44,232.75z M-111.66,192.3
			c0.11,1.66-0.67,2.53-2.31,2.64c-0.22-3.3-1.48-3.64-3.8-1c2.64,2.31,5.79,2.94,9.45,1.87c3.66-1.05,6.25-2.47,7.81-4.25
			c-1.77-1.53-3.64-1.63-5.61-0.25C-108.11,192.69-109.95,193.03-111.66,192.3z M-117.95,210.13c0.81-0.05,1.62-0.51,2.4-1.4
			C-118.03,208.89-118.83,209.37-117.95,210.13z M-117.28,201.38c3.34,0.62,6.13,1.89,8.34,3.8c2.19,1.94,5.3,1.95,9.33,0.01
			c0.81-0.06,1.45,0.12,1.9,0.5c0.43,0.4,1.07,0.55,1.9,0.49c0.76-0.87,0.53-1.47-0.74-1.82c-1.26-0.32-1.49-0.52-0.66-0.58
			c1.59-0.92,2.42-0.97,2.48-0.16c0.05,0.84,0.49,1.21,1.32,1.16c-0.11-1.65,0.65-2.53,2.32-2.64c-0.11-1.65-0.36-2.25-0.74-1.82
			c-0.4,0.46-0.63-0.15-0.74-1.81c-1.61,0.94-3.03,1.25-4.29,0.9c-1.27-0.32-2.73-0.44-4.38-0.33l0.25,3.71
			c-0.89-0.76-1.29-0.73-1.24,0.08c0.05,0.83-0.78,0.89-2.48,0.16c-1.72-0.71-2.8-1.47-3.26-2.28c-0.48-0.79-1.48-0.31-3.01,1.44
			l-0.16-2.47c-1.61,0.94-3.04,1.03-4.34,0.28C-116.79,199.29-117.39,199.74-117.28,201.38z M-114.46,187.51l1.24-0.08l-0.08-1.24
			l-1.24,0.08L-114.46,187.51z M-113.24,206.09c-0.83,0.06-1.48-0.31-1.94-1.12c-0.48-0.78-0.64-0.37-0.54,1.28
			C-114.85,207.03-114.01,206.98-113.24,206.09z M-115.39,211.21c0.92,1.61,1.35,1.58,1.24-0.08
			C-114.26,209.48-114.68,209.51-115.39,211.21z M-117.82,249.93l1.24-0.08L-117.82,249.93z M-113.91,214.85
			c0.76-0.87,1.38-0.91,1.86-0.12c0.46,0.8,1.05,0.36,1.78-1.36c-0.78,0.89-1.6,1.15-2.44,0.78
			C-113.57,213.79-113.96,214.03-113.91,214.85z M-112.83,212.28l1.24-0.08l-0.08-1.24l-1.24,0.08L-112.83,212.28z M-111.77,228.39
			c-1.67,0.11-2.45,0.58-2.4,1.4c0.81-0.05,1.27,0.34,1.32,1.16c0.05,0.83,0.46,0.81,1.24-0.08L-111.77,228.39l2.48-0.16l-0.08-1.24
			l-2.48,0.16L-111.77,228.39z M-110.01,198.41c-0.78,0.89-0.54,1.28,0.7,1.2c1.24-0.08,1.83-0.53,1.78-1.36L-110.01,198.41z
			 M-107.53,198.25c1.65-0.11,2.86-0.6,3.63-1.48C-106.38,196.93-107.59,197.44-107.53,198.25z M-109.05,231.94
			c0.81-0.06,1.21-0.49,1.16-1.32C-109.56,230.73-109.94,231.18-109.05,231.94z M-107.79,213.2l0.16,2.48
			c1.65-0.11,2.45-0.57,2.39-1.4c-0.05-0.81,0.73-1.3,2.4-1.4c0.05,0.83,0.89,1.19,2.56,1.08l1.24-0.08c0.81-0.06,1.62-0.52,2.4-1.4
			c-1.67,0.11-3.32,0.02-5-0.29C-103.33,211.87-105.37,212.22-107.79,213.2z M-107.83,250.52c0.05,0.83-0.75,1.29-2.4,1.4
			c0.81-0.06,1.21-0.49,1.16-1.32L-107.83,250.52z M-105.42,230.46l1.24-0.08l-0.08-1.24l-1.24,0.08L-105.42,230.46z
			 M-101.58,194.13c1.65-0.11,2.85-0.6,3.63-1.48C-100.59,190.33-101.8,190.84-101.58,194.13z M-100.38,231.37
			c-0.11-1.65-1-2.42-2.64-2.31c-0.72,1.72-0.66,2.74,0.2,3.09C-101.98,232.52-101.16,232.25-100.38,231.37z M-95.09,217.34
			c-0.11-1.65-0.78-2.44-2.02-2.36c-1.24,0.08-1.83,0.55-1.78,1.36c0.06,0.83,0.49,1.21,1.32,1.16L-95.09,217.34z M-98.05,210.07
			l1.24-0.08l-0.08-1.24l-1.24,0.08L-98.05,210.07z M-99.47,226.33l0.08,1.24l1.24-0.08C-98.2,226.68-98.66,226.28-99.47,226.33z
			 M-95.36,250.94c-0.72,1.72-2.31,2.64-4.79,2.8c-0.05-0.81-0.51-1.21-1.32-1.15c0.71-1.7,1.51-2.16,2.4-1.4
			C-98.21,251.96-96.97,251.88-95.36,250.94z M-95.8,187.53c0.92,1.61,1.35,1.58,1.24-0.08C-94.67,185.8-95.09,185.83-95.8,187.53z
			 M-94.07,194.88l4.95-0.33c0.65-2.53-0.04-3.52-2.06-2.98C-93.22,192.14-94.18,193.24-94.07,194.88z M-28.59,188.09
			c-0.72,1.72-0.68,2.34,0.12,1.86c0.79-0.46,1.23-0.27,1.28,0.54c-4.84,1.99-8.93,3.07-12.22,3.29c1.54-1.75,2.29-3.05,2.23-3.88
			c-0.05-0.82,1.1-2.14,3.47-3.96c-1.66,0.11-3.51,0.44-5.53,0.99c-2.04,0.56-3.43,1.69-4.13,3.38l2.64,2.31
			c-2.48,0.16-3.36-0.6-2.64-2.31c-1.72-0.71-2.52-0.46-2.44,0.78c0.08,1.24-0.71,1.91-2.36,2.02c-0.05-0.81,0.11-1.25,0.54-1.28
			c0.4-0.03,0.59-0.45,0.54-1.28c-0.89-0.76-1.29-0.73-1.24,0.08c0.05,0.83-0.37,0.86-1.24,0.08l0.24,3.71l-3.55,2.72
			c-0.94-1.59-2.23-2.34-3.88-2.23c-1.66,0.11-2.9,0.19-3.71,0.24c0.81-0.05,1.25,0.13,1.28,0.54c0.03,0.43-0.39,0.65-1.2,0.7
			c-2.48,0.16-4.52,0.72-6.11,1.64c-1.61,0.94-3.26,1.05-4.96,0.33c0.92,1.61,0.37,2.68-1.65,3.22c-2.04,0.56-3.48,0.85-4.29,0.9
			c-0.11-1.64,1.48-2.59,4.79-2.8c-1.83-2.36-4.16-3.24-7.01-2.65c-2.87,0.62-5.59,0.18-8.18-1.33c0.11,1.66,0.56,2.25,1.36,1.77
			c0.79-0.46,1.25,0.14,1.36,1.78c4.12-0.27,6.22,0.02,6.27,0.83c-3.2,1.88-5.67,2.04-7.43,0.49c0.06,0.84,0.95,2.02,2.72,3.55
			c-1.55,1.78-2.57,2.04-3.06,0.83c-0.51-1.21-1.14-1.37-1.9-0.5c0.06,0.83,0.49,1.21,1.32,1.16c-4.03,1.93-6.51,2.1-7.43,0.49
			c0.92,1.61,0.98,2.43,0.16,2.48c-0.83,0.05-0.8,0.48,0.08,1.24c0.71-1.7,1.51-2.16,2.4-1.4c0.87,0.78,1.35,1.58,1.4,2.4
			c4.07-1.09,8.32-2.61,12.76-4.58c4.42-1.94,9.56-2.69,15.4-2.25c-0.94-1.59-0.38-2.47,1.7-2.6c2.05-0.14,3.13,0.22,3.18,1.04
			c1.59-0.92,3.18-1.86,4.79-2.8c1.59-0.92,3.66-1.06,6.19-0.41c1.54-1.75,4.16-2.96,7.85-3.63c3.69-0.65,6.43,0.2,8.25,2.57
			c-0.11-1.65-0.59-2.45-1.4-2.4c-0.83,0.05-0.89-0.76-0.16-2.48c4.01-1.91,8.54-2.62,13.54-2.13c5.01,0.51,8.14-2.19,9.42-8.09
			c-2.37,1.83-4.62,2.39-6.73,1.69c-2.12-0.68-4.42-0.96-6.89-0.79C-24.14,186.55-26.11,187.93-28.59,188.09z M-94.76,222.29
			l0.24,3.71c1.65-0.11,2.91,0.23,3.8,0.99c0.87,0.78,1.67,0.32,2.4-1.4c-1.67,0.11-2.53-0.65-2.64-2.31l1.24-0.08
			c2.53,0.67,5.42,0.48,8.67-0.57c-1.83-2.37-4.13-2.84-6.93-1.41C-90.81,222.65-93.06,223.02-94.76,222.29z M-90.29,214.54
			c-2.32,2.64-3.5,3.55-3.56,2.72c1.65-0.11,2.87-0.39,3.68-0.86c0.78-0.46,2.04-0.33,3.75,0.38c1.48-2.59,4.31-3.59,8.51-3.05
			c4.18,0.56,6.98-0.87,8.43-4.28c-3.2,1.88-6.47,2.72-9.79,2.51c-3.33-0.18-5.77,0.6-7.31,2.35L-90.29,214.54z M-92.2,223.37
			c0.06,0.84,0.49,1.21,1.32,1.15c-0.78,0.89-1.59,1.16-2.44,0.79C-94.18,224.95-93.81,224.31-92.2,223.37z M-89.85,183.41
			c0.11,1.67,0.54,2.05,1.32,1.16c0.76-0.87,2.03-0.54,3.8,0.99l-1.4-2.39C-87.69,184.94-88.93,185.02-89.85,183.41z M-87.39,201.91
			l-2.48,0.16c0.05,0.83,0.48,1.21,1.32,1.16C-87.74,203.17-87.34,202.74-87.39,201.91z M-88.79,199.51
			c0.11,1.66,0.3,1.65,0.62-0.04C-87.87,197.8-88.09,197.81-88.79,199.51z M-67.07,189.37l2.48-0.16c0.05,0.84-1.24,0.08-3.88-2.23
			c0.11,1.66-0.26,2.51-1.08,2.56c-1.72-0.7-2.11-0.48-1.2,0.7c0.9,1.19,0.5,1.42-1.2,0.7l-0.16-2.48c1.65-0.11,2.45-0.57,2.4-1.4
			c-3.36-0.59-6.04-0.22-8.01,1.15c-1.99,1.38-4.64,2.17-7.93,2.39c0.92,1.61,1.8,2.17,2.6,1.7c0.79-0.46,1.66,0.1,2.6,1.69
			l4.96-0.33l0.08,1.24c1.7,0.72,3.58,1.01,5.65,0.87c2.05-0.14,3.04-1.02,2.93-2.68l-2.48,0.16l-0.08-1.24l2.48-0.16L-67.07,189.37
			z M-84.65,186.8c0.92,1.61,1.35,1.58,1.24-0.08C-83.52,185.07-83.95,185.1-84.65,186.8z M-84.44,227.84l-0.08-1.24l-1.24,0.08
			l0.08,1.24L-84.44,227.84z M-82.17,186.63l2.48-0.16c-0.11-1.65-1-2.42-2.64-2.32L-82.17,186.63z M-85.52,230.39l1.24-0.08
			L-85.52,230.39z M-83.77,219.08c0.11,1.66,1.36,1.77,3.76,0.37c2.39-1.4,3.67-0.86,3.84,1.61c-1.66,0.11-2.45,0.59-2.4,1.4
			c0.81-0.05,2.05-0.14,3.72-0.24c1.64-0.11,2.86-0.59,3.63-1.48c-1.66,0.11-2.53-0.65-2.64-2.31l18.58-1.22
			c0.76-0.87,0.73-1.3-0.08-1.24c-0.83,0.05-1.26-0.33-1.32-1.16l1.24-0.08c0.81-0.06,1.21-0.49,1.16-1.32
			c-4.09,1.11-9.01,1.84-14.78,2.22C-74.86,216.01-79.76,217.16-83.77,219.08z M-81.9,247.57l-1.16,1.32
			C-83.11,248.08-82.73,247.62-81.9,247.57z M-76.06,184.99l1.24-0.08c-0.05-0.81-0.52-1.41-1.36-1.77c-0.86-0.35-1.25-0.11-1.2,0.7
			C-76.57,183.78-76.11,184.18-76.06,184.99z M-75.74,189.94c-0.05-0.81,0.54-1.28,1.78-1.36c1.24-0.08,1.49,0.74,0.78,2.44
			c-0.83,0.06-1.25-0.11-1.28-0.54C-74.48,190.07-74.92,189.89-75.74,189.94z M-70.62,192.1c0.11,1.66-0.26,2.51-1.08,2.56
			c-0.83,0.05-1.27-0.33-1.32-1.16C-72.26,192.63-71.45,192.15-70.62,192.1z M-68.87,180.79l2.48-0.16
			c-0.05-0.81-0.92-1.18-2.56-1.07L-68.87,180.79z M-67.15,188.13l0.08,1.24C-67.95,188.61-67.98,188.19-67.15,188.13z M-64,179.22
			c-0.83,0.05-1.21,0.5-1.16,1.32C-64.35,180.49-63.95,180.05-64,179.22z M-62.93,176.67c-0.83,0.05-1.21,0.51-1.16,1.32
			C-63.27,177.93-62.87,177.49-62.93,176.67z M-61.69,176.58c2.48-0.16,3.69-0.65,3.64-1.48l-2.4,1.4L-61.69,176.58z M-58.05,175.1
			c1.75,1.56,2.67,2.74,2.72,3.55c-1.66,0.11-2.71-0.23-3.18-1.04c-0.48-0.78-1.07-0.34-1.78,1.37c5.82,0.45,10.72-0.71,14.7-3.45
			c-1.77-1.54-3.2-1.44-4.33,0.28c-1.13,1.75-2.58,1.84-4.34,0.29c-0.11-1.65,0.48-2.09,1.78-1.37c1.29,0.75,1.46,0.33,0.54-1.27
			C-55.25,173.67-57.29,174.23-58.05,175.1z M-58.84,219.93l-3.71,0.24c-0.72,1.72-0.47,2.33,0.74,1.82
			C-60.6,221.5-59.62,220.82-58.84,219.93z M-59.72,187.65l1.24-0.08l-0.08-1.24l-1.24,0.08L-59.72,187.65z M-59.82,205.06
			c1.75,1.56,2.56,1.08,2.4-1.4C-59.08,203.78-59.87,204.25-59.82,205.06z M-55.09,182.37c-1.66,0.11-2.26,0.58-1.78,1.36
			C-56.4,184.53-55.81,184.08-55.09,182.37z M-55.84,189.88c2.64,2.31,3.83,1.42,3.55-2.72c-1.61,0.94-2.62,1.22-3.05,0.83
			C-55.79,187.6-55.95,188.23-55.84,189.88z M-57.86,234.79l1.24-0.08c-0.05-0.81-0.51-1.21-1.32-1.16L-57.86,234.79z
			 M-54.86,204.74l1.24-0.08l-0.08-1.24l-1.24,0.08L-54.86,204.74z M-52.61,182.2c1.7,0.72,3.77,0.59,6.19-0.41
			c2.42-0.98,4.9-1.14,7.43-0.49l-0.16-2.48c5.66-2.02,8.89-3.48,9.66-4.36c-4.03,1.94-7.87,3.22-11.56,3.87
			C-44.74,179-48.6,180.29-52.61,182.2z M-54.23,233.31c0.92,1.61,1.35,1.58,1.24-0.08C-53.1,231.58-53.52,231.61-54.23,233.31z
			 M-49.34,213.09c-0.11-1.65-0.53-1.62-1.24,0.08C-49.65,214.78-49.23,214.75-49.34,213.09z M-46.84,194.26
			c1.59-0.92,2-0.95,1.24-0.08c-0.78,0.89-0.35,1.27,1.32,1.16c0.06,0.82-0.54,1.27-1.78,1.36c-1.24,0.08-1.89-0.29-1.94-1.12
			c-0.05-0.81,0.13-1.04,0.58-0.67C-46.99,195.32-46.79,195.09-46.84,194.26z M-50.19,238.02l-1.16,1.32L-50.19,238.02z
			 M-48.26,210.53c0.05,0.83,0.89,1.18,2.56,1.07c1.65-0.11,2.43-0.97,2.32-2.64c-0.89-0.76-1.92-0.9-3.14-0.42
			C-47.74,209.05-48.31,209.72-48.26,210.53z M-45.72,230.26c-0.11-1.65-1-2.42-2.64-2.31C-48.25,229.62-47.38,230.37-45.72,230.26z
			 M-42.56,202.69c0.76-0.87,2.2-1.17,4.3-0.9c2.08,0.29,3.9-0.45,5.45-2.23c-2.48,0.16-5.18,0.15-8.09-0.09
			C-43.83,199.26-44.39,200.32-42.56,202.69z M-41.81,195.18c0.71-1.7,0.91-1.93,0.58-0.67C-41.57,195.78-41.75,196.01-41.81,195.18
			z M-42.09,228.78l2.48-0.16c-0.11-1.65-0.99-2.42-2.64-2.32L-42.09,228.78z M-37.75,181.23c3.4,1.45,5.01,0.51,4.79-2.8
			c-1.61,0.94-3.03,1.25-4.3,0.9C-38.52,179-38.69,179.64-37.75,181.23z M-35.86,191.05l1.24-0.08l-0.08-1.24l-1.24,0.08
			L-35.86,191.05z M238.92,113.29c0.87,0.78,1.73,1.13,2.56,1.07c0.81-0.05,1.29,0.76,1.4,2.4c-4.03,1.94-8.53,2.64-13.55,2.14
			c-5.01-0.49-9.96-0.17-14.86,0.98c0.11,1.66-0.28,2.31-1.12,1.93c-0.86-0.35-1.25-0.11-1.2,0.71c-0.83,0.05-1.26-0.33-1.32-1.16
			c-0.78,0.89-1.79,1.16-3.06,0.82c-1.27-0.32-1.87-0.06-1.82,0.75c0.81-0.06,1.46,0.33,1.94,1.11c0.46,0.81,0.27,1.23-0.54,1.28
			c-1.66,0.11-2.72-0.23-3.18-1.03c-0.48-0.79-1.53-1.14-3.18-1.04c-1.61,0.94-1.76,1.57-0.5,1.9c1.27,0.35,1.5,0.95,0.74,1.82
			c-0.83,0.06-1.25-0.11-1.28-0.54c-0.03-0.41-0.87-0.57-2.52-0.46c-3.09,3.53-6.73,5.01-10.9,4.45c-4.19-0.54-7.88,0.11-11.07,1.97
			c-0.94-1.59-2.41-1.71-4.37-0.33c-1.99,1.37-3.86,1.3-5.61-0.25l0.25,3.71c-1.77-1.53-4.67-1.56-8.71-0.05
			c-4.06,1.51-6.93,1.91-8.63,1.19l1.16-1.32c-5.79,0.38-8.72-0.24-8.83-1.91c2.37-1.81,5.23-2.4,8.59-1.81
			c3.35,0.62,5.77-0.38,7.27-2.96c-6.67-0.38-12.42,0.41-17.26,2.38c-4.85,1.99-10.58,3.18-17.18,3.62l-0.16-2.48
			c-1.66,0.11-2.93-0.22-3.79-1c-0.73,1.72-0.67,2.53,0.16,2.48c0.81-0.05,1.26,0.35,1.32,1.16c-9.69,3.96-19.88,6.91-30.52,8.84
			c-10.66,1.94-20.44,4.45-29.36,7.53c4.28,2.2,9.21,1.47,14.78-2.22c1.76,1.56,4.02,1.41,6.81-0.44c2.78-1.83,5.04-1.99,6.81-0.45
			c0.76-0.87,0.72-1.49-0.12-1.86c-0.86-0.35-0.87-0.56-0.04-0.62c1.7,0.72,3.34,0.61,4.95-0.33c1.59-0.93,3.18-1.86,4.79-2.81
			c4.23,1.39,8.15,0.92,11.73-1.39c3.58-2.3,8.28-3.23,14.12-2.8c3.18-1.86,7.07-2.74,11.64-2.63c4.56,0.13,8.99,1.27,13.29,3.48
			c-1.61,0.94-3.25,1.05-4.96,0.33c-1.72-0.71-3.39-1.02-5.03-0.92c-0.05-0.81-1.24,0.08-3.55,2.72c1.7,0.73,2.73,0.66,3.1-0.2
			c0.35-0.84,1.38-0.9,3.1-0.21c-3.98,2.76-8.48,3.48-13.55,2.14c-0.78,0.88-0.34,1.27,1.32,1.16c1.65-0.11,1.67,0.32,0.08,1.24
			c-5.01-0.49-10.39-0.13-16.1,1.06c-5.73,1.21-11.49,2-17.26,2.38c0.11,1.66-1.08,2.56-3.56,2.72c2.59,1.5,5.86,1.07,9.87-1.27
			c3.99-2.32,7.31-2.34,9.95-0.03c0.81-0.06,2.04-0.33,3.68-0.87c1.62-0.51,2.49,0.05,2.6,1.7c-3.31,0.22-6.15,1.02-8.55,2.43
			c-2.4,1.4-5.66,2.23-9.79,2.5c-1.66,0.11-2.03,0.76-1.12,1.94c0.9,1.19,0.94,1.81,0.12,1.86c-0.94-1.59-3.93-3.04-9-4.38
			c-0.72,1.72-1.92,2.42-3.59,2.11c-1.69-0.3-3.32,0.02-4.92,0.94c-0.78,0.89-0.34,1.26,1.32,1.16c1.65-0.11,1.67,0.32,0.08,1.24
			c-5.89-1.26-10.66-1.36-14.32-0.31c-3.66,1.08-7.97,1.77-12.92,2.1c-0.83,0.06-1.02,0.49-0.54,1.28c0.46,0.81,0.27,1.23-0.54,1.29
			c-1.61,0.94-2.23,0.98-1.86,0.12c0.35-0.84-0.29-1.23-1.94-1.12c0.05,0.84,0.48,1.02,1.28,0.54c0.79-0.46,1.25,0.13,1.36,1.78
			l-2.48,0.16c-1.77-1.54-3.47-2.26-5.12-2.15c-1.55,1.77-2.35,2.02-2.44,0.78c-0.08-1.24-0.95-1.8-2.6-1.69
			c-1.56,1.77-1.7,2.6-0.46,2.52c1.24-0.08,1.49,0.73,0.78,2.44c2.37-1.81,4.48-1.11,6.35,2.07c-4.25-1.37-8.78-1.08-13.62,0.9
			c-4.85,1.99-9.37,2.69-13.55,2.14l2.48-0.16c0.81-0.05,1.21-0.49,1.16-1.32c-2.48,0.16-5.8,0.19-9.95,0.03
			c-4.17-0.13-7.06-0.16-8.71-0.05c1.81,2.37,4.15,3.46,7.06,3.27c2.88-0.19,5.15-0.34,6.81-0.45c-0.72,1.72-3.55,2.72-8.51,3.05
			c-0.62,3.36-2.21,4.3-4.79,2.8c-2.58-1.48-5.06-1.32-7.43,0.49c0.71-1.7,0.24-2.51-1.4-2.4c-1.66,0.11-2.12-0.68-1.4-2.4
			c0.76-0.87,1.98-1.16,3.67-0.86c1.67,0.32,3.3,0,4.91-0.94c-2.53-0.65-4.4-0.74-5.61-0.26c-1.21,0.51-3.06,0.83-5.53,0.99
			c-0.72,1.72-1.3,2.38-1.74,1.98c-0.45-0.38-1.03,0.28-1.74,1.98c-4.25-1.37-8.39-1.32-12.43,0.2c-4.06,1.51-8.09,3.23-12.1,5.14
			c1.59-0.92,2.62-0.99,3.1-0.2c0.46,0.81,1.13,1.6,2.02,2.36c0.81-0.05,1.23-0.27,1.2-0.7c-0.03-0.41,0.77-0.67,2.43-0.78
			c-0.11-1.65-0.97-2-2.56-1.08c-1.61,0.94-2.04,0.56-1.32-1.16c4.12-0.27,7.2-0.67,9.25-1.22c2.02-0.54,4.3-0.91,6.77-1.07
			c0.05,0.84,1.73,1.13,5.03,0.91l0.16,2.48l3.72-0.24c0.06,0.83,0.28,1.22,0.7,1.2c0.41-0.03,0.65,0.39,0.7,1.2
			c-1.72-0.7-2.76-0.85-3.14-0.42c-0.4,0.46-1,0.69-1.82,0.74c0.11,1.67,0.57,2.45,1.4,2.4c0.7-1.7,1.96-1.57,3.76,0.37
			c1.78,1.97,3.41,1.65,4.91-0.94c-0.05-0.81-0.7-1.2-1.94-1.12c-1.24,0.08-1.51-0.72-0.78-2.44c7.32-2.13,14.46-3.85,21.43-5.14
			c6.95-1.27,13.66-3.38,20.11-6.3c4.23,1.39,7.75,1.36,10.57-0.07c2.8-1.43,5.4-3.04,7.77-4.86c-0.89-0.76-1.91-0.69-3.1,0.2
			c-1.18,0.91-1.83,0.55-1.94-1.12c1.7,0.73,3.15,0.63,4.33-0.28c1.18-0.89,1.86-0.12,2.02,2.36c4.01-1.91,7.9-2.79,11.64-2.63
			c3.74,0.18,7.61-0.69,11.64-2.63c0.05,0.83-0.7,2.12-2.23,3.88c-4.2-0.54-7.47-0.13-9.87,1.27c-2.4,1.4-4.86,1.78-7.39,1.11
			c1.86,3.2,3.78,3.91,5.74,2.11c1.94-1.78,4.22-1.93,6.81-0.45c6.33-4.55,14.05-6.92,23.17-7.12c9.11-0.17,17.65-2.6,25.64-7.28
			c1.64-0.11,3.49-0.42,5.53-0.98c2.02-0.54,3.87-0.88,5.53-0.99c0.87,0.78,1.73,1.13,2.56,1.08c1.65-0.11,3.07-0.61,4.25-1.53
			c1.19-0.89,2.59-1.41,4.26-1.52c0.11,1.66,0.75,2.03,1.94,1.11c1.18-0.89,2.62-0.98,4.33-0.28c-0.11-1.64-0.57-2.24-1.36-1.77
			c-0.8,0.48-0.82,0.27-0.04-0.62c4.02-1.91,8.08-3.02,12.22-3.29c4.12-0.27,8.19-1.36,12.22-3.29c-1.77-1.53-3.44-1.83-5.03-0.91
			c-1.61,0.94-2.88,0.62-3.8-0.99c2.37-1.81,4.83-2.18,7.39-1.11c2.56,1.07,4.65,1.56,6.32,1.45c-0.83,0.05-1.28-0.54-1.36-1.78
			c-0.08-1.24,0.28-1.88,1.12-1.94c4.12-0.27,7.41-0.9,9.83-1.89c2.42-0.98,5.74-0.79,9.99,0.59c-0.72,1.72-2.15,2.22-4.25,1.52
			c-2.12-0.68-2.72-0.23-1.78,1.36c3.29-0.22,5.42,0.48,6.35,2.07l-4.95,0.33c0.11,1.66,0.56,2.25,1.36,1.77
			c0.79-0.45,1.22-0.27,1.28,0.54c-6.51,2.1-12.04,3.08-16.6,2.95c-4.58-0.11-9.27,0.83-14.12,2.79l0.16,2.48
			c-1.77-1.53-3.82-1.4-6.19,0.41l-0.16-2.48c-2.31,2.64-3.49,3.55-3.55,2.72c2.48-0.16,4.15,0.15,5.03,0.91
			c-0.72,1.72-1.54,1.97-2.44,0.78c-0.91-1.18-0.9-0.97,0.04,0.62c0.92,1.61,1.77,1.74,2.52,0.45c0.73-1.29,1.99-1.16,3.76,0.38
			c0.81-0.06,0.98-0.69,0.5-1.9c-0.51-1.21,0.07-1.87,1.74-1.98c-0.72,1.72-0.64,2.95,0.24,3.72c1.59-0.93,3.82-1.69,6.69-2.31
			c2.85-0.6,5.51-1.39,7.93-2.39l-1.32-1.16c0.81-0.05,1.23-0.27,1.2-0.7c-0.03-0.41,0.37-0.65,1.2-0.7c0.81-0.05,1.05,0.36,0.7,1.2
			c-0.37,0.86-0.13,1.25,0.7,1.2l-0.16-2.48c1.54-1.75,3.16-2.27,4.87-1.57c1.7,0.73,3.4,1.45,5.12,2.15
			c1.65-0.11,2.24-0.56,1.78-1.36c-0.48-0.79,0.08-1.65,1.69-2.6c0.87,0.78,1.12,1.38,0.74,1.82c-0.4,0.45,0.24,0.61,1.9,0.5
			c2.37-1.8,4.59-2.58,6.69-2.31c2.08,0.3,4.37,0.34,6.85,0.17c-2.64-2.31-2.32-3.58,0.99-3.8c1.64-0.11,2.9,0.03,3.76,0.37
			c0.84,0.38,2.09,0.49,3.76,0.38l-0.16-2.48c1.65-0.11,2.64-0.59,3.02-1.45c0.35-0.84,0.59-0.45,0.7,1.2
			c0.11,1.66-0.48,2.11-1.78,1.36c-1.29-0.73-1.48-0.32-0.54,1.28c3.18-1.86,5.83-2.66,7.93-2.39c2.08,0.29,4.35-0.07,6.77-1.06
			c0.16,2.48,1.43,2.82,3.8,0.99c0.81-0.06,1-0.48,0.54-1.28c-0.48-0.79-0.3-1.22,0.54-1.28c0.81-0.05,1.04,0.15,0.66,0.58
			c-0.4,0.45-0.17,0.63,0.66,0.58c8.25-0.54,15-1.8,20.27-3.82c5.25-1.99,11.18-3.22,17.8-3.65c-0.05-0.82-0.7-1.2-1.94-1.12
			c-1.24,0.08-1.05,0.07,0.62-0.04c0.81-0.05,1.27,0.34,1.32,1.16c4.07-1.09,7.96-1.97,11.64-2.64c3.69-0.65,8.04-0.72,13.05-0.23
			c5.6-2.86,11.94-4.31,18.99-4.36c7.03-0.04,13.78-1.53,20.23-4.44c4.12-0.27,8.05-0.53,11.77-0.77c3.72-0.24,7.57-1.31,11.6-3.25
			c5.01,0.51,9.75,0.19,14.24-0.93c4.47-1.11,8.81-1.4,13-0.85c4.02-1.92,7.3-2.54,9.83-1.89c2.53,0.67,6.22,0.02,11.07-1.97
			l0.16,2.48c1.65-0.11,2.68,0.03,3.14,0.42c0.43,0.4,1.47,0.52,3.14,0.41c0.7-1.7,0.04-2.27-1.98-1.74
			c-2.04,0.56-2.7-0.01-1.98-1.73c2.42-0.98,5.08-1.37,8.01-1.15c2.91,0.23,5.13-0.53,6.69-2.3c11.66,0.9,23.19-0.28,34.6-3.52
			c11.39-3.24,22.92-4.4,34.6-3.52c4.02-1.92,9.56-2.69,16.64-2.34c7.06,0.37,12.61-0.4,16.64-2.34c6.71,1.23,13.53,0.98,20.48-0.72
			c6.92-1.7,14.58-1.99,22.96-0.88c3.24-1.03,6.9-2.11,10.98-3.21c4.07-1.08,8.19-1.36,12.39-0.81l1.16-1.32
			c5.77-0.38,10.95-0.5,15.52-0.39c4.56,0.12,9.25-1.24,14.04-4.04c-3.2,1.88-4.85,1.99-4.95,0.33c3.18-1.86,6.1-1.84,8.71,0.05
			c2.61,1.91,5.51,1.93,8.71,0.05c-10.07-1.83-18.79-2.07-26.17-0.77c0.81-0.05,1.48,0.53,1.98,1.74c0.49,1.21-0.09,1.87-1.74,1.98
			c-0.22-3.29-1.57-4.87-4.04-4.71c-0.78,0.89-1.58,1.35-2.4,1.4c-2.47,0.16-5.6-0.04-9.37-0.63c-3.77-0.57-7.26,0.07-10.45,1.93
			c-1.66,0.11-2.5-0.24-2.56-1.07c-0.06-0.81-0.48-0.79-1.24,0.08c-0.83,0.05-1.21,0.51-1.16,1.32c0.06,0.84-0.37,0.86-1.24,0.08
			c-1.66,0.11-2.73-0.44-3.22-1.65c-0.51-1.21-1.57-1.76-3.22-1.66c0.11,1.66-0.26,2.51-1.08,2.56c-0.83,0.05-1.21,0.51-1.16,1.32
			c-3.26,1.05-6.56,1.27-9.91,0.65c-3.36-0.59-6.64,0.03-9.83,1.89c-2.53-0.65-5.06-1.32-7.59-1.99c-2.53-0.65-4.57-0.11-6.11,1.64
			c-7.49-0.32-13.68,0.08-18.58,1.22c2.48-0.16,3.74,0.18,3.8,1l-60.69,3.99c0.11,1.66,0.78,2.43,2.02,2.35
			c1.24-0.08,1.91,0.71,2.02,2.36c-0.89-0.76-2.15-1.1-3.8-0.99c-1.67,0.11-2.12-0.68-1.4-2.4c-1.61,0.95-2.62,1.23-3.06,0.83
			c-0.45-0.38-1.08-0.55-1.9-0.5c-7.16,4.63-14.56,5.53-22.21,2.7c-2.37,1.83-5.62,2.86-9.75,3.13c-4.14,0.27-8.24,0.97-12.3,2.06
			l-0.16-2.48c-1.66,0.11-2.25,0.58-1.78,1.36c0.46,0.81,0.27,1.23-0.54,1.29c-1.77-1.53-3.07-2.29-3.88-2.24
			c-0.83,0.06-1.69-0.29-2.56-1.08c2.48-0.16,4.94-0.51,7.39-1.1c2.45-0.57,4.54-0.08,6.31,1.45c1.48-2.59,3.68-3.76,6.61-3.54
			c2.91,0.24,5.61,0.25,8.09,0.08c5.66-2.02,10.57-2.96,14.74-2.83c4.15,0.16,9.5-0.41,16.06-1.68c-1.77-1.54-4.67-1.56-8.71-0.05
			c-4.06,1.51-6.98,1.08-8.79-1.29c4.12-0.27,8.43-0.96,12.92-2.09c4.48-1.11,7.6-0.91,9.37,0.63c0.11,1.67-0.7,2.13-2.39,1.4
			c-1.72-0.71-2.1-0.27-1.16,1.32c5.77-0.38,11.15-0.73,16.1-1.06c4.95-0.33,9.43-1.44,13.46-3.37c6.6-0.43,14.26-0.72,22.95-0.88
			c8.7-0.15,16.26-1.69,22.71-4.6c3.4,1.45,6.95,1.62,10.61,0.55c3.66-1.06,7.6-0.91,11.85,0.47c6.38-3.72,12.54-4.75,18.46-3.08
			c5.91,1.69,10.79,0.34,14.66-4.07l-2.48,0.16l-0.16-2.48c11.55-0.76,24.36-1.39,38.44-1.91c14.06-0.49,26.84-1.55,38.35-3.14
			l-0.24-3.71c1.59-0.92,3.24-1.03,4.95-0.32c1.7,0.72,3.35,0.61,4.95-0.33c-0.11-1.65-0.97-2-2.56-1.08
			c-1.61,0.94-1.66,0.11-0.16-2.48c-1.66,0.11-2.24,0.77-1.74,1.98c0.49,1.21-0.12,1.46-1.82,0.74c0.7-1.69,0.64-2.72-0.2-3.09
			c-0.86-0.35-0.9-0.97-0.12-1.86c4.18,0.56,9.56,0.62,16.18,0.18c-1.77-1.53-3.47-2.26-5.12-2.15c-1.66,0.11-3.36-0.6-5.11-2.15
			c0.11,1.66-0.26,2.51-1.08,2.56c-3.42-1.43-5.93-1.88-7.55-1.37c-1.64,0.53-3.73,0.05-6.32-1.45l-0.16-2.48
			c-1.66,0.11-2.04,0.56-1.16,1.32c0.87,0.78,0.46,0.81-1.24,0.08c-1.77-1.54-2.82-1.88-3.18-1.04c-0.37,0.86-1.42,0.52-3.18-1.04
			c-11.52,1.59-24.49,2.86-38.93,3.8c-14.46,0.95-27.87,1.83-40.26,2.64c9.8-2.3,20.07-3.59,30.84-3.89
			c10.75-0.28,20.67-0.74,29.77-1.34l-0.08-1.24c-0.06-0.81,0.32-1.26,1.16-1.32c0.05,0.83-0.33,1.48-1.12,1.94
			c-0.8,0.48-0.38,0.65,1.28,0.54c0.76-0.87,2.21-0.96,4.33-0.28c2.1,0.7,3.94,0.17,5.49-1.61c-1.66,0.11-2.93-0.21-3.8-0.99
			c-0.88-0.76-2.12-0.68-3.71,0.24l-0.16-2.48c-2.42,1-4.07,1.32-4.91,0.95c-0.86-0.35-2.14-0.89-3.84-1.62
			c0.98,2.43-0.59,3.77-4.71,4.04c-0.11-1.65,0.24-2.5,1.07-2.56c0.81-0.05,1.62-0.51,2.39-1.4c-1.66,0.11-2.67,0.39-3.05,0.83
			c-0.4,0.45-1.41,0.71-3.06,0.82c-0.72,1.72-0.49,2.11,0.7,1.2c1.18-0.89,1.83-0.53,1.94,1.12c-5.01-0.49-9.99-0.59-14.95-0.26
			c-4.95,0.33-9.53,0.22-13.71-0.34l1.16-1.32c-2.48,0.16-4.11,0.7-4.87,1.57l2.48-0.16c-0.72,1.72-1.53,2.18-2.4,1.4
			c-0.88-0.76-2.12-0.67-3.71,0.24l-0.16-2.48c-1.61,0.95-2.83,1.24-3.68,0.87c-0.86-0.35-2.11-0.49-3.76-0.38
			c0.11,1.67,1.16,2,3.18,1.04c2-0.95,3.07-0.61,3.18,1.04c-2.58-1.48-5.91-1.47-9.95,0.03c-4.06,1.51-7.39,1.11-10.03-1.21
			c-0.83,0.06-0.8,0.48,0.08,1.24c0.87,0.78,0.49,1.21-1.16,1.32c-2.48,0.16-5.18,0.15-8.09-0.09c-2.93-0.22-4.75,0.52-5.45,2.23
			c-4.25-1.37-6.73-1.21-7.43,0.49c-0.88-0.76-2.18-1.51-3.88-2.23c-1.72-0.7-2.93-0.21-3.63,1.48c3.29-0.22,5.01,0.51,5.11,2.15
			c-6.73-1.21-12.72-1.03-18,0.56c-5.3,1.59-10.89,1.76-16.76,0.48c-1.56,1.77-1.91,2.61-1.08,2.56c-0.78,0.89-1.24,0.08-1.4-2.39
			c-1.66,0.11-2.26,0.57-1.78,1.36c0.46,0.81,0.27,1.23-0.54,1.28c-0.05-0.81-0.91-1.19-2.56-1.08c-0.84,0.05-1.02,0.49-0.54,1.28
			c0.46,0.81,0.28,1.23-0.54,1.28c-6.73-1.21-13.13-1.01-19.24,0.64c-6.11,1.64-11.29,1.79-15.52,0.4
			c-1.55,1.78-1.91,2.61-1.08,2.56c-0.83,0.05-1.25-0.11-1.28-0.54c-0.03-0.41-0.47-0.59-1.28-0.54c-1.61,0.94-4.06,1.51-7.35,1.73
			c-3.31,0.22-5.84-0.43-7.59-1.99c-1.56,1.78-4.44,1.96-8.67,0.57c0.11,1.66-0.28,2.31-1.12,1.94c-0.86-0.35-1.25-0.11-1.2,0.7
			c1.7,0.73,3.16,0.84,4.37,0.34c1.21-0.48,2.25-0.34,3.14,0.42c-9.04,1.43-16.89,1.73-23.58,0.93c-6.7-0.81-12.45-0.21-17.3,1.76
			c0.05,0.83,0.69,1,1.9,0.5c1.21-0.49,1.87,0.09,1.98,1.74c-3.31,0.22-5.84-0.43-7.59-1.99c-0.67,2.53-0.38,3.76,0.86,3.67
			c1.24-0.08,2.29,0.28,3.18,1.04c-1.55,1.78-3.78,2.54-6.69,2.31c-2.93-0.22-5.18,0.15-6.77,1.06c-1.05-3.23-3.03-4.97-5.94-5.21
			c-2.93-0.21-5.21-0.28-6.85-0.17c0.81-0.06,1.46,0.33,1.94,1.12c0.46,0.8,0.27,1.22-0.54,1.27c-4.19-0.54-8.98-0.85-14.36-0.92
			c-5.41-0.05-10.52,0.91-15.36,2.88c-0.72,1.72-0.48,2.11,0.7,1.2c1.18-0.89,1.83-0.53,1.94,1.12c-1.72-0.71-3.59-0.8-5.61-0.26
			c-2.04,0.56-3.91,0.47-5.61-0.25c1.59-0.92,3.22-1.24,4.91-0.95c1.67,0.32,2.46-0.35,2.36-2.02c-1.66,0.11-3.3,0.43-4.91,0.94
			c-1.64,0.53-3.27,0.84-4.91,0.95c-0.72,1.72-0.48,2.11,0.7,1.2c1.18-0.89,1.83-0.53,1.94,1.12l-3.72,0.24
			c-0.11-1.65-0.59-2.45-1.4-2.4c0.11,1.66-1.1,2.15-3.63,1.48c-2.53-0.65-4.17-0.13-4.87,1.56c0.87,0.78,1.91,0.71,3.1-0.2
			c1.19-0.9,2.21-0.96,3.1-0.2c-4.09,1.11-7.34,1.94-9.78,2.51c-2.45,0.59-5.75,1-9.87,1.27l-0.16-2.48
			c-5.73,1.22-10.87,1.96-15.4,2.25c-4.55,0.3-9.24,1.45-14.08,3.41c-1.67,0.11-3.12-0.2-4.42-0.95c-1.29-0.73-2.31-0.26-3.02,1.44
			c1.75,1.55,3.43,1.86,5.03,0.91c1.59-0.92,3.24-1.03,4.95-0.32c-2.42,0.99-4.66,1.76-6.69,2.3c-2.04,0.56-4.3,0.9-6.77,1.06
			c-0.89-0.76-1.15-1.57-0.78-2.43c0.35-0.84,0.11-1.25-0.7-1.2c-0.78,0.89-2,1.18-3.68,0.86c-1.69-0.3-2.89,0.41-3.59,2.1
			c0.92,1.61,1.98,1.74,3.14,0.42c1.16-1.32,2.2-1.18,3.14,0.41c-2.37,1.83-4.63,2.39-6.73,1.69c-2.12-0.68-3.98-0.55-5.57,0.36
			l-0.16-2.48c-1.61,0.95-3.85,1.5-6.73,1.68c-2.9,0.19-4.7,1.15-5.41,2.85c1.64-0.11,3.47-0.64,5.49-1.61
			c2-0.95,3.48-0.64,4.42,0.96c-4.25-1.37-6.27-0.83-6.11,1.65c-3.42-1.43-6.3-1.24-8.67,0.57c-2.37,1.83-4.84,1.99-7.43,0.49
			c0.76-0.87,1.79-1.15,3.06-0.83c1.27,0.35,2.66-0.36,4.21-2.14c-6.62,0.43-10.69,1.54-12.22,3.3c0.87,0.77,1.93,0.92,3.14,0.41
			c1.21-0.48,1.87,0.09,1.98,1.74c-2.53-0.65-4.84-0.93-6.89-0.79c-2.07,0.13-3.98-0.55-5.74-2.11c-3.2,1.88-6.24,2.9-9.13,3.09
			c-2.9,0.19-5.52,1.2-7.89,3.01c1.64-0.11,3.08-0.39,4.29-0.91c1.21-0.48,3.46-0.85,6.77-1.06c0.11,1.66,0.57,2.45,1.4,2.39
			c-1.66,0.11-2.45,0.59-2.39,1.4c1.75,1.55,3.23,1.87,4.42,0.95c1.19-0.89,2.16-1.8,2.93-2.68c1.75,1.56,4.03,1.6,6.85,0.17
			c2.8-1.43,5.08-1.36,6.85,0.18c-11.46,2.42-22.71,4.6-33.78,6.57c-11.07,1.97-21.09,4.09-30.06,6.33
			c-0.05-0.82-0.51-1.22-1.32-1.16c-0.83,0.05-1.26-0.32-1.32-1.15c1.64-0.11,2.04-0.33,1.2-0.7c-0.86-0.35-0.49-1,1.12-1.94
			c0.06,0.84,0.9,1.18,2.56,1.07c1.65-0.11,2.43-0.97,2.32-2.64c-2.43,0.99-4.28,1.12-5.57,0.36c-1.29-0.73-2.72-0.23-4.26,1.53
			c1.65-0.11,2.51,0.26,2.56,1.07l-2.48,0.16l0.24,3.72l3.72-0.25c-6.51,2.1-11.41,3.24-14.7,3.45c0.11,1.66-0.48,2.11-1.78,1.36
			c-1.29-0.73-1.91-0.69-1.86,0.13c3.4,1.44,5.88,1.28,7.43-0.49c4.12-0.27,7.81-0.92,11.06-1.97c3.24-1.03,6.52-1.67,9.83-1.89
			c0.81-0.06,1.69,0.51,2.6,1.69c0.9,1.19,2.12,0.91,3.68-0.86c-0.89-0.76-1.73-0.92-2.52-0.46c-0.8,0.48-0.84-0.14-0.12-1.85
			c2.48-0.16,5.15-0.34,8.05-0.53c2.88-0.19,6.36-0.83,10.45-1.94c1.48-2.59,5.14-3.64,10.98-3.21c5.82,0.46,10.78,0.13,14.86-0.98
			L238.92,113.29z M-33.54,188.42c0.92,1.61,1.35,1.58,1.24-0.08C-32.41,186.69-32.84,186.71-33.54,188.42z M-29.14,160.76
			c0.71-1.7,1.13-1.73,1.24-0.08C-27.79,162.34-28.22,162.37-29.14,160.76z M-32.32,207c0.92,1.61,1.35,1.58,1.24-0.08
			C-31.19,205.26-31.62,205.29-32.32,207z M-24.53,174.14c-2.48,0.16-3.69,0.67-3.63,1.48C-26.52,175.51-25.31,175.02-24.53,174.14
			c4.23,1.39,7.53,0.97,9.87-1.27c2.34-2.21,5.59-3.05,9.79-2.51c0.76-0.87,1.58-1.13,2.43-0.78c0.84,0.38,1.23-0.28,1.12-1.94
			c-4.19-0.54-8.06,0.34-11.64,2.64C-16.54,172.59-20.41,173.87-24.53,174.14z M-28.02,196.76c1.64-0.11,2.45-0.57,2.39-1.4
			C-28.1,195.52-28.9,196-28.02,196.76z M-28.61,206.75c0.05,0.83,2.56,1.08,7.51,0.75c-0.94-1.59-2.23-2.34-3.88-2.23
			C-26.64,205.38-27.85,205.88-28.61,206.75z M-26.39,221.53l-1.24,0.08c-0.78,0.89-0.75,1.3,0.08,1.24
			C-26.74,222.8-26.34,222.36-26.39,221.53z M-24.3,196.51l1.24-0.08l-0.08-1.24l-1.24,0.08L-24.3,196.51z M-17.67,164.98
			c1.65-0.11,2.45-0.57,2.4-1.4l-2.48,0.16L-17.67,164.98z M-21.44,221.2c2.48-0.16,3.77,0.59,3.88,2.24
			C-20.04,223.6-21.33,222.87-21.44,221.2z M-19.79,227.32l-0.08-1.24c-0.89-0.76-1.49-0.52-1.82,0.74
			C-22.03,228.08-21.4,228.25-19.79,227.32z M-17.04,193.55l1.24-0.08l-0.08-1.24l-1.24,0.08L-17.04,193.55z M-14.96,187.19
			c0.11,1.67-0.32,1.7-1.24,0.08C-15.5,185.58-15.07,185.55-14.96,187.19z M-13.87,165.97c0.81-0.05,1.23-0.27,1.2-0.7
			c-0.03-0.41,0.36-0.65,1.2-0.7C-13.14,164.68-13.92,165.16-13.87,165.97z M-8.61,189.26c-2.48,0.16-3.49,0.66-3.02,1.45
			C-11.16,191.51-10.16,191.04-8.61,189.26z M-9,164.41c-0.78,0.89,0.08,1.24,2.56,1.07c-0.11-1.64-0.59-2.45-1.4-2.4
			C-8.67,163.14-9.05,163.6-9,164.41z M-11.51,201.89c0.87,0.78,1.68,0.52,2.44-0.78c0.73-1.29,1.58-1.13,2.52,0.45l-0.08-1.24
			l-0.08-1.24C-9.2,199.25-10.81,200.2-11.51,201.89z M-5.22,184.07c-0.89-0.76-0.09-1.43,2.35-2.02c2.45-0.57,3.73-0.03,3.84,1.61
			c-1.61,0.94-2.83,1.23-3.68,0.86C-3.56,184.17-4.41,184.01-5.22,184.07z M-1.96,186.34c0.51,1.64,0.3,1.66-0.62,0.04
			C-2.69,184.73-2.49,184.72-1.96,186.34z M-3,198.85l0.08,1.24l1.15-1.32c0.81-0.05,1.21-0.48,1.16-1.32l-1.16,1.32L-3,198.85z
			 M-0.25,165.08L0,168.8c1.54-1.76,3.55-2.73,6.03-2.89c2.48-0.16,4.48-1.11,6.03-2.89C6.38,165.07,2.29,165.75-0.25,165.08z
			 M5.13,152.29l-1.24,0.08c-0.78,0.89-0.75,1.29,0.08,1.24C4.79,153.55,5.19,153.12,5.13,152.29z M5.6,178.38
			c0.05,0.83,1.09,0.98,3.14,0.42c2.03-0.54,2.17-1.58,0.42-3.14c-0.78,0.89-1.6,1.15-2.44,0.78C5.86,176.09,5.49,176.73,5.6,178.38
			z M5.59,197.04c-0.05-0.81,0.52-1.47,1.74-1.98c1.21-0.49,0.96-1.1-0.74-1.82C5.02,195.01,4.7,196.28,5.59,197.04z M14.29,159.15
			c-0.05-0.81,0.33-1.27,1.16-1.32l-1.32-1.15l-1.16,1.32L14.29,159.15z M14.54,162.86l1.24-0.08c0.76-0.87,0.54-1.28-0.7-1.2
			C13.84,161.66,13.65,162.11,14.54,162.86z M15.91,193.25c-1.26-0.32-1.84,0.34-1.74,1.98c4.23,1.39,8.76,0.88,13.58-1.51
			c4.82-2.38,8.85-4.11,12.1-5.15c-0.83,0.06-1.25-0.11-1.28-0.54c-0.03-0.41-0.47-0.59-1.28-0.54c-8.15,2.21-14.7,3.45-19.65,3.78
			C17.75,192.94,17.17,193.59,15.91,193.25z M17.01,162.7c2.48-0.16,4.09-0.68,4.87-1.57C18.58,161.35,16.96,161.89,17.01,162.7z
			 M18.01,158.9l1.24-0.08c-0.05-0.81,0.11-1.25,0.54-1.28c0.4-0.03,0.59-0.45,0.54-1.28l-2.48,0.16L18.01,158.9z M23.12,161.05
			l1.24-0.08l-0.08-1.24l-1.24,0.08L23.12,161.05z M21.67,214.64c-0.06-0.81,0.73-1.29,2.39-1.4
			C23.29,214.13,22.48,214.59,21.67,214.64z M26.25,170.8l2.47-0.16c-0.05-0.81-0.52-1.41-1.36-1.78
			C26.51,168.51,26.14,169.16,26.25,170.8z M31.79,160.48c-0.11-1.64-1-2.42-2.64-2.31C29.26,159.84,30.13,160.59,31.79,160.48z
			 M32.95,159.17c-0.83,0.05-1.21,0.51-1.16,1.32C32.61,160.43,33,160,32.95,159.17z M29.93,207.88c1.65-0.11,2.7,0.25,3.18,1.04
			c0.46,0.8,1.51,1.14,3.18,1.03c-0.11-1.65-1.02-2.83-2.72-3.55C31.85,205.69,30.64,206.18,29.93,207.88z M35.35,157.76l1.24-0.08
			l-0.08-1.24l-1.24,0.08L35.35,157.76z M37.82,157.6c0.87,0.78,1.49,0.74,1.86-0.12c0.35-0.84,0.11-1.25-0.7-1.2
			c0.05,0.83-0.36,1.07-1.2,0.7C36.92,156.63,36.94,156.85,37.82,157.6z M37.07,165.11l1.32,1.16c-0.11-1.65-0.59-2.45-1.4-2.4
			L37.07,165.11z M40.3,157.44c2.48-0.16,2.83-1,1.08-2.56c0.06,0.83-0.13,1.25-0.54,1.28C40.41,156.19,40.25,156.63,40.3,157.44z
			 M39.68,204.75c-0.83,0.05-1.25-0.12-1.28-0.54c-0.03-0.4-0.47-0.59-1.28-0.53c-0.72,1.72-0.67,2.53,0.16,2.48
			C38.1,206.1,38.9,205.63,39.68,204.75z M56.96,183.71c-1.67,0.11-2.49-0.03-2.52-0.46c-0.03-0.41-0.46-0.59-1.28-0.54
			c-1.5,2.59-3.98,2.75-7.43,0.49c-3.47-2.26-5.89-1.26-7.27,2.97c1.76,1.55,3.48,2.69,5.2,3.39c1.54-1.76,3.97-2.53,7.31-2.35
			C54.28,187.42,56.28,186.25,56.96,183.71c0.81-0.05,1.21-0.49,1.16-1.32c-0.05-0.81-0.51-1.21-1.32-1.16L56.96,183.71z
			 M43.75,172.14c-1.66,0.11-2.31-0.26-1.94-1.12C42.17,170.19,42.82,170.55,43.75,172.14z M43.15,200.79
			c-0.11-1.64-0.59-2.45-1.4-2.4C40.19,200.17,40.67,200.95,43.15,200.79z M43.75,172.14c1.65-0.11,1.89,0.3,0.7,1.2
			C43.27,174.25,43.03,173.86,43.75,172.14z M45.17,155.87c2.53,0.67,4.8,0.52,6.81-0.45c2-0.95,4.25-1.52,6.73-1.69
			c-1.77-1.53-4.07-2.01-6.93-1.41C48.91,152.95,46.71,154.12,45.17,155.87z M41.24,209.62c0.81-0.05,1.29,0.76,1.4,2.4
			C40.98,212.12,40.52,211.34,41.24,209.62z M46.85,219.21c-2.42,0.99-4.55,0.3-6.36-2.07c3.4,1.44,6.3,1.26,8.67-0.57
			c2.37-1.81,4.87-1.57,7.51,0.75C52.53,217.59,49.27,218.23,46.85,219.21z M48.55,169.34c-0.88-0.76-0.69-0.98,0.58-0.66
			c1.27,0.34,1.5,0.95,0.74,1.82l-1.24,0.08L48.55,169.34z M47.44,209.21c1.65-0.11,2.06,0.08,1.28,0.54
			c-0.81,0.48-1.17,1.12-1.12,1.94L47.44,209.21z M56.99,146.39l-2.48,0.16c-0.78,0.89-0.74,1.51,0.12,1.86
			C55.47,148.79,56.27,148.11,56.99,146.39z M52.26,169.1c0.7-1.7,1.13-1.73,1.24-0.08C53.61,170.68,53.18,170.7,52.26,169.1z
			 M51.58,196.5l0.08,1.23l1.24-0.08l-0.16-2.47l-1.24,0.08L51.58,196.5z M55.15,175.12c1.64-0.11,3.11,0.01,4.37,0.34
			c1.27,0.34,2.68,0.03,4.3-0.9c-0.94-1.59-2.65-2.51-5.16-2.77C56.15,171.54,54.98,172.65,55.15,175.12z M59.07,215.91
			c0.81-0.05,1.67,0.32,2.56,1.08c0.05,0.83-0.54,1.28-1.78,1.36C58.61,218.43,58.35,217.63,59.07,215.91z M60.49,199.65
			c1.7,0.73,4.23,1.39,7.6,1.99c3.34,0.62,5.79,0.05,7.35-1.73c1.7,0.72,3.37,1.02,5.04,0.91c1.64-0.11,2.83-1,3.55-2.72
			c-4.25-1.37-8.01-1.75-11.27-1.12C69.47,197.62,65.39,198.51,60.49,199.65z M67.89,141.94c3.29-0.22,4.92-0.73,4.87-1.56
			C70.29,140.54,68.65,141.07,67.89,141.94z M62.62,213.19c1.65-0.11,2.69,0.03,3.14,0.42c0.43,0.4,1.45,0.12,3.06-0.83
			c0.11,1.66-0.89,2.35-2.97,2.07C63.74,214.58,62.68,214.03,62.62,213.19z M125.42,165.53c-1.61,0.94-2.42,1-2.48,0.16
			c-0.05-0.81-0.91-1.18-2.56-1.07c-2.26,3.47-5.89,4.95-10.9,4.45c-5.01-0.49-8.64,1-10.9,4.45c-1-2.42-1.91-3.61-2.72-3.55
			c-0.83,0.05-2.48,0.16-4.96,0.32c-0.72,1.72-0.48,2.11,0.7,1.2c1.18-0.89,1.83-0.53,1.94,1.12c-2.42,1-4.88,1.37-7.39,1.11
			c-2.5-0.25-5.39,0.16-8.63,1.19c-1.56,1.78-5.57,3.69-12.06,5.77c2.53,0.67,5.04,0.92,7.51,0.75c2.31-2.64,5.75-3.9,10.32-3.79
			c4.56,0.13,8.85-0.78,12.88-2.71c6.49-2.08,13.02-3.54,19.61-4.4c6.57-0.84,13.08-2.73,19.53-5.64c4.12-0.27,8.23-0.74,12.35-1.43
			c4.09-0.68,7.72-2.37,10.86-5.06c-5.68,2.04-9.83,1.89-12.47-0.43c-1.55,1.78-4.13,3.38-7.76,4.87
			c-3.64,1.48-7.55,1.95-11.73,1.39L125.42,165.53z M71.41,176.54l-3.72,0.25c0.76-0.87,1.38-0.91,1.86-0.12
			C70.01,177.47,70.63,177.43,71.41,176.54z M71.77,144.17c0.11,1.66,0.77,2.25,1.98,1.74c1.21-0.48,2.2-1.17,2.98-2.06
			L71.77,144.17z M70.05,212.7l1.24-0.08l0.08,1.24l-1.24,0.08L70.05,212.7z M77.97,143.77l1.24-0.08l-0.08-1.24l-1.24,0.08
			L77.97,143.77z M79.04,141.21c2.59,1.5,5.06,1.34,7.43-0.49c-1.66,0.11-3.12-0.2-4.42-0.95
			C80.76,139.04,79.74,139.51,79.04,141.21z M81.66,162.18c0.11,1.66-0.48,2.11-1.78,1.37c-1.29-0.73-1.5-0.72-0.62,0.04
			c-1.67,0.11-2.1-0.27-1.32-1.16C78.71,161.56,79.94,161.48,81.66,162.18z M78.56,209.66c0.16,2.47-1.42,3.82-4.71,4.04
			c-0.11-1.64,0.26-2.29,1.12-1.93C75.81,212.13,77.01,211.43,78.56,209.66z M82.25,152.2c-1.72-0.71-2.52-0.46-2.43,0.78
			c0.08,1.24,0.93,1.81,2.6,1.7L82.25,152.2z M85.5,163.8c1.67,0.32,3.33,0.41,5,0.29c-2.31,2.64-4.79,2.8-7.43,0.49
			C83.01,163.76,83.81,163.5,85.5,163.8z M83.47,170.77c0.05,0.83,0.49,1.21,1.32,1.15l-0.08-1.23l-1.32-1.16L83.47,170.77z
			 M86.47,140.72c0.87,0.78,2.13,1.1,3.8,0.99c1.65-0.11,2.42-0.97,2.32-2.64C90.81,137.54,88.79,138.08,86.47,140.72z
			 M82.54,194.47c1.7,0.73,2.52,0.46,2.44-0.78C84.89,192.45,84.08,192.72,82.54,194.47z M87.25,190.43
			c0.92,1.61,1.36,1.78,1.28,0.54S88.01,189.56,87.25,190.43z M98.78,138.67c-1.77-1.54-3.82-1.4-6.19,0.41
			C94.39,141.44,96.46,141.31,98.78,138.67z M95.87,198.57c-0.42,0.03-0.59,0.46-0.54,1.28c-2.53-0.65-3.82-1.4-3.88-2.23l4.95-0.33
			C96.46,198.12,96.28,198.55,95.87,198.57z M99.27,136.77c1.26,0.34,1.85-0.32,1.74-1.98c-0.83,0.05-1.25-0.11-1.28-0.54
			c-0.03-0.41-0.47-0.59-1.28-0.54c0.06,0.83-0.34,1.26-1.16,1.32C97.35,135.86,98.01,136.45,99.27,136.77z M95.45,163.77
			c0.7-1.7,0.9-1.93,0.58-0.66C95.68,164.37,95.51,164.6,95.45,163.77z M95.94,171.2l-1.16,1.32L95.94,171.2z M101.89,157.75
			c0.44,0.4,0.69,1,0.74,1.82l-1.32-1.16C101.26,157.59,101.44,157.37,101.89,157.75z M98.81,195.89l0.16,2.48
			C98.08,197.6,98.03,196.77,98.81,195.89z M108.28,131.83c-0.72,1.72-0.48,2.11,0.7,1.2c1.19-0.9,1.83-0.53,1.94,1.12
			c-1.66,0.11-2.93-0.22-3.8-0.99c-0.88-0.76-2.12-0.68-3.72,0.24c1.86,3.2,3.8,4.32,5.82,3.35c2-0.95,4.66-1.55,7.97-1.76
			c-0.22-3.29-0.7-4.1-1.4-2.4l0.08,1.24c-1.72-0.7-3.01-1.45-3.88-2.23C111.11,130.82,109.87,130.91,108.28,131.83z M105.03,158.16
			l-1.24,0.08L105.03,158.16z M101.69,201.92l1.24-0.08l0.08,1.24l-1.24,0.08L101.69,201.92z M106.27,158.08l3.72-0.24
			c-0.78,0.89-1.76,1.57-2.97,2.06C105.8,160.41,105.55,159.8,106.27,158.08z M104.25,202.99l3.72-0.25
			c0.11,1.67-0.46,2.52-1.69,2.6C105.03,205.43,104.36,204.66,104.25,202.99z M112.3,155.19c-0.78,0.89-1.99,1.37-3.64,1.48
			C108.61,155.86,109.82,155.36,112.3,155.19z M107.47,195.32c1.59-0.92,1.81-0.94,0.62-0.04
			C106.91,196.19,106.7,196.2,107.47,195.32z M111.88,167.66c-1.77-1.54-2.6-1.7-2.52-0.46
			C109.44,168.44,110.27,168.6,111.88,167.66z M112.55,158.91c-0.72,1.72-1.34,1.76-1.86,0.12
			C110.16,157.42,110.77,157.37,112.55,158.91z M117.18,153.63c1.7,0.73,1.74,1.34,0.12,1.86
			C115.66,156.02,115.62,155.4,117.18,153.63z M118.84,141.08c0.11,1.66,1.4,2.4,3.88,2.24
			C122.61,141.67,121.31,140.92,118.84,141.08z M125.6,149.35c-2.48,0.16-4.93,0.75-7.35,1.73c-0.05-0.81,0.68-2.11,2.23-3.88
			c1.76,1.55,3.43,1.85,5.04,0.91c1.59-0.92,3.63-1.48,6.11-1.64C130.08,148.23,128.08,149.18,125.6,149.35z M130.64,150.26
			c0.11,1.66-0.67,2.53-2.32,2.64c-1.66,0.11-1.64,0.54,0.08,1.24c-1.61,0.95-3.47,1.07-5.57,0.37c-2.12-0.68-3.6-1.01-4.42-0.95
			c1.54-1.75,3.57-2.51,6.07-2.27C126.99,151.55,129.03,151.2,130.64,150.26z M122.15,134.65c-0.83,0.05-1.03,0.28-0.58,0.66
			c0.43,0.4,0.24,0.61-0.58,0.66C120.94,135.15,121.31,134.7,122.15,134.65z M122.29,155.78c0.05,0.83-0.54,1.28-1.78,1.36
			c-1.24,0.08-1.48-0.31-0.7-1.2L122.29,155.78z M122.5,196.82c1.7,0.72,3.37,1.02,5.03,0.91c0.11,1.66-0.9,2.35-2.97,2.06
			C122.46,199.53,121.78,198.54,122.5,196.82z M130.21,162.73c-0.11-1.65-0.61-2.85-1.49-3.64l-3.55,2.72
			C126.82,161.71,128.5,162.02,130.21,162.73z M129.09,126.73c-0.83,0.05-1.21,0.51-1.16,1.32
			C128.75,127.99,129.14,127.56,129.09,126.73z M125.08,179.24c4.12-0.27,6.17-0.82,6.11-1.65L125,178L125.08,179.24z
			 M124.49,189.22c0.76-0.86,1-0.47,0.7,1.2C124.87,192.11,124.65,191.7,124.49,189.22z M134.74,127.6
			c1.29,0.74,2.75,1.06,4.42,0.95c-0.94-1.59-2.46-2.52-4.54-2.81c-2.1-0.27-3.51,0.44-4.21,2.15
			C132,126.96,133.45,126.87,134.74,127.6z M129.64,154.05l2.48-0.16c0.05,0.84-0.54,1.28-1.78,1.36
			C129.1,155.33,128.86,154.94,129.64,154.05z M126.97,189.06l4.95-0.32c0.06,0.84-0.75,1.29-2.39,1.4
			C127.86,190.25,127.02,189.89,126.97,189.06z M131.55,145.22l1.24-0.08l0.08,1.24l-1.24,0.08L131.55,145.22z M133.05,130.2
			l1.24-0.08l-0.08-1.24l-1.24,0.08L133.05,130.2z M145.33,146.8c0.87,0.78,0.08,1.24-2.39,1.4c0.11,1.66,0.96,2.23,2.6,1.69
			c1.62-0.51,2.87-0.38,3.76,0.38c-2.37,1.83-4.82,2.4-7.35,1.72c-2.53-0.65-5.43-0.46-8.67,0.57c-0.11-1.65,0.26-2.29,1.12-1.94
			c0.84,0.38,1.22-0.27,1.11-1.93c0.93,1.61,1.57,1.97,1.94,1.11c0.35-0.84,1.4-0.5,3.18,1.04c0.76-0.87,1.31-1.95,1.65-3.22
			C142.61,146.36,143.62,146.11,145.33,146.8z M129.93,196.33l2.48-0.16c0.05,0.83-0.34,1.26-1.16,1.32
			C130.42,197.54,129.99,197.16,129.93,196.33z M139.49,133.51l-2.4,1.4C137.04,134.09,137.82,133.62,139.49,133.51z M139.08,127.32
			l1.24-0.08l-0.08-1.24l-1.24,0.08L139.08,127.32z M142.53,142.02l0.08,1.24l-1.16,1.32c-2.48,0.16-3.34-0.19-2.56-1.07
			C140.54,143.39,141.76,142.9,142.53,142.02z M145.11,124.43c0.06,0.83,0.49,1.21,1.32,1.15c0.81-0.05,1.18-0.89,1.08-2.56
			C145.84,123.13,145.06,123.62,145.11,124.43z M141.5,183.13c1.59-0.92,1.8-0.94,0.62-0.04C140.94,184,140.73,184.01,141.5,183.13z
			 M145.17,144.33c0.71-1.7,1.12-1.94,1.2-0.7C146.45,144.87,146.04,145.11,145.17,144.33z M151.28,142.68l-3.71,0.24l-0.16-2.48
			C149.72,137.8,151.01,138.56,151.28,142.68z M149.98,122.86c0.06,0.84,0.9,1.19,2.56,1.08c1.65-0.11,2.85-0.6,3.63-1.49
			c-0.05-0.81-1.14-1.36-3.22-1.65C150.86,120.53,149.87,121.22,149.98,122.86z M145.38,185.36l1.24-0.08l0.08,1.24l-1.24,0.08
			L145.38,185.36z M151.45,145.16c0.71-1.7,1.13-1.73,1.24-0.08C152.79,146.74,152.37,146.77,151.45,145.16z M154.09,147.47
			c0.81-0.05,1.05,0.36,0.7,1.2c-0.37,0.86-0.99,0.9-1.86,0.12l-0.08-1.24L154.09,147.47z M152.57,181.16
			c-0.11-1.65-0.59-2.45-1.4-2.39C149.61,180.54,150.09,181.32,152.57,181.16z M154.84,139.96c-0.11-1.64,0.88-2.33,2.97-2.06
			c2.08,0.29,3.6,1.22,4.54,2.81C158.21,140.98,155.7,140.74,154.84,139.96z M157.58,124.85c0.92,1.61,1.35,1.58,1.24-0.08
			C158.71,123.13,158.28,123.16,157.58,124.85z M157.64,144.75c-1.66,0.11-1.48-0.31,0.54-1.28c2-0.95,3.07-0.61,3.18,1.04
			L157.64,144.75z M157.9,129.81l1.24-0.08l-0.08-1.24l-1.24,0.08L157.9,129.81z M169.91,180.02c-0.05-0.81,0.54-1.27,1.78-1.36
			c1.24-0.08,1.81-0.93,1.7-2.6c-3.2,1.88-6.06,2.48-8.59,1.81c-2.53-0.65-5.87-0.86-9.99-0.58c1.76,1.55,4.07,2.22,6.97,2.03
			C164.66,179.12,167.38,179.37,169.91,180.02z M157.72,145.99c0.76-0.87,1.18-0.89,1.24-0.08c0.05,0.83,0.46,0.81,1.24-0.08
			c0.06,0.83-0.52,1.49-1.74,1.98C157.25,148.31,157,147.71,157.72,145.99z M160.22,127.17l0.08,1.24c0.87,0.78,1.29,0.75,1.24-0.08
			C161.48,127.51,161.03,127.11,160.22,127.17z M165.9,137.99c-0.78,0.89-1.8,0.95-3.1,0.2c-1.29-0.73-2.37-1.09-3.18-1.04
			C161.17,135.4,163.27,135.68,165.9,137.99z M164.91,141.79l2.48-0.16c0.11,1.66-0.46,2.52-1.69,2.6
			C164.45,144.31,164.19,143.5,164.91,141.79z M172.24,120.78c0.78-0.46,2.46-0.36,4.99,0.29c-0.05-0.81-0.3-1.22-0.7-1.2
			c-0.43,0.03-0.64-0.36-0.7-1.2c-1.55,1.78-2.78,2.05-3.67,0.87c-0.92-1.19-1.73-0.91-2.44,0.78
			C170.59,121.11,171.43,121.26,172.24,120.78z M165.79,174.07c-0.72,1.72,0.16,2.48,2.64,2.32c2.48-0.16,3.24-1.04,2.31-2.64
			c-0.89-0.76-1.5-0.72-1.86,0.12C168.51,174.73,167.49,174.8,165.79,174.07z M175.26,110.01c-0.78,0.88-1.99,1.37-3.63,1.48
			C171.57,110.68,172.78,110.17,175.26,110.01z M173.24,154.92c-1.61,0.94-2.44,0.78-2.52-0.46
			C170.64,153.23,171.46,153.39,173.24,154.92z M175.29,167.23c-0.05-0.81-0.52-1.41-1.36-1.78c-0.86-0.35-1.25-0.11-1.2,0.7
			c0.81-0.05,1.25,0.14,1.28,0.54C174.04,167.11,174.46,167.28,175.29,167.23z M173.22,173.58l3.71-0.24
			C176.77,170.86,175.53,170.94,173.22,173.58z M191.29,183.59c-2.32,2.64-5.16,3.66-8.51,3.05c-3.36-0.6-6.73-1.21-10.07-1.82
			c4.07-1.09,7.74-1.95,11.03-2.59C187,181.6,189.52,182.06,191.29,183.59z M172.88,187.29l4.95-0.33c0.05,0.83-0.95,1.52-2.97,2.06
			C172.81,189.59,172.15,189.01,172.88,187.29z M178.92,165.74c-0.78,0.89,0.08,1.24,2.56,1.08l-0.08-1.24L178.92,165.74z
			 M178.34,175.73c1.65-0.11,2.42-0.98,2.31-2.64l-2.48,0.16L178.34,175.73z M181.89,173.01c0.11,1.66,0.92,1.61,2.48-0.16
			C182.59,171.32,181.78,171.37,181.89,173.01z M183.96,166.66l1.16-1.32l-2.48,0.16L183.96,166.66z M186.98,117.94l1.24-0.08
			l-0.08-1.24l-1.24,0.08L186.98,117.94z M186.37,146.6l2.48-0.16l-1.4-2.39c0.06,0.83-0.34,1.26-1.16,1.32
			C185.46,145.41,185.49,145.84,186.37,146.6z M191.85,116.38c-0.05-0.81-0.51-1.21-1.32-1.15l0.08,1.24L191.85,116.38z
			 M193.48,141.15c-0.78,0.89-1.4,0.93-1.86,0.13c-0.48-0.79-1.07-0.34-1.78,1.36c0.05,0.83,0.7,1.2,1.94,1.11
			C193.02,143.67,193.59,142.82,193.48,141.15z M190.01,145.12c0.11,1.66,0.98,2.42,2.64,2.31c1.65-0.11,2.42-0.98,2.31-2.64
			L190.01,145.12z M193.15,136.2c-0.83,0.06-1.22,0.3-1.2,0.7c0.03,0.43-0.38,0.64-1.2,0.7C190.7,136.79,191.49,136.31,193.15,136.2
			z M195.65,117.37c-0.11-1.64-0.78-2.43-2.02-2.35c-1.24,0.08-1.42,0.52-0.54,1.28C193.96,117.08,194.82,117.43,195.65,117.37z
			 M192.93,113.82c1.7,0.73,2.92,0.43,3.68-0.86c0.73-1.3,1.96-1.57,3.67-0.87c-0.11-1.65-0.97-1.99-2.56-1.08
			C196.11,111.96,194.52,112.9,192.93,113.82z M197.94,133.4c-1.72-0.71-3.39-1.02-5.03-0.91c-0.11-1.65,0.88-2.33,2.97-2.06
			C197.96,130.71,198.65,131.7,197.94,133.4z M217.06,178.17c-1.55,1.77-3.36,2.71-5.41,2.84c-2.07,0.14-4.34,0.29-6.81,0.45
			c-2.53-0.65-5.23-0.68-8.09-0.09c-2.88,0.61-5.18,0.15-6.94-1.41c4.12-0.27,8.47-0.35,13.05-0.24
			C207.41,179.85,212.16,179.32,217.06,178.17z M203.62,115.61c2.89-0.19,5.1-1.15,6.65-2.93c-5.9-1.26-10.39-0.13-13.46,3.37
			C198.45,115.95,200.72,115.8,203.62,115.61z M201.74,134.39c-0.78,0.89-1.97,1.59-3.59,2.11c-1.64,0.53-2.49-0.03-2.6-1.7
			L201.74,134.39z M207.9,171.3l0.16,2.48c-4.09,1.1-8.59,1.81-13.54,2.13c-0.11-1.65,1.08-2.56,3.55-2.72
			c2.48-0.16,4.15,0.15,5.04,0.91C204.65,172.35,206.24,171.41,207.9,171.3z M201.43,110.77c2.48-0.16,3.69-0.65,3.63-1.48
			C202.59,109.46,201.38,109.96,201.43,110.77z M205.21,130.43c-1.55,1.78-3.17,2.29-4.87,1.57
			C200.18,129.52,201.8,129,205.21,130.43z M200.58,135.71c3.29-0.22,5.04,0.91,5.2,3.39c-1.72-0.71-2.53-0.65-2.48,0.16
			c0.05,0.83-0.37,0.86-1.24,0.08c-0.05-0.82-0.3-1.22-0.7-1.2C200.94,138.18,200.69,137.37,200.58,135.71z M275.97,128.27
			c-0.83,0.05-1.03,0.28-0.58,0.66c0.43,0.4,0.23,0.61-0.58,0.66c-1.67,0.11-2.72-0.23-3.18-1.03c-0.48-0.79-1.5-0.72-3.1,0.2
			c-0.83,0.05-1.18,0.92-1.08,2.56c-6.51,2.1-12.44,3.31-17.8,3.66c-5.38,0.35-10.92,1.14-16.64,2.34l0.16,2.48
			c-1.66,0.11-2.53-0.65-2.64-2.31c-1.61,0.94-3.01,1.44-4.25,1.52c-1.24,0.08-2.25,0.58-3.02,1.44c-2.48,0.16-4.11,0.7-4.87,1.56
			c-4.19-0.54-7.7-0.31-10.53,0.69c-2.85,1.02-4.76,0.31-5.74-2.11c5.66-2.02,11.19-3.01,16.6-2.95c5.39,0.07,10.03-1.69,13.96-5.27
			c-4.95,0.32-9.07,1.02-12.3,2.05c-3.25,1.05-7.77,1.75-13.54,2.13c8.91-3.08,17.08-5.04,24.49-5.96
			c7.4-0.89,15.58-2.47,24.57-4.72c-0.72,1.72-2.12,2.63-4.17,2.76c-2.07,0.13-3.93,0.26-5.57,0.36c-1.56,1.77-3.58,2.32-6.11,1.64
			c-2.53-0.65-4.58-0.1-6.11,1.64c0.92,1.62,3.02,1.88,6.27,0.83c3.24-1.03,5.68-1.62,7.35-1.73l0.16,2.48
			c1.65-0.11,2.43-0.97,2.32-2.64c4.18,0.56,8.48-0.13,12.92-2.09c4.42-1.94,7.52-2.15,9.29-0.61
			C273.02,127.65,274.26,127.56,275.97,128.27z M208.78,109.05l-2.48,0.16c0.11,1.66,0.57,2.45,1.4,2.4
			C208.52,111.55,208.89,110.71,208.78,109.05z M202.44,182.86l-1.16,1.32C201.23,183.37,201.61,182.91,202.44,182.86z
			 M206.42,167.67c0.11,1.66-0.67,2.53-2.32,2.64C202.33,168.77,203.11,167.89,206.42,167.67z M207.61,129.03l-1.16,1.32
			L207.61,129.03z M213.41,103.77c-1.66,0.11-2.26,0.58-1.78,1.36C212.1,105.93,212.69,105.49,213.41,103.77z M209.82,143.81
			l-1.16,1.32C208.61,144.32,208.99,143.87,209.82,143.81z M207.74,168.82l1.24-0.08l1.24-0.08l-1.16,1.32
			C208.22,170.04,207.79,169.66,207.74,168.82z M211.62,171.06l0.08,1.24l-1.24,0.08C210.4,171.57,210.78,171.11,211.62,171.06z
			 M213.31,168.46c1.24-0.08,1.91,0.71,2.02,2.36l-3.71,0.24C211.51,169.42,212.07,168.54,213.31,168.46z M215.66,175.77
			c1.7,0.72,3.56,0.6,5.57-0.37c2-0.95,3.88-0.67,5.65,0.87C221.21,178.32,217.46,178.14,215.66,175.77z M221.04,162.97l-3.72,0.25
			C219.08,164.78,220.31,164.7,221.04,162.97z M215.98,180.72c0.82-0.06,1.27,0.34,1.32,1.16l-1.24,0.08L215.98,180.72z
			 M220.86,179.16c2.48-0.16,3.74,0.18,3.8,0.99c-0.05-0.81-0.67-0.77-1.86,0.12C221.61,181.19,220.96,180.82,220.86,179.16z
			 M223.59,164.05l-1.32-1.16C222.38,164.56,222.82,164.94,223.59,164.05z M224.35,156.54c0.92,1.62,1.35,1.59,1.24-0.08
			C225.48,154.81,225.05,154.84,224.35,156.54z M228.52,106.51c-0.05-0.81,0.34-1.05,1.2-0.71c0.84,0.37,1.31,0.97,1.36,1.78
			c-1.61,0.94-2.23,0.98-1.86,0.12C229.57,106.87,229.34,106.46,228.52,106.51z M230.92,105.11c-0.11-1.65,0.7-1.7,2.48-0.16
			L230.92,105.11z M235.31,171.99c0.11,1.66,1.39,2.2,3.84,1.61c2.45-0.56,4.49-0.91,6.15-1.02c-1.56,1.78-3.57,2.53-6.07,2.26
			c-2.5-0.24-4.13,0.49-4.83,2.19c-1.77-1.54-3.25-2.06-4.46-1.58c-1.21,0.51-2.7-0.02-4.46-1.57c1.59-0.92,3.24-1.03,4.95-0.33
			C232.14,174.28,233.76,173.76,235.31,171.99z M231.52,123.72c1.24-0.08,1.91,0.71,2.02,2.36l-2.56-1.07
			C230.09,124.25,230.28,123.81,231.52,123.72z M230.8,141.19l-1.16,1.32C229.59,141.7,229.97,141.24,230.8,141.19z M230.68,177.27
			c0.05,0.83-0.52,1.49-1.74,1.98c-1.21,0.51-1.87-0.07-1.98-1.73c0.76-0.87,1.19-0.9,1.24-0.08
			C228.26,178.26,229.07,178.21,230.68,177.27z M232.77,152.25c0.76-0.87,2.02-0.54,3.8,1c1.54-1.76,3.13-2.7,4.79-2.81
			c1.64-0.11,3.72-0.24,6.19-0.41C240.72,147.18,235.79,147.92,232.77,152.25z M237.06,160.68c-0.72,1.72-0.46,2.52,0.78,2.44
			c1.24-0.08,1.8-0.94,1.69-2.6L237.06,160.68z M244.03,115.44c0.71-1.69,1.13-1.72,1.24-0.08
			C245.38,117.02,244.96,117.05,244.03,115.44z M248.17,112.06c-1.27-0.33-2.3-0.05-3.06,0.82c0.65-2.53,2.7-3.07,6.11-1.64
			C250.44,112.12,249.43,112.41,248.17,112.06z M247.47,148.8c4.18,0.56,7.31,0.98,9.41,1.25c2.08,0.29,5.14-0.53,9.17-2.47
			c-2.48,0.16-3.74-0.16-3.8-0.99c1.65-0.11,3.72-0.24,6.19-0.41s4.47-1.11,6.03-2.88c-5.73,1.21-10.45,1.93-14.16,2.17
			C256.6,145.71,252.32,146.83,247.47,148.8z M254.2,99.84l-2.48,0.16c-0.78,0.89-0.54,1.28,0.7,1.2
			C253.67,101.12,254.26,100.68,254.2,99.84z M251.33,169.69l-4.95,0.33c-0.11-1.65,0.65-2.53,2.31-2.64
			C250.34,167.27,251.23,168.05,251.33,169.69z M246.62,173.74c1.64-0.11,2.5,0.26,2.56,1.07
			C246.7,174.97,245.84,174.62,246.62,173.74z M253.7,111.07c0.87,0.78,0.08,1.24-2.4,1.4C251.25,111.66,252.04,111.18,253.7,111.07
			z M253.96,96.13c0.81-0.06,1.23-0.28,1.2-0.7c-0.03-0.4,0.8-0.25,2.52,0.46c-0.11-1.65-0.99-2.42-2.64-2.31
			C253.37,93.68,253.02,94.54,253.96,96.13z M259.49,104.48c1.7,0.72,1.12,1.38-1.74,1.98c-2.88,0.62-4.35,0.09-4.46-1.57
			c0.81-0.05,1.87,0.09,3.14,0.41C257.7,105.64,258.71,105.36,259.49,104.48z M259.01,172.92c-1.66,0.11-3.08,0.41-4.29,0.9
			c-1.21,0.51-2.67,0.39-4.38-0.33c0.76-0.87,2.38-1.6,4.83-2.19C257.62,170.74,258.9,171.28,259.01,172.92z M253.92,133.44
			l1.24-0.08c-0.05-0.81-0.51-1.21-1.32-1.16L253.92,133.44z M253.08,158.38c2.42-0.98,5.28-1.59,8.59-1.81
			C257.36,154.37,254.51,154.99,253.08,158.38z M264.67,126.52c-1.77-1.54-3.43-1.64-5-0.29c-1.58,1.35-2.83,1.23-3.76-0.37
			C259.87,123.11,262.78,123.34,264.67,126.52z M257.33,109.59c-0.05-0.81,0.34-1.05,1.2-0.7c0.84,0.37,1.66,0.11,2.44-0.78
			C260.19,109,258.98,109.48,257.33,109.59z M253.73,168.29l1.24-0.08l0.08,1.24l-1.24,0.08L253.73,168.29z M262.55,94.32
			c0.81-0.06,1.21-0.49,1.16-1.32C262.88,93.05,262.5,93.51,262.55,94.32z M261.96,104.31c-0.05-0.81,0.54-1.28,1.78-1.36
			c1.24-0.08,1.89,0.31,1.94,1.12c-1.61,0.94-2.41,1.21-2.44,0.78C263.22,104.44,262.78,104.26,261.96,104.31z M264.6,106.62
			l2.48-0.16l0.16,2.48l-2.48,0.16L264.6,106.62z M262.56,170.2c3.29-0.22,5.01,0.51,5.12,2.15c-0.89-0.76-1.94-1.12-3.18-1.04
			C263.26,171.4,262.61,171.03,262.56,170.2z M266.62,156.25l-2.48,0.16c-0.72,1.72-0.46,2.52,0.78,2.44
			C266.16,158.77,266.73,157.91,266.62,156.25z M270.55,102.5l-1.16,1.32C269.34,103.01,269.72,102.56,270.55,102.5z M279.63,108.12
			c-1.77-1.54-3.64-1.62-5.61-0.25c-1.99,1.37-3.48,0.85-4.46-1.58c1.7,0.73,3.35,0.62,4.95-0.32
			C276.1,105.05,277.8,105.75,279.63,108.12z M279.14,100.7c-0.72,1.72-1.92,2.42-3.59,2.1c-1.69-0.29-3.35-0.4-4.99-0.29
			c0.7-1.7,1.92-2.19,3.63-1.48C275.88,101.74,277.53,101.63,279.14,100.7z M273.94,97.3l-0.08-1.24l-0.08-1.24
			c-1.55,1.77-2.37,1.83-2.48,0.16C271.41,96.65,272.28,97.41,273.94,97.3z M280.73,162.79c0.76-0.87,2.08,0.29,3.96,3.47
			c-1.67,0.11-3.91,0.47-6.77,1.06c-2.88,0.62-5.13,0.96-6.77,1.07c0.71-1.7,0.26-2.29-1.36-1.77c-1.64,0.53-2.49-0.03-2.6-1.7
			c4.95-0.33,7.81-0.92,8.59-1.81c0.81-0.06,1.27,0.34,1.32,1.15c0.06,0.84,0.49,1.21,1.32,1.16c0.81-0.06,1.23-0.28,1.2-0.7
			c-0.03-0.41,0.77-0.67,2.44-0.78L280.73,162.79z M268.32,153.65c0.46,0.81,1.05,0.36,1.78-1.36
			C268.43,152.4,267.84,152.87,268.32,153.65z M275.97,128.27c-0.94-1.59-0.75-2.01,0.54-1.28
			C277.81,127.74,277.62,128.16,275.97,128.27z M272.31,167.07l1.24-0.08c0.81-0.05,1.21-0.48,1.16-1.32
			C273.04,165.78,272.25,166.26,272.31,167.07z M280.97,90.62c-1.72-0.7-2.34-0.66-1.86,0.12
			C279.57,91.55,280.19,91.51,280.97,90.62z M283.26,106.64c-0.89-0.76-1.73-0.92-2.52-0.46c-0.81,0.48-0.85-0.14-0.12-1.86
			C282.27,104.22,283.15,105,283.26,106.64z M281.29,95.57c0.71-1.69,1.13-1.72,1.24-0.08C282.64,97.16,282.21,97.19,281.29,95.57z
			 M280.85,126.7c0.87,0.78,1.5,0.95,1.9,0.5c0.38-0.43,0.63,0.17,0.74,1.81c-1.72-0.7-2.34-0.66-1.86,0.12
			c0.46,0.81-0.13,1.26-1.78,1.36c-0.94-1.58-0.98-2.21-0.12-1.86C280.57,129.02,280.96,128.37,280.85,126.7z M276.94,161.79
			l1.24-0.08l0.08,1.24l-1.24,0.08L276.94,161.79z M290.27,118.62c0.11,1.66-0.88,2.54-2.93,2.68c-2.07,0.14-3.55-0.18-4.41-0.96
			c-0.11-1.65,0.68-2.1,2.4-1.4C287.01,119.67,288.66,119.56,290.27,118.62z M284.5,106.56c0.7-1.7,1.12-1.94,1.2-0.7
			C285.78,107.1,285.37,107.34,284.5,106.56z M289.63,99.38c0.38-0.43,1.39-0.71,3.06-0.82c-2.31,2.64-4.39,2.78-6.19,0.41
			C288.19,99.69,289.23,99.84,289.63,99.38z M282.38,168.9c0.7-1.7,1.13-1.73,1.24-0.08C283.73,170.48,283.3,170.51,282.38,168.9z
			 M286.21,132.57c1.54-1.75,2.36-2.02,2.44-0.79C288.73,133.03,287.91,133.3,286.21,132.57z M300.71,163.96
			c-1.56,1.77-3.59,2.1-6.15,1.03c-2.56-1.08-5.02-0.7-7.39,1.11c-0.11-1.64-0.78-2.44-2.02-2.36c-1.24,0.08-1.48-0.31-0.7-1.2
			C288.57,162.27,293.99,162.75,300.71,163.96z M288.12,123.74c0.81-0.05,1.29,0.75,1.4,2.4l-1.32-1.16L288.12,123.74z
			 M286.27,152.47c-0.78,0.89-0.32,1.7,1.4,2.39c1.59-0.92,3.01-1.44,4.25-1.52c1.24-0.08,2.21-0.96,2.94-2.68
			c-1.61,0.94-3.03,1.24-4.3,0.9C289.3,151.24,287.87,151.55,286.27,152.47z M293.07,123.41c0.05,0.83-0.75,1.29-2.4,1.4l1.16-1.32
			L293.07,123.41z M296.56,100.79c1.76,1.55,3.02,1.88,3.8,1c0.76-0.87,1.62-0.52,2.56,1.07c-2.64-2.31-3.82-1.4-3.55,2.72
			c-1.66,0.11-2.72-0.23-3.18-1.04c-0.48-0.78-1.53-1.14-3.18-1.04c-0.11-1.65,0.5-1.9,1.82-0.74s2.79,1.68,4.46,1.57
			c-0.11-1.65-0.57-2.23-1.36-1.77C297.12,103.05,296.67,102.46,296.56,100.79z M296.38,116.98l-1.16,1.32l-0.08-1.24L296.38,116.98
			z M297.55,97c0.87,0.78,1.73,1.13,2.56,1.08c0.05,0.83-0.54,1.28-1.78,1.36C297.1,99.51,296.83,98.72,297.55,97z M297.94,121.85
			l0.08,1.24l-1.16,1.32c-0.05-0.81-0.51-1.21-1.32-1.15C295.5,122.44,296.28,121.96,297.94,121.85z M303.89,117.73
			c-0.78,0.89-1.6,1.15-2.44,0.78c-0.86-0.35-1.68-0.08-2.44,0.78l-1.32-1.16C299.18,115.55,301.25,115.41,303.89,117.73z
			 M297.94,121.85l1.24-0.08l0.08,1.24l-1.24,0.08L297.94,121.85z M348.69,155.83c-1.5,2.59-3.55,2.72-6.19,0.41
			c1.75,1.56,3.67,2.25,5.74,2.11c2.05-0.14,3.45-1.04,4.17-2.76c2.59,1.5,5.26,1.33,8.05-0.53c2.78-1.83,5.87-2.04,9.29-0.61
			c-1.56,1.77-4.4,2.58-8.55,2.43c-4.17-0.14-7.01,0.67-8.55,2.42l-13.62,0.9l-0.16-2.48c-4.14,0.27-7.62,0.93-10.45,1.93
			c-2.85,1.02-6.38,0.85-10.61-0.55c0.05,0.84,0.49,1.21,1.32,1.16c-4.09,1.1-8.01,1.15-11.81,0.15c-3.8-1-7.82-2.17-12.05-3.56
			c5.66-2.02,11.43-2.62,17.3-1.76c5.85,0.86,10.9,1.99,15.15,3.36c0.81-0.06,1.19-0.89,1.08-2.56c1.75,1.56,3,1.67,3.75,0.38
			c0.73-1.3,1.99-1.16,3.76,0.37c0.81-0.06,1.19-0.9,1.08-2.56C341.5,153.82,345.27,154.4,348.69,155.83z M303.75,96.59
			c-1.56,1.78-2.56,2.25-3.02,1.45C300.25,97.25,301.27,96.75,303.75,96.59z M298.92,136.71l0.16,2.48c1.7,0.72,3.96,0.57,6.81-0.45
			c2.83-1,5.47-2.01,7.89-3.01c-1.77-1.54-4.05-1.6-6.85-0.17C304.11,136.99,301.45,137.38,298.92,136.71z M298.42,147.94l1.16-1.32
			C298.74,146.67,298.36,147.12,298.42,147.94z M311.49,119.71c-1.61,0.94-3.41,1.9-5.41,2.85c-2.02,0.97-3.49,0.65-4.42-0.96
			c1.7,0.72,3.33,0.4,4.91-0.95C308.14,119.31,309.77,119.01,311.49,119.71z M309.62,91.22c0.11,1.66-0.29,2.1-1.16,1.32
			c-0.89-0.76-2.15-1.11-3.8-1C305.42,90.69,307.09,90.58,309.62,91.22z M308.7,96.26c-0.78,0.89-1.99,1.37-3.64,1.48
			C304.85,94.46,306.06,93.95,308.7,96.26z M318.94,100.57c0.81-0.05,0.6-0.24-0.66-0.58c-1.26-0.32-1.52-0.93-0.74-1.81
			c1.7,0.72,3.57,0.81,5.61,0.25c2.03-0.54,3.14,0.42,3.3,2.9c-4.09,1.1-7.6,1.12-10.57,0.07c-2.99-1.05-5.67-1.07-8.09-0.09
			C309.33,99.55,313.04,99.3,318.94,100.57z M309.62,91.22c1.59-0.92,3.83-1.49,6.73-1.69c2.88-0.19,5.55-0.77,7.97-1.77l-2.4,1.4
			l0.08,1.24c-1.77-1.53-3.84-1.61-6.23-0.21C313.37,91.6,311.31,91.95,309.62,91.22z M309.94,96.18c-0.89-0.76-0.51-1.21,1.16-1.32
			c1.64-0.11,2.08,0.29,1.32,1.16L309.94,96.18z M314.81,94.62l-1.16,1.32C313.6,95.12,313.98,94.67,314.81,94.62z M312.4,114.68
			l1.24-0.08l2.48-0.16c0.05,0.83-0.54,1.28-1.78,1.36C313.1,115.88,312.46,115.51,312.4,114.68z M333.23,90.92
			c-1.56,1.77-3.98,2.74-7.27,2.96c-3.31,0.22-6.19,0.41-8.67,0.57c2.42-0.97,4.87-1.56,7.35-1.73
			C327.12,92.56,329.98,91.97,333.23,90.92z M316.6,121.87c0.7-1.7,1.13-1.73,1.24-0.08C317.95,123.45,317.53,123.48,316.6,121.87z
			 M315.84,148.04c-0.83,0.06-1.21,0.5-1.16,1.32C315.49,149.31,315.89,148.87,315.84,148.04z M317.5,135.49
			c4.12-0.27,8.22-0.95,12.31-2.05c-0.94-1.59-3.04-1.86-6.28-0.83C320.27,133.66,318.26,134.63,317.5,135.49z M325.47,86.45
			c1.75,1.55,2.56,1.07,2.39-1.4C326.2,85.16,325.42,85.64,325.47,86.45z M337.52,99.35c-1.72-0.71-3.15-0.61-4.33,0.28
			c-1.19,0.91-2.66,0.6-4.42-0.96c0.7-1.7,2.11-2.41,4.21-2.15C335.06,96.82,336.58,97.75,337.52,99.35z M328.42,112.38
			c1.59-0.92,2.62-0.99,3.1-0.2c0.46,0.8,1.49,0.73,3.1-0.2c0.11,1.66-0.7,2.12-2.4,1.4C330.5,112.67,329.23,112.33,328.42,112.38z
			 M336.54,84.48l-4.95,0.33c0.11,1.67,0.77,2.24,1.98,1.74C334.78,86.05,335.76,85.37,336.54,84.48z M328.81,137.24l1.24-0.08
			c-0.05-0.81-0.51-1.21-1.32-1.15L328.81,137.24z M335.06,80.85c2.48-0.16,3.69-0.65,3.63-1.48
			C336.21,79.53,335,80.04,335.06,80.85z M367.75,86.16c-11.36,4.07-22.45,5.63-33.28,4.68c4.12-0.27,9.05-1,14.78-2.22
			C354.96,87.43,361.13,86.6,367.75,86.16z M334.05,103.31c0.7-1.7,1.13-1.73,1.24-0.08C335.39,104.89,334.97,104.92,334.05,103.31z
			 M334.8,95.79c-0.11-1.65,0.06-2.07,0.54-1.28c0.46,0.81,1.11,1.17,1.94,1.12l-1.24,0.08L334.8,95.79z M336.1,115.61l-1.16,1.32
			C334.89,116.12,335.27,115.67,336.1,115.61z M334.92,135.59l2.48-0.16c-0.05-0.81-0.91-1.19-2.56-1.08L334.92,135.59z
			 M338.43,94.31c1.65-0.11,2.5,0.27,2.56,1.08l-2.48,0.16L338.43,94.31z M337.89,142.86c-0.11-1.64-0.53-1.61-1.24,0.08
			C337.57,144.55,338,144.52,337.89,142.86z M337.71,159.04c-0.72,1.72-1.33,1.95-1.82,0.74
			C335.38,158.57,335.99,158.34,337.71,159.04z M336.89,146.66l0.08,1.24c0.87,0.78,1.28,0.54,1.2-0.7
			c-0.08-1.24-0.55-1.83-1.36-1.78L336.89,146.66z M343.35,131.31c-0.89-0.76-2.15-1.1-3.8-0.99c-0.72,1.72-0.26,2.51,1.4,2.39
			C342.6,132.6,343.4,132.14,343.35,131.31z M343.38,93.98l-1.16,1.32C342.17,94.49,342.55,94.04,343.38,93.98z M339.12,142.77
			c0.11,1.66,1.4,2.4,3.88,2.23c-0.11-1.64-0.38-2.46-0.78-2.44c-0.43,0.03-0.65-0.37-0.7-1.2c-0.83,0.06-1.22,0.3-1.2,0.7
			C340.35,142.5,339.94,142.72,339.12,142.77z M348.4,113.56c-0.78,0.89-2.4,1.4-4.87,1.56
			C343.48,114.31,345.09,113.78,348.4,113.56z M344.36,108.85c0.81-0.06,1.27,0.34,1.32,1.15l-1.24,0.08L344.36,108.85z
			 M342.68,140.05c1.81,2.37,4.34,3.04,7.59,1.99c3.24-1.03,6.17-0.81,8.75,0.67c0.7-1.7,1.72-2.17,3.02-1.44
			c1.29,0.75,2.29,0.28,3.01-1.44c-4.09,1.11-7.83,0.94-11.23-0.51C350.41,137.9,346.69,138.14,342.68,140.05z M400.19,87.76
			c0.87,0.78,2.11,0.7,3.72-0.24c-3.2,1.88-7.68,3.2-13.42,3.99c-5.76,0.81-9.54,0.01-11.35-2.36c-1.55,1.78-4.18,2.57-7.93,2.39
			c-3.74-0.17-6.82,0.25-9.25,1.22c0.05,0.83,0.49,1.21,1.32,1.16c0.81-0.06,1.27,0.34,1.32,1.16c-3.2,1.88-4.09,1.1-2.64-2.32
			c-1.66,0.11-4.11,0.7-7.35,1.73c-3.26,1.05-5.76,0.81-7.51-0.75c5.71-1.19,11.26-1.98,16.64-2.34c5.36-0.35,11.29-1.55,17.8-3.65
			c0.81-0.05,1.25,0.13,1.28,0.54c0.03,0.43,0.45,0.59,1.28,0.54c1.59-0.92,3.45-1.04,5.57-0.37c2.11,0.7,3.12,0.23,3.01-1.44
			l1.32,1.15c1.64-0.11,2.42-0.98,2.31-2.64C398.02,86.26,399.31,87,400.19,87.76z M345.76,111.24c0.71-1.7,1.13-1.73,1.24-0.08
			C347.11,112.83,346.68,112.86,345.76,111.24z M345.83,131.14c2.42-0.97,4.27-1.31,5.53-0.99c1.27,0.35,2.71,0.45,4.38,0.34
			c-0.94-1.59-2.45-2.32-4.5-2.19C349.16,128.44,347.36,129.39,345.83,131.14z M355.49,126.77l1.24-0.08
			c0.76-0.87,0.52-1.47-0.74-1.81c-1.27-0.33-1.47-0.11-0.58,0.65L355.49,126.77z M359.14,106.63c1.65-0.11,2.53,0.67,2.64,2.31
			c-0.05-0.81-0.49-1-1.28-0.54C359.7,108.89,359.25,108.3,359.14,106.63z M359.04,124.05c-0.83,0.05-1.21,0.51-1.16,1.32
			C358.7,125.32,359.1,124.89,359.04,124.05z M364.49,83.89c-0.32,1.69-0.51,1.7-0.62,0.04C364.57,82.23,364.79,82.22,364.49,83.89z
			 M368.55,107.88c-2.1-0.27-3.59-0.8-4.46-1.58c1.59-0.92,3.03-1.23,4.3-0.9c1.27,0.34,3.14,0.41,5.61,0.25
			C372.45,107.43,370.63,108.17,368.55,107.88z M365.76,93.76l2.48-0.16l-1.16,1.32L365.84,95L365.76,93.76z M378.78,121.51
			c0.92,1.61,1.99,1.95,3.18,1.04c1.18-0.89,1.83-0.53,1.94,1.12c-4.14,0.27-6.64,0.03-7.51-0.75c-0.78,0.89-0.54,1.28,0.7,1.2
			c1.24-0.08,1.46,0.33,0.7,1.2c-1.72-0.7-4.01-0.98-6.89-0.79c-2.9,0.19-5.11,1.17-6.65,2.93c4.23,1.39,7.57,1.58,9.99,0.59
			c2.42-0.98,5.71-1.2,9.91-0.65c-0.11-1.65,1.07-2.56,3.55-2.72c2.48-0.16,4.47-1.11,6.03-2.88c-3.31,0.22-5.46-0.88-6.43-3.31
			c-0.72,1.72-2.13,2.44-4.21,2.15C380.98,120.34,379.54,120.65,378.78,121.51z M367.67,84.92l3.72-0.24
			c0.06,0.84-0.52,1.49-1.74,1.98C368.44,87.17,367.78,86.59,367.67,84.92z M365.05,139.83c0.11,1.66,0.56,2.26,1.36,1.78
			c0.78-0.46,2.04-0.33,3.75,0.38l-0.16-2.48c-0.89-0.76-1.5-0.72-1.86,0.12C367.78,140.49,366.76,140.55,365.05,139.83z
			 M379.97,82.87c-4.19-0.54-7.49-0.33-9.91,0.65c0.65-2.53,2.03-3.65,4.13-3.38C376.27,80.43,378.2,81.33,379.97,82.87z
			 M399.79,81.57c-4.09,1.11-8.56,2.23-13.46,3.37c-4.9,1.15-9.07,1.02-12.47-0.43c4.12-0.27,7.82-0.71,11.11-1.35
			C388.23,82.54,393.17,82,399.79,81.57z M386.64,108.56c0.06,0.83,1.73,1.13,5.03,0.91c0.92,1.61,0.16,2.48-2.31,2.64
			c-2.48,0.16-3.36-0.6-2.64-2.31c-1.61,0.94-3.26,1.05-4.95,0.33c-1.61,0.94-1.99,1.38-1.16,1.32c0.81-0.05,0.84,0.37,0.08,1.24
			c-1.66,0.11-3.08,0.42-4.3,0.9c-1.21,0.51-2.7-0.01-4.46-1.57c-0.11-1.65,0.47-2.31,1.73-1.98c1.27,0.35,2.33,0.9,3.22,1.66
			c1.65-0.11,3.24-1.03,4.79-2.8c1.54-1.75,3.61-1.89,6.19-0.41L386.64,108.56z M371.43,123.24l2.48-0.16
			c-0.05-0.81-0.91-1.18-2.56-1.07L371.43,123.24z M378.96,105.33c-0.72,1.72-1.32,2.17-1.78,1.36c-0.48-0.79-1.51-0.72-3.1,0.2
			c-0.11-1.64,0.45-2.52,1.7-2.6C377.02,104.21,378.07,104.57,378.96,105.33z M375.58,91.87c-0.05-0.81,0.16-0.63,0.66,0.58
			C376.73,93.66,376.51,93.48,375.58,91.87z M376.91,93.02c-0.05-0.81,0.11-1.25,0.54-1.28c0.4-0.03,0.65,0.39,0.7,1.2L376.91,93.02
			z M378.86,75.48c-0.43,0.03-0.59,0.46-0.54,1.28l1.24-0.08C379.51,75.86,379.27,75.45,378.86,75.48z M374.13,145.45
			c0.7-1.7,0.9-1.93,0.58-0.66C374.37,146.06,374.19,146.28,374.13,145.45z M383.36,77.67c-0.05-0.81-0.51-1.21-1.32-1.16
			c-0.83,0.05-1.21,0.51-1.15,1.32l1.24-0.08L383.36,77.67z M381.16,138.77c2.64,2.31,5.14,2.57,7.51,0.75
			c-0.94-1.59-2.23-2.34-3.88-2.23C383.13,137.4,381.92,137.9,381.16,138.77z M387.55,103.52c-0.05-0.81,0.54-1.28,1.78-1.36
			c1.24-0.08,1.46,0.33,0.7,1.2L387.55,103.52z M384.53,152.23c0.7-1.7,1.13-1.73,1.24-0.08
			C385.88,153.82,385.45,153.84,384.53,152.23z M386.84,149.59c1.65-0.11,2.69,0.03,3.14,0.41c0.43,0.4,1.47,0.53,3.14,0.42
			l-0.16-2.48C390.42,147.3,388.38,147.84,386.84,149.59z M393.74,103.11l-1.24,0.08L393.74,103.11z M468.85,129.28
			c0.11,1.66,0.57,2.45,1.4,2.39c-1.61,0.94-2.24,0.77-1.9-0.5c0.33-1.26-0.33-1.84-1.98-1.74c-2.37,1.83-4.2,2.36-5.49,1.61
			c-1.29-0.73-2.8-1.47-4.5-2.19c-7.21,3.8-16.31,4.4-27.25,1.79c0.81-0.05,0.08,1.24-2.23,3.88c-2.59-1.48-5.7-1.49-9.33-0.01
			c-3.63,1.48-6.34,1.46-8.09-0.09c-3.87,4.41-10.04,5.23-18.5,2.46c0.05,0.84-0.13,1.26-0.54,1.28c-0.43,0.03-0.59,0.47-0.54,1.28
			c1.64-0.11,2.9,0.03,3.76,0.37c0.84,0.38,2.07,0.08,3.68-0.86c0.11,1.66,0.36,2.46,0.78,2.44c0.41-0.03,0.65,0.39,0.7,1.21
			c4.01-1.92,7.28-2.76,9.79-2.51c2.5,0.26,5.83,0.66,10.03,1.21c6.33-4.56,13.36-5.02,21.06-1.38c0.76-0.87,1.35-1.34,1.78-1.37
			c0.4-0.03,1-0.47,1.78-1.36c-5.89-1.26-8.86-2.31-8.91-3.15c1.59-0.92,4.08-0.89,7.47,0.14c3.37,1.02,5.84,0.67,7.39-1.11
			c1.81,2.37,3.73,3.29,5.78,2.73c2.02-0.54,3.92-0.04,5.7,1.49c-1.67,0.11-2.45,0.59-2.4,1.41c0.87,0.78,1.7,0.72,2.48-0.16
			c0.76-0.87,2.02-0.54,3.8,0.99c0.71-1.7,3.5-3.54,8.34-5.53l0.16,2.48c-3.31,0.22-4.9,1.16-4.79,2.81
			c2.42-0.98,4.63-1.96,6.65-2.93c2-0.95,4.63-1.95,7.89-3.01c-0.89-0.76-0.7-1.2,0.54-1.28c1.24-0.08,1.81-0.94,1.7-2.6
			c-3.42-1.43-6.34-1.86-8.79-1.29C473.79,128.76,471.33,129.12,468.85,129.28z M423.73,86.21c-1.61,0.94-4.11,0.7-7.51-0.75
			c-3.42-1.42-6.3-1.24-8.67,0.57c-1.72-0.7-3.38-0.8-4.99-0.29c-1.64,0.54-3.3,0.43-4.99-0.29C409,83.05,417.73,83.31,423.73,86.21
			z M400.81,134.99l-6.19,0.41c-0.72,1.72,0.16,2.48,2.64,2.31C399.74,137.55,400.92,136.66,400.81,134.99z M394.36,150.34
			c0.92,1.61,1.35,1.58,1.24-0.08C395.49,148.62,395.06,148.64,394.36,150.34z M401.17,102.62l-1.32-1.16
			c-0.11-1.65,0.71-1.7,2.48-0.16L401.17,102.62z M418.35,99.01c-1.55,1.77-3.78,2.55-6.69,2.31c-2.93-0.22-5.61-0.26-8.09-0.09
			c1.53-1.75,3.97-2.53,7.31-2.34C414.19,99.09,416.69,99.12,418.35,99.01z M402.7,144.82c0.05,0.83,0.7,1.2,1.94,1.12
			c1.24-0.08,2.24-0.56,3.02-1.44c-0.83,0.05-2.1-0.27-3.8-0.99C402.14,142.79,401.76,143.23,402.7,144.82z M406.99,105.97
			c0.41-0.03,0.65,0.39,0.7,1.2l-1.24,0.08c-0.89-0.76-0.94-1.59-0.16-2.48C406.35,105.61,406.56,106,406.99,105.97z M410.21,145.57
			l1.24-0.08l-0.08-1.24l-1.24,0.08L410.21,145.57z M444.62,82.35l0.08,1.24l-1.24,0.08c-0.83,0.05-1.26-0.33-1.32-1.16
			c-3.2,1.88-7.11,2.34-11.72,1.4c-4.63-0.94-9.01-1.27-13.13-1c4.12-0.27,9.67-1.04,16.64-2.34c6.95-1.27,12.61-0.4,16.97,2.62
			C447.59,83.4,445.49,83.14,444.62,82.35z M417.34,121.47c2.64,2.32,3.88,2.24,3.72-0.24c-1.67,0.11-2.72-0.23-3.18-1.04
			C417.39,119.4,417.23,119.82,417.34,121.47z M422.07,98.76c-0.78,0.89-1.39,0.93-1.86,0.12C419.73,98.1,420.35,98.06,422.07,98.76
			z M468.9,73.3c-4.14,0.27-7.63,0.71-10.49,1.31c-2.87,0.62-6.39,0.63-10.57,0.07c-2.48,0.16-5.14,0.77-7.97,1.77
			c-2.85,1.02-6.32,1.66-10.45,1.93c-3.31,0.22-4.98-0.08-5.04-0.91c3.29-0.22,6.81-0.44,10.53-0.69c3.72-0.24,7.17-1.29,10.37-3.17
			c1.7,0.72,3.57,0.81,5.61,0.25c2.03-0.54,3.9-0.45,5.62,0.26C463.01,72.03,467.13,71.76,468.9,73.3z M423.61,122.3l1.24-0.08
			l-0.08-1.24l-1.24,0.08L423.61,122.3z M444.2,94.82c-0.72,1.72-3.13,2.91-7.23,3.59c-4.11,0.7-6.63,0.24-7.55-1.37
			c3.29-0.22,5.75-0.58,7.39-1.11C438.42,95.42,440.89,95.04,444.2,94.82z M432.04,118.01c-0.05-0.81-0.71-1.39-1.98-1.74
			c-1.27-0.33-1.87-0.07-1.82,0.74l0.08,1.24L432.04,118.01z M430.98,101.91l0.08,1.24l1.24-0.08
			C432.25,102.25,431.79,101.85,430.98,101.91z M430.88,119.33l0.16,2.48L430.88,119.33z M437.17,101.5
			c-1.72-0.7-2.32-0.47-1.82,0.75C435.84,103.46,436.45,103.22,437.17,101.5z M439.89,105.06c0.87,0.77,1.51,1.14,1.94,1.12
			c0.41-0.03,1.05,0.36,1.94,1.12c-1.61,0.94-3.28,0.64-5.04-0.91c-0.89-0.76-0.67-0.77,0.62-0.04
			C440.65,107.09,440.82,106.67,439.89,105.06z M443.81,69.97c1.65-0.11,2.45-0.57,2.4-1.4l-2.48,0.16L443.81,69.97z M443.19,117.28
			c-0.94-1.59-0.75-2.01,0.54-1.28c1.29,0.75,1.89,0.3,1.78-1.36c-1.67,0.11-2.89,0.41-3.68,0.86
			C441.02,115.98,441.47,116.57,443.19,117.28z M446.85,78.48l2.48-0.16l2.56,1.07C449.41,79.55,447.72,79.26,446.85,78.48z
			 M449.07,93.26c1.7,0.73,3.17,0.84,4.37,0.33c1.21-0.48,2.28,0.07,3.22,1.66c-1.61,0.94-3.24,1.26-4.91,0.94
			C450.06,95.89,449.18,94.92,449.07,93.26z M447.39,124.47c2.64,2.31,3.88,2.23,3.72-0.25c-1.61,0.94-2.45,0.59-2.56-1.07
			c-0.11-1.65-0.53-1.62-1.24,0.08C446.47,123.28,446.5,123.71,447.39,124.47z M445.46,151.96c4.12-0.27,8.26-0.33,12.42-0.19
			c4.15,0.15,8.69-0.36,13.58-1.52C460.95,154.27,452.28,154.84,445.46,151.96z M450.92,140.41c-0.11-1.65-0.99-2.43-2.64-2.32
			C447.56,139.81,448.45,140.57,450.92,140.41z M474.19,77.92c-4.14,0.27-7.63,0.72-10.49,1.32c-2.88,0.61-5.56,0.58-8.09-0.09
			c-0.89-0.76-1.28-0.54-1.2,0.7c0.08,1.24,0.53,1.83,1.36,1.77c-1.61,0.94-2.51-0.24-2.72-3.55c3.24-1.03,7.14-1.71,11.69-2.02
			C469.26,75.76,472.41,76.39,474.19,77.92z M455.67,99.04c-0.83,0.05-1.21,0.51-1.16,1.32C455.33,100.31,455.72,99.88,455.67,99.04
			z M452.08,139.09c0.92,1.61,1.35,1.58,1.24-0.08C453.21,137.36,452.79,137.39,452.08,139.09z M456.14,125.14
			c4.13-0.27,4.59,0.53,1.4,2.39c1.76,1.55,4.03,1.6,6.85,0.17c2.8-1.43,5.05-1.77,6.77-1.06l-0.08-1.24l-0.08-1.23
			c-1.72-0.71-4.22-0.97-7.51-0.75c-3.31,0.22-5.81-0.02-7.51-0.75L456.14,125.14z M462.53,89.89c0.05,0.83-0.54,1.28-1.78,1.36
			c-1.24,0.08-1.48-0.31-0.7-1.2L462.53,89.89z M464.79,143.23c-0.06-0.81-0.92-1.18-2.56-1.07
			C461.46,143.03,462.32,143.39,464.79,143.23z M464.14,133.32l-1.15,1.32L464.14,133.32z M470.06,71.98l2.48-0.16
			c0.05,0.83-0.54,1.28-1.78,1.36C469.52,73.26,469.29,72.86,470.06,71.98z M466.46,130.68l1.24-0.08l0.08,1.24l-1.24,0.08
			L466.46,130.68z M473.7,70.49c2.53,0.66,5.04,0.91,7.51,0.75c-1.67,0.11-3.51,0.44-5.53,0.98
			C473.63,72.79,472.97,72.21,473.7,70.49z M474.43,81.64c2.48-0.16,4.15,0.15,5.04,0.91c-0.72,1.72-1.72,2.19-3.02,1.44
			C475.16,83.26,474.48,82.47,474.43,81.64z M469.75,142.9c2.48-0.16,3.69-0.65,3.63-1.48C470.9,141.58,469.7,142.09,469.75,142.9z
			 M476.04,125.07c-1.61,0.94-2.23,0.98-1.86,0.12c0.35-0.84-0.3-1.22-1.94-1.12c-0.72,1.72-0.46,2.52,0.78,2.44
			C474.26,126.43,475.26,125.96,476.04,125.07z M482.66,112.2c-1.67,0.11-3.11,0.01-4.38-0.33c-1.27-0.33-2.73-0.44-4.38-0.34
			c0.92,1.61,2.44,2.54,4.54,2.81C480.52,114.63,481.94,113.91,482.66,112.2z M474.62,141.34c0.11,1.66,0.77,2.24,1.98,1.73
			c1.21-0.48,1.76-1.55,1.66-3.22C476.59,139.96,475.38,140.47,474.62,141.34z M480.22,75.04c0.7-1.7,1.13-1.73,1.24-0.08
			C481.56,76.63,481.14,76.65,480.22,75.04z M479.28,98.73c0.87,0.78,1.73,1.13,2.56,1.08c-0.78,0.89-1.6,1.16-2.44,0.78
			C478.55,100.24,478.51,99.62,479.28,98.73z M482.37,69.92c0.7-1.7,1.13-1.73,1.24-0.08C483.71,71.51,483.29,71.54,482.37,69.92z
			 M482.69,74.87c0.7-1.7,1.13-1.73,1.24-0.08C484.04,76.46,483.61,76.49,482.69,74.87z M483.93,74.79l3.72-0.24L483.93,74.79z
			 M483.67,89.74c-0.89-0.76-0.69-0.98,0.58-0.66c1.27,0.34,1.5,0.95,0.74,1.82l-1.24,0.08L483.67,89.74z M484.34,80.99
			c0.81-0.05,1.27,0.34,1.32,1.16l-1.24,0.08L484.34,80.99z M485.33,77.19c0.76-0.87,3.26-0.62,7.51,0.75
			c-0.72,1.72-1.53,2.18-2.39,1.4c-0.89-0.76-2.12-0.68-3.72,0.24C486.62,77.94,486.15,77.14,485.33,77.19z M481.97,139.61
			c1.65-0.11,2.45-0.57,2.4-1.4l-1.24,0.08C482.29,138.35,481.92,138.8,481.97,139.61z M488.23,64.56l3.71-0.24l-0.08-1.24
			C489.23,60.77,488.02,61.27,488.23,64.56z M491.18,90.49l-4.96,0.32c-0.11-1.64,0.86-2.54,2.94-2.68
			C491.21,88,491.89,88.79,491.18,90.49z M497.76,124.27c-5.3,1.59-10,2.52-14.12,2.79c0.97,2.43,3.96,3.47,8.92,3.14
			c0.81-0.05,1-0.47,0.54-1.28c-0.48-0.79-0.3-1.22,0.54-1.27c4.01-1.92,8.13-2.19,12.38-0.81c4.23,1.39,8.3,0.29,12.22-3.29
			c0.87,0.78,1.94,1.12,3.18,1.04c1.24-0.08,1.8-0.93,1.7-2.6c-4.95,0.33-7.88,0.11-8.75-0.66c0.05,0.83-0.35,1.26-1.16,1.32
			C508.19,122.15,503.04,122.68,497.76,124.27z M486.93,139.28c0.81-0.05,1.25,0.14,1.28,0.54c0.03,0.42,0.45,0.59,1.28,0.54
			l-0.16-2.47c-0.83,0.05-1.22,0.29-1.2,0.7C488.15,139.01,487.74,139.23,486.93,139.28l-0.08-1.24l-1.24,0.08
			C484.83,139.02,485.26,139.39,486.93,139.28z M492.28,69.27l1.24-0.08l0.08,1.23l-1.24,0.08L492.28,69.27z M492.52,72.99
			l1.24-0.08l0.08,1.23l-1.24,0.08L492.52,72.99z M530.67,66.75c-5.01-0.49-11.2-0.08-18.58,1.22c-7.38,1.32-13.6,1.32-18.66-0.02
			c5.82,0.45,11.82,0.06,17.96-1.18C517.53,65.55,523.95,65.54,530.67,66.75z M509.6,86.79c0.81-0.05,1.25,0.14,1.28,0.54
			c0.03,0.43,0.45,0.6,1.28,0.54c-3.25,1.04-6.52,1.88-9.79,2.5c-3.28,0.64-6.63,0.24-10.03-1.2c4.07-1.08,7.38-1.3,9.91-0.65
			C504.78,89.19,507.23,88.62,509.6,86.79z M489.91,127.89c-0.05-0.81,0.34-1.05,1.2-0.7c0.84,0.37,0.88,0.99,0.12,1.86
			C491.17,128.24,490.72,127.84,489.91,127.89z M492.91,97.84c0.71-1.69,1.13-1.72,1.24-0.08
			C494.26,99.42,493.83,99.45,492.91,97.84z M570.47,66.62c-7.38,1.32-15.23,1.83-23.54,1.55c-1.55,1.78-3.98,2.74-7.27,2.96
			c-3.31,0.22-5.81-0.02-7.51-0.75c-0.83,0.05-1.2,0.7-1.12,1.94c0.08,1.24-0.33,1.48-1.2,0.7c-6.62,0.43-12.59,1.04-17.92,1.8
			c-5.35,0.77-10.97,0.53-16.84-0.76c5.66-2.02,11.4-3.02,17.22-3c5.79,0.05,11.19-0.11,16.14-0.44l-0.16-2.48
			c6.71,1.23,13.75,0.96,21.1-0.77C556.72,65.66,563.75,65.41,570.47,66.62z M494.54,122.61l-2.39,1.4
			C492.95,123.96,493.76,123.5,494.54,122.61z M494.19,136.32l1.24-0.08l-0.08-1.24l-1.24,0.08L494.19,136.32z M498.6,108.66
			l-1.24,0.08l-1.16,1.32C497.84,109.96,498.65,109.5,498.6,108.66z M500.54,62.51l1.24-0.08c-0.05-0.82-0.51-1.22-1.32-1.16
			L500.54,62.51z M499.18,98.67c1.7,0.73,1.97,1.54,0.78,2.44c-1.18,0.91-1.83,0.55-1.94-1.12
			C498.84,99.94,499.24,99.51,499.18,98.67z M497.01,122.45l1.24-0.08c-0.05-0.81-0.5-1.21-1.32-1.16L497.01,122.45z M497.44,147.93
			c0.84,0.37,1.31,0.96,1.36,1.77l-1.24,0.08l-1.32-1.16C496.19,147.81,496.59,147.57,497.44,147.93z M501.97,122.13
			c-0.11-1.65-0.36-2.25-0.74-1.82c-0.4,0.45-1.03,0.28-1.9-0.49C499.44,121.48,500.3,122.23,501.97,122.13z M506.68,118.09
			c-0.11-1.65-0.99-2.43-2.64-2.32C502.48,117.54,503.37,118.3,506.68,118.09z M503.68,148.14l1.24-0.08l0.08,1.24l-1.24,0.08
			L503.68,148.14z M511.99,85.39c0.87,0.78,2.97,1.05,6.27,0.83c-1.55,1.78-3.15,2.69-4.79,2.8
			C512.59,88.27,512.1,87.06,511.99,85.39z M515.33,136.18c-1.61,0.94-2.41,1.2-2.44,0.78c-0.03-0.4-0.44-0.16-1.2,0.7l1.24-0.08
			C514.58,137.47,515.38,137.01,515.33,136.18z M511.94,141.37l2.48-0.16l-0.16-2.48l-1.24,0.08l-1.16,1.32L511.94,141.37z
			 M521.19,54.94c-0.83,0.05-1.21,0.5-1.16,1.32C520.84,56.2,521.24,55.76,521.19,54.94z M519.51,86.14c0.7-1.7,1.13-1.73,1.24-0.08
			C520.86,87.73,520.43,87.75,519.51,86.14z M519.59,87.38l1.24-0.08l0.08,1.23l-1.24,0.08L519.59,87.38z M516.24,131.14
			c2.48-0.16,3.26-0.62,2.4-1.4C516.97,129.85,516.19,130.33,516.24,131.14z M524.07,60.96c1.65-0.11,2.45-0.57,2.4-1.4
			C523.99,59.72,523.19,60.2,524.07,60.96z M521.9,84.74c1.7,0.72,3.8,0.99,6.27,0.83c0.11,1.66-0.9,2.35-2.97,2.06
			C523.11,87.36,522.01,86.41,521.9,84.74z M527.71,59.48l1.24-0.08L527.71,59.48z M524.18,119.42c-0.72,1.72-0.88,2.55-0.46,2.52
			c0.41-0.03,0.65,0.39,0.7,1.2c5.71-1.19,10.66-1.73,14.82-1.6c4.15,0.15,8.68-0.36,13.58-1.52c-1.72-0.7-4.62-0.72-8.71-0.05
			c-4.11,0.7-7.04,0.27-8.79-1.29c2.48-0.16,2.94,0.64,1.4,2.4c-1.72-0.7-2.95-0.62-3.71,0.24c-0.94-1.59-2.46-2.52-4.54-2.81
			C526.38,118.25,524.94,118.56,524.18,119.42z M533.32,59.73c0.43,0.4,1.45,0.12,3.06-0.82l-6.19,0.41
			C531.83,59.21,532.87,59.35,533.32,59.73z M530,75.5c0.81-0.05,1.27,0.35,1.32,1.16l-1.24,0.08L530,75.5z M525.89,145.43
			l0.08,1.24l-1.24,0.08l-0.08-1.24L525.89,145.43z M531.83,65.43c0.7-1.7,0.9-1.92,0.58-0.66
			C532.06,66.03,531.88,66.26,531.83,65.43z M532.48,75.34l2.48-0.16c0.05,0.83-0.75,1.29-2.4,1.4L532.48,75.34z M552.95,83.94
			c-2.48,0.16-5.56,0.58-9.25,1.23c-3.69,0.67-7.22,0.69-10.57,0.07c1.54-1.75,3.77-2.31,6.73-1.69c2.94,0.64,6.01,0.03,9.21-1.85
			C549.18,83.38,550.47,84.11,552.95,83.94z M547.85,63.14c-1.55,1.77-3.18,2.29-4.87,1.56c-1.72-0.7-3.36-0.6-4.96,0.33
			c0.71-1.7,1.92-2.19,3.64-1.48C543.36,64.26,545.42,64.13,547.85,63.14z M547.44,56.94c-0.83,0.05-1.21,0.51-1.16,1.32
			C547.1,58.21,547.5,57.77,547.44,56.94z M548.93,136.45c-1.72-0.71-2.97-0.83-3.76-0.38c-0.8,0.48-2.06,0.35-3.76-0.38
			c0.11,1.67,1.2,2.63,3.3,2.89C546.8,138.88,548.21,138.17,548.93,136.45z M552.72,61.57l0.16,2.48l-3.71,0.24
			c-0.05-0.81,0.55-1.07,1.82-0.74C552.25,63.89,552.83,63.23,552.72,61.57z M548.12,124.07l2.48-0.16l-0.16-2.48l-1.24,0.08
			l-1.16,1.32L548.12,124.07z M561.47,62.24c-1.61,0.94-2.83,1.23-3.67,0.86c-0.86-0.35-2.11-0.48-3.76-0.37
			c0.71-1.7,1.74-1.98,3.06-0.82C558.42,63.06,559.86,63.18,561.47,62.24z M557.82,82.38c-0.72,1.72-1.72,2.19-3.02,1.44
			c-1.29-0.73-1.97-1.52-2.02-2.36c1.64-0.11,2.49,0.06,2.52,0.46C555.33,82.35,556.16,82.49,557.82,82.38z M557.6,135.88
			c-0.88-0.76-2.15-1.1-3.79-1c-0.72,1.72-0.26,2.51,1.4,2.4C556.86,137.18,557.66,136.71,557.6,135.88z M557.82,82.38
			c4.01-1.92,8.32-2.61,12.92-2.1c4.59,0.53,8.51,0.27,11.77-0.77c0.11,1.66-0.46,2.52-1.69,2.6c-1.24,0.08-1.48-0.31-0.7-1.2
			c-4.03,1.94-7.91,2.6-11.68,2.01C564.66,82.36,561.11,82.16,557.82,82.38z M556.38,117.3c-0.83,0.05-1.21,0.51-1.16,1.32
			C556.04,118.57,556.44,118.14,556.38,117.3z M561.47,62.24l1.24-0.08c0.05,0.83-0.13,1.25-0.54,1.28
			C561.75,63.46,561.53,63.07,561.47,62.24z M562.71,62.16c5.66-2.02,11.85-2.43,18.58-1.22c-3.26,1.05-6.75,1.49-10.49,1.31
			C567.06,62.08,564.36,62.05,562.71,62.16z M558.86,117.14c1.65-0.11,2.49,0.05,2.52,0.46c0.03,0.42,0.45,0.59,1.28,0.54
			c-0.05-0.81,0.11-1.25,0.54-1.28c0.41-0.03,0.59-0.45,0.54-1.28C561.26,115.74,559.62,116.28,558.86,117.14z M558.27,127.13
			l0.08,1.23l1.24-0.08C559.54,127.48,559.09,127.08,558.27,127.13z M560.67,125.73c0.05,0.84,0.89,1.18,2.56,1.08l-0.16-2.48
			C561.4,124.44,560.62,124.92,560.67,125.73z M593.36,131.05c-5.68,2.04-10.8,3-15.36,2.87c-4.57-0.1-10.16,0.05-16.76,0.48
			c4.23,1.39,9.86,1.84,16.88,1.38c7.01-0.46,12.56-1.23,16.64-2.33C594.71,132.63,594.23,131.83,593.36,131.05z M570.39,65.38
			c4.9-1.14,9.48-0.62,13.79,1.58c-3.36-0.6-6.07-0.63-8.09-0.09C574.04,67.44,572.14,66.94,570.39,65.38z M565.79,127.88
			c-0.72,1.72-0.26,2.51,1.4,2.4c1.65-0.11,2.45-0.57,2.4-1.4C568.7,128.12,567.43,127.77,565.79,127.88z M582.12,54.66
			c0.81-0.06,1.21-0.49,1.16-1.32C582.45,53.39,582.07,53.85,582.12,54.66z M583.69,59.53l-1.15,1.32
			C581.65,60.09,582.02,59.64,583.69,59.53z M582.51,79.51l19.82-1.3C598.4,81.79,591.81,82.23,582.51,79.51z M588.23,53.01
			c-0.78,0.89-1.59,1.16-2.44,0.79c-0.86-0.35-1.25-0.11-1.2,0.7C587.08,54.33,588.29,53.85,588.23,53.01z M587.73,64.24
			c-0.77,0.89-1.59,1.15-2.44,0.78c-0.86-0.35-0.49-1,1.11-1.94C586.46,63.91,586.89,64.3,587.73,64.24z M582.48,116.84
			c0.81-0.06,1.62-0.52,2.39-1.4C583.21,115.54,582.42,116.02,582.48,116.84z M589.91,116.35c-2.53-0.65-3.58-0.58-3.1,0.2
			C587.27,117.36,588.3,117.29,589.91,116.35z M599.41,62.23c0.46,0.8,1.08,0.76,1.86-0.12l-1.16,1.32
			c-0.83,0.05-1.26-0.33-1.32-1.16C598.74,61.46,598.93,61.44,599.41,62.23z M608.7,61.62l2.48-0.16c0.05,0.83-0.54,1.28-1.77,1.36
			C608.16,62.9,607.93,62.51,608.7,61.62z M607.45,80.36c2.59,1.5,5.1,1.96,7.55,1.37c2.45-0.57,5.32-0.97,8.63-1.19
			c-1.77-1.54-4.51-2.39-8.26-2.57C611.63,77.81,608.98,78.61,607.45,80.36z M611.44,46.51c-0.83,0.06-1.21,0.51-1.16,1.32
			C611.1,47.78,611.5,47.34,611.44,46.51z M614.9,61.22l-1.16,1.32C613.68,61.72,614.06,61.27,614.9,61.22z M616.72,51.14
			c0.92,1.61,1.35,1.58,1.24-0.08C617.85,49.41,617.43,49.44,616.72,51.14z M622.41,61.96c-1.56,1.77-2.37,1.83-2.48,0.16
			C619.82,60.48,620.63,60.43,622.41,61.96z M622.25,59.49l2.47-0.16l-1.16,1.32L622.25,59.49z M624.8,60.56
			c3.29-0.22,7-0.66,11.11-1.35c4.09-0.67,7.85-0.3,11.27,1.12c-4.09,1.11-7.97,1.77-11.69,2.02
			C631.78,62.59,628.2,62.01,624.8,60.56z M626.63,50.49l1.24-0.08l2.47-0.16C627.71,47.94,626.47,48.02,626.63,50.49z
			 M626.02,79.14c3.34,0.62,6.7,1.02,10.03,1.21c3.32,0.21,5.75-0.58,7.31-2.35c-4.09,1.1-7.6,1.12-10.57,0.07
			C629.81,77.02,627.56,77.39,626.02,79.14z M632.98,52.56c-0.05-0.81-0.53-1.61-1.4-2.4C631.69,51.83,632.15,52.61,632.98,52.56z
			 M632.92,127.21c-1.61,0.94-2.23,0.98-1.86,0.12c0.35-0.84-0.29-1.23-1.94-1.12c-0.72,1.72-0.25,2.72,1.45,3.02
			C632.24,129.54,633.03,128.87,632.92,127.21z M646.77,54.14c-2.64-2.31-3.93-3.04-3.88-2.23
			C645.37,51.75,646.66,52.5,646.77,54.14z M650.89,60.09c-1.55,1.78-2.78,2.05-3.68,0.86c-0.91-1.18-1.38-2.18-1.44-3.01
			C647.42,57.83,649.12,58.55,650.89,60.09z M644.32,111.53c0.92,1.61,1.13,1.6,0.62-0.04
			C644.41,109.87,644.21,109.88,644.32,111.53z M668.23,58.95c-3.2,1.88-6.25,2.71-9.17,2.47c-2.93-0.21-5.64-0.66-8.17-1.33
			c1.54-1.75,3.99-2.32,7.35-1.72C661.59,58.98,664.93,59.17,668.23,58.95z M656.56,51.63c-0.08-1.24-0.93-1.38-2.52-0.46
			C655.8,52.73,656.64,52.87,656.56,51.63z M664.42,76.62c-1.72-0.71-3.57-0.58-5.57,0.36c-2.01,0.97-3.9,0.69-5.65-0.87
			c0.11,1.66,1.59,2.38,4.5,2.19C660.57,78.12,662.81,77.56,664.42,76.62z M659.08,52.09c0.11,1.66,1.4,2.4,3.88,2.23
			C662.85,52.68,661.56,51.93,659.08,52.09z M662.45,65.55c0.81-0.05,1.26,0.35,1.32,1.16l-1.24,0.08L662.45,65.55z M663.84,86.6
			l1.24-0.08c-0.06-0.81-0.51-1.21-1.32-1.16L663.84,86.6z M666.83,56.56l1.24-0.08l-1.16,1.32L666.83,56.56z M667.4,65.23
			c1.65-0.11,3.7-0.44,6.15-1.03c2.45-0.57,4.54-0.08,6.31,1.45c-2.48,0.16-4.75,0.52-6.77,1.07
			C671.06,67.28,669.16,66.78,667.4,65.23z M671.79,56.23c0.11,1.67-0.26,2.51-1.08,2.56c-0.05-0.81,0.11-1.25,0.54-1.28
			C671.66,57.48,671.84,57.06,671.79,56.23z M678.6,55.78c0.46,0.81,1.49,0.74,3.1-0.2C679.17,54.93,678.12,55,678.6,55.78z
			 M682.27,64.25l-1.16,1.32C681.06,64.76,681.44,64.3,682.27,64.25z M710.67,61.14c4.12-0.27,6.57-0.84,7.35-1.73
			C715.44,57.93,712.99,58.5,710.67,61.14z"/>
	</g>
	<g class="st3">
		
			<rect x="253.67" y="262.16" transform="matrix(0.9869 -0.1612 0.1612 0.9869 -39.1083 44.539)" class="st8" width="2.62" height="2.34"/>
		
			<rect x="246.69" y="263.35" transform="matrix(0.9869 -0.1612 0.1612 0.9869 -39.3912 43.4298)" class="st8" width="2.62" height="2.34"/>
		<polygon class="st8" points="273.95,260.73 263.45,262.39 263.08,260.09 273.57,258.42 		"/>
		
			<rect x="276.51" y="256.77" transform="matrix(0.988 -0.1547 0.1547 0.988 -36.4989 46.9071)" class="st8" width="13.38" height="2.48"/>
		
			<rect x="259.84" y="256.3" transform="matrix(0.9869 -0.1612 0.1612 0.9869 -38.0833 45.4559)" class="st8" width="2.62" height="2.34"/>
		<polygon class="st8" points="251.52,257.64 234.57,260.47 234.19,258.16 251.14,255.34 		"/>
	</g>
	<g class="st3">
		
			<rect x="314.18" y="121.51" transform="matrix(0.9869 -0.1612 0.1612 0.9869 -15.6478 52.4521)" class="st8" width="2.62" height="2.34"/>
		
			<rect x="307.2" y="122.7" transform="matrix(0.9869 -0.1612 0.1612 0.9869 -15.9306 51.3429)" class="st8" width="2.62" height="2.34"/>
		<polygon class="st8" points="334.46,120.07 323.96,121.74 323.58,119.43 334.08,117.77 		"/>
		
			<rect x="337.01" y="116.12" transform="matrix(0.988 -0.1547 0.1547 0.988 -14.0159 54.573)" class="st8" width="13.38" height="2.48"/>
		
			<rect x="320.34" y="115.65" transform="matrix(0.9869 -0.1612 0.1612 0.9869 -14.6227 53.369)" class="st8" width="2.62" height="2.34"/>
		<polygon class="st8" points="306.69,117.76 295.07,119.81 294.7,117.51 306.31,115.46 		"/>
	</g>
</g>
</svg>
