<?xml version="1.0" encoding="utf-8"?>
<!-- Generator: Adobe Illustrator 23.0.1, SVG Export Plug-In . SVG Version: 6.00 Build 0)  -->
<svg version="1.1" id="Layer_1" xmlns="http://www.w3.org/2000/svg" xmlns:xlink="http://www.w3.org/1999/xlink" x="0px" y="0px"
	 viewBox="0 0 500 500" style="enable-background:new 0 0 500 500;" xml:space="preserve">
<style type="text/css">
	.st0{opacity:0.5;}
	.st1{opacity:0.5;clip-path:url(#SVGID_2_);fill:url(#SVGID_3_);}
	.st2{opacity:0.2;}
	.st3{fill:#FF00E7;}
</style>
<g>
	<g class="st0">
		<defs>
			<polygon id="SVGID_1_" class="st0" points="212.72,188.36 184.41,262.42 234.38,323.96 312.67,311.45 340.98,237.4 291,175.86 
							"/>
		</defs>
		<clipPath id="SVGID_2_">
			<use xlink:href="#SVGID_1_"  style="overflow:visible;"/>
		</clipPath>
		
			<linearGradient id="SVGID_3_" gradientUnits="userSpaceOnUse" x1="-46.6398" y1="362.2153" x2="1670.077" y2="465.0395" gradientTransform="matrix(0.9876 0.1568 -0.1568 0.9876 26.2929 -162.7521)">
			<stop  offset="0" style="stop-color:#FF00AA"/>
			<stop  offset="1" style="stop-color:#2445EA"/>
		</linearGradient>
		<path class="st1" d="M477.72,294.93c0.04-2.99-0.71-4.51-2.19-4.52c-1.51-0.02-3.01-0.78-4.47-2.3c3.01-1.44,8.25-1.76,15.76-0.93
			c7.47,0.87,13.51-0.95,18.06-5.39c23.92,3.33,43.44,2.07,58.51-3.74c-8.95-3.11-18.7-5.1-29.16-6
			c-10.49-0.87-20.26,1.63-29.33,7.5l-13.43-4.67c-3.06,2.98-6.06,4.43-9.05,4.38c-3.02-0.03-5.25-1.55-6.69-4.59
			c-7.62,7.43-16.97,8.04-28.13,1.9c-11.17-6.13-20.52-7.76-28.05-4.87c1.44,3.04,3.32,4.55,5.57,4.58c2.25,0.02,4.1,0.82,5.59,2.31
			c-7.58,4.4-16.95,6.18-28.18,5.26c-11.24-0.88-20.64,0.87-28.18,5.26c-7.52-0.1-15-0.19-22.48-0.29
			c-7.52-0.1-13.51,1.34-18.05,4.27c-6.01-0.08-8.98-0.86-8.96-2.37c-3.06,2.99-5.68,4.08-7.91,3.28c-2.24-0.77-4.88-0.41-7.88,1.02
			c-2.95-6-7.41-8.7-13.39-8.04c-6.02,0.7-10.54,2.5-13.56,5.45c2.97,1.55,6.34,1.59,10.12,0.13c3.74-1.43,7.11-0.64,10.09,2.38
			c-9.04,2.91-16.56,3.55-22.52,1.96c-5.99-1.55-12.71-3.15-20.18-4.76c-1.55,3-0.05,4.15,4.45,3.43c4.51-0.68,8.23-0.25,11.23,1.27
			c-3.06,2.98-7.19,4.79-12.44,5.46c-5.28,0.71-8.64-0.47-10.07-3.51c-1.51-0.02-1.52,0.37-0.01,1.13c1.47,0.8,1.45,1.92-0.04,3.37
			c-11.98-3.14-20.93-6.24-26.87-9.34c-5.97-3.06-14.97-3.17-26.98-0.35c-0.06,4.5,1.79,5.65,5.57,3.45
			c3.75-2.2,6.38-1.78,7.86,1.22c-1.55,3-3.42,3.72-5.65,2.18c-2.23-1.5-4.87-1.54-7.87-0.1c-5.97-3.06-10.86-2.73-14.63,0.94
			c-3.81,3.7-8.73,6.29-14.72,7.68c2.97,1.55,6.34,1.59,10.12,0.13c3.74-1.42,7.89-1.37,12.37,0.16
			c-12.05,2.87-24.45,4.96-37.19,6.27c-12.77,1.34-24.42,2.71-34.91,4.04c-4.4-7.54-12.63-9.89-24.65-7.06
			c-0.02,1.51,0.71,2.26,2.22,2.28c-6.05,2.94-9.82,4.36-11.3,4.35c-0.08,6.01,2.16,6.77,6.71,2.34c-0.04,3.02-2.3,4.47-6.8,4.41
			c-5.91-7.56-12.25-9.15-19.05-4.74c-6.81,4.41-13.94,5.09-21.39,1.97c-4.53,2.96-9.04,3.64-13.52,2.08
			c-4.48-1.53-8.25-0.84-11.27,2.1c-2.99-3.02-5.58-3.79-7.84-2.35c-2.27,1.49-4.89,0.71-7.84-2.35c-1.53,1.5-1.54,2.23-0.03,2.25
			l2.22,2.28c-0.1,7.52-3.17,11.59-9.15,12.24c-6.02,0.7-12.05,2.49-18.06,5.4c-2.98-3.03-5.95-3.8-8.96-2.36
			c-3.04,1.47-5.32,3.68-6.83,6.65c-7.5-1.57-14.6-1.32-21.37,0.85c-6.78,2.16-11.67,2.48-14.63,0.94c0.04-2.99,1.91-4.09,5.67-3.31
			c3.71,0.82,5.62-0.27,5.66-3.3c2.99,0.04,7.1,0.09,12.37,0.16c5.24,0.07,8.63-1.36,10.18-4.36c-3.01-1.51-5.98-2.33-8.97-2.37
			c-3.02-0.04-5.25-1.54-6.69-4.59c-1.51-0.01-1.52,0.37-0.02,1.13c1.46,0.79,1.45,1.92-0.04,3.37c-7.52-0.09-14.28,0.59-20.27,1.99
			c-6.03,1.43-12.78,2.09-20.26,1.99c1.44,3.04,2.93,4.53,4.44,4.55c1.48,0.02,2.23,1.54,2.19,4.53c-4.5-0.06-8.26-0.11-11.24-0.15
			c-3.02-0.04-5.99-1.55-8.93-4.61c-3.04,1.46-5.65,2.17-7.9,2.14c-2.25-0.03-4.17,1.46-5.68,4.42c-7.52-0.1-12.75-0.5-15.72-1.32
			c-3.01-0.78-8.24-1.96-15.69-3.58c-0.06,4.5-0.86,6.74-2.34,6.72c1.46,1.53,3.35,1.93,5.61,1.2c2.26-0.71,3.37,0.43,3.33,3.41
			c-4.49-0.06-9.4,1.4-14.67,4.31c-5.31,2.95-11.67,2.87-19.11-0.25c1.51-2.97,4.16-3.67,7.9-2.15c3.7,1.56,6.34,0.86,7.9-2.15
			c4.49,0.06,6.75-0.64,6.77-2.16c0.02-1.48-1.48-2.27-4.47-2.3c-3.02-0.04-3.78,1.46-2.3,4.46c-5.97-3.06-12.33-3.52-19.1-1.37
			c-6.78,2.17-13.17,1.73-19.1-1.37c-1.53,1.5-1.54,2.62-0.04,3.38c1.47,0.78,2.22,1.92,2.21,3.4c-4.5-0.06-6.76,0.69-6.78,2.17
			c2.99,0.04,5.61,1.19,7.83,3.46c2.22,2.28,5.57,3.45,10.07,3.51c-1.47-3.01-2.97-4.15-4.45-3.43c-1.52,0.75-1.51-0.37,0.04-3.36
			c2.96,1.54,4.46,3.08,4.43,4.55c-0.02,1.51,1.46,1.53,4.5,0.06c-3.1,5.97-7.62,7.77-13.57,5.45c-5.97-2.33-11.97-3.53-17.94-3.61
			c-4.51,1.45-9.81,2.9-15.8,4.29c-6.03,1.43-11.26,1.36-15.74-0.2c-3.06,2.99-7.21,5.53-12.47,7.71c-5.3,2.19-9.41,1.77-12.35-1.28
			c1.45,1.53,0.7,2.65-2.29,3.35c-3.03,0.73-5.27,0.32-6.73-1.21c0.04-2.98,1.17-4.09,3.41-3.33c2.24,0.81,3.38-0.31,3.42-3.33
			c-1.49-1.49-3-1.51-4.49-0.06c-1.53,1.5-3.05,2.22-4.53,2.19c-1.55,3-0.83,4.48,2.2,4.52l-0.03,2.25
			c-8.96-3.1-15.71-2.45-20.27,1.98c-7.48-3.07-13.85-2.77-19.12,0.89c-5.32,3.68-9.42,3.26-12.35-1.29
			c-1.55,3.01-0.07,5.63,4.4,7.94c4.47,2.3,8.18,3.47,11.2,3.51c-3.06,2.99-5.33,4.43-6.8,4.42l-6.75-0.09
			c-1.47-3.01-1.46-4.13,0.04-3.37c1.47,0.79,2.25,0.42,2.26-1.09c-3.02-0.04-6.02,0.31-9.01,1.01c-3.03,0.73-5.99-1.2-8.93-5.73
			c-1.49-1.5-1.88-1.16-1.14,1.11c0.71,2.26,0.31,3.37-1.16,3.35c-2.99-3.02-5.96-3.8-8.97-2.36c-3.04,1.47-6.02,0.7-8.97-2.36
			c2.95,3.06,2.9,6.78-0.14,11.24c-3-1.52-3.33-3.04-1.07-4.51c2.27-1.45,1.9-2.96-1.06-4.52c-4.5-0.06-5.29,1.44-2.31,4.47
			l-4.53,2.19c-3-1.51-4.86-1.93-5.61-1.2c-0.78,0.77-2.64,0.35-5.61-1.19l-0.06,4.5c-5.99-1.55-10.49-1.27-13.51,0.94
			c-3.05,2.22-6.03,1.82-8.98-1.23l-0.06,4.49c-7.48-3.09-14.23-2.78-20.25,0.87c-6.06,3.68-13.56,5.44-22.55,5.33
			c-1.53,1.49-1.93,2.22-1.15,2.23c0.74,0.01,0.34,0.78-1.15,2.24c-4.48-1.54-8.98-1.25-13.5,0.95c-4.53,2.19-8.3,2.53-11.26,0.98
			c-3.06,2.98-7.2,5.18-12.45,6.58c-5.29,1.44-9.39,0.65-12.34-2.4c-0.02,1.5,0.32,2.25,1.09,2.26c0.74,0.01,1.11,0.79,1.1,2.27
			c-7.52-0.1-13.88,0.59-19.15,2c-5.29,1.44-11.64,1.36-19.11-0.25c0.04-2.99,0.78-3.71,2.28-2.22c1.45,1.52,2.24,0.8,2.28-2.22
			c-1.49-1.49-3.75-1.17-6.76,1.03c-3.05,2.22-5.3,1.83-6.73-1.2c-1.53,1.49-1.54,2.62-0.04,3.37c1.47,0.79,1.46,1.14-0.02,1.13
			c-10.5-0.14-19.89-0.26-28.1-0.37c-8.26-0.1-16.13,0.57-23.64,1.94c-1.53,1.5-2.25-0.02-2.19-4.51c-4.5-0.06-6.79,2.93-6.86,8.9
			c-6.01-0.08-12.36-0.5-19.1-1.37c-6.73-0.82-12.37,0.23-16.91,3.16c-3.02-0.04-4.14-0.79-3.34-2.3c0.76-1.46,0.38-2.24-1.09-2.26
			c-1.51-0.02-1.53,1.1-0.05,3.38c1.45,2.26,0.71,2.64-2.26,1.09c-2.71-24,0.54-41.94,9.68-53.84
			c9.15-11.86,19.76-22.24,31.88-31.07c1.48,0.02,2.25,0.41,2.24,1.15c-0.01,0.77,0.72,1.14,2.23,1.16c3.02-2.95,5.7-5.9,7.98-8.89
			c2.29-2.96,4.89-2.93,7.87,0.1c3.02-2.95,4.56-5.18,4.58-6.69c4.46,3.08,9.32,2.01,14.66-3.18c5.3-5.17,10.94-6.22,16.91-3.16
			c3.02-2.95,5.68-4.43,7.93-4.4c2.25,0.03,4.86-0.68,7.9-2.14c1.47,0.02,1.48-0.34,0.01-1.13c-1.5-0.76-0.74-1.88,2.29-3.35
			c5.96,1.59,10.46,0.91,13.52-2.07c3.02-2.94,6.8-3.63,11.27-2.1l0.06-4.5c8.98,1.63,17.21,0.61,24.77-3.05
			c7.54-3.63,16.57-6.15,27.09-7.53c1.47,0.01,2.25-0.72,2.27-2.22c4.54-2.93,10.53-3.98,18.03-3.14
			c7.47,0.87,12.73-0.96,15.81-5.42c1.48,0.02,2.25,0.42,2.24,1.16c-0.01,0.77,0.72,1.13,2.23,1.15c0.04-2.99,1.53-4.09,4.54-3.31
			c2.98,0.82,5.24-0.29,6.79-3.29c3.01-1.43,4.52-1.41,4.5,0.06c-0.02,1.52,0.71,2.26,2.22,2.28c3.03-2.95,6.42-4.42,10.17-4.37
			c3.73,0.05,8.62-0.62,14.65-2.06c1.48,0.02,2.26-0.7,2.28-2.21c4.48,1.57,7.86,0.49,10.16-3.25c2.3-3.69,5.68-4.03,10.13-0.99
			l-2.28,2.21l-2.25-0.03c-0.04,3.03,1.43,3.78,4.47,2.31c3.01-1.44,3.77-3.68,2.33-6.72c5.97,0.08,11.25-0.6,15.77-2.05
			c4.51-1.41,10.49-1.34,17.99,0.23c4.55-4.44,11.33-6.95,20.33-7.61c9-0.63,15.77-2.4,20.31-5.36c5.93,3.1,11.21,2.77,15.76-0.92
			c4.54-3.67,10.52-3.97,18-0.89l0.06-4.5c2.97,1.55,6.34,1.21,10.13-0.99c3.75-2.2,7.12-1.77,10.1,1.25
			c1.51-2.96,4.55-4.05,9.03-3.25c4.49,0.83,8.22,0.49,11.26-0.98c1.48,0.02,2.27-1.44,2.31-4.46c1.5-1.46,4.13-1.43,7.87,0.1
			c3.71,1.55,6.35,0.86,7.9-2.15c2.97,1.55,6.33,1.97,10.1,1.25c3.73-0.69,6.4-2.52,7.94-5.52c1.43,3.05,5.18,3.83,11.21,2.4
			c6-1.4,9.04-3.61,9.08-6.63c7.47,1.6,11.96,2.05,13.48,1.3c1.49-0.73,5.25-1.05,11.26-0.97c1.49-1.47,1.51-2.59,0.05-3.38
			c-1.5-0.76-1.5-1.15,0.01-1.13c7.48,0.09,14.98-0.93,22.53-3.09c7.51-2.15,15-2.41,22.5-0.83c1.48,0.02,1.48-0.32,0.01-1.12
			c-1.5-0.76-1.49-1.88,0.05-3.38c4.48,1.57,9.71,1.64,15.74,0.2c5.99-1.4,11.28-2.84,15.8-4.29l-0.06,4.5
			c1.5-1.45,3.01-1.82,4.51-1.06c1.46,0.79,1.48-0.34,0.05-3.38c2.98,0.04,5.98-0.66,9.02-2.13c3.01-1.43,5.99-0.66,8.97,2.37
			c3-1.43,3.75-2.2,2.28-2.22c-1.51-0.01-2.24-0.77-2.22-2.28c23.98-1.16,48.77-5.34,74.37-12.54c2.95,3.06,5.92,4.22,8.95,3.49
			c2.99-0.71,5.99-1.05,9.01-1.02c2.99,0.04,4.51-1.41,4.55-4.44c-0.02,1.52,2.22,2.28,6.71,2.34c4.5,0.06,5.99-1.4,4.56-4.44
			c2.95,3.06,5.58,3.45,7.86,1.23c2.28-2.21,4.9-4.04,7.94-5.52c1.44,3.04,4.06,3.82,7.84,2.35c3.74-1.43,7.11-0.64,10.09,2.38
			c3.02-2.94,4.56-5.18,4.58-6.69c-0.04,3.02,1.43,4.17,4.46,3.43c2.99-0.7,4.53-2.54,4.57-5.57c2.98,0.04,4.48,1.57,4.44,4.55
			c3.03-2.94,6.8-4.41,11.3-4.35c4.49,0.06,8.23-0.63,11.27-2.1c2.95,3.06,7.04,3.85,12.33,2.4c5.26-1.4,8.66-3.61,10.21-6.61
			c1.48,0.02,2.58,1.15,3.33,3.42c0.7,2.25,1.83,1.92,3.38-1.08l-2.24-0.03c7.52-2.9,15.8-5.04,24.82-6.43
			c9.01-1.36,17.22-0.52,24.7,2.57l-2.22-2.28l-2.25-0.03c12.02-2.83,24.03-4.92,36.06-6.28c12-1.33,24-2.67,36.04-4.03
			c1.48,0.02,2.98,0.81,4.46,2.31c1.46,1.53,2.98,0.8,4.53-2.19l-4.5-0.06c19.54-5.72,36.06-6.28,49.5-1.61
			c0.04-2.98-0.72-4.12-2.21-3.4c-1.52,0.75-2.25,0.36-2.24-1.16c1.5-1.45,4.52-1.8,9.01-1.01c4.49,0.83,6.75-0.27,6.79-3.29
			c5.93,3.1,12.66,4.66,20.18,4.76c0.04-2.99-1.07-4.13-3.33-3.42c-2.26,0.74-3.38,0.35-3.36-1.16c5.99-1.41,11.26-1.33,15.74,0.2
			c4.48,1.57,8.98,0.89,13.52-2.07c1.48,0.02,2.24,0.42,2.24,1.15c-0.01,0.77,0.72,1.14,2.23,1.15c4.55-4.44,10.94-6.21,19.18-5.38
			c8.21,0.88,16.08,1.33,23.6,1.43c-1.51-0.02-0.76-1.48,2.3-4.47c31.48,0.4,60.74-1.47,87.77-5.62
			c19.47,0.25,38.98-0.97,58.52-3.74c19.5-2.73,39.75-3.21,60.74-1.47c3-1.43,5.26-1.79,6.76-1.03c1.47,0.79,3.72,0.43,6.76-1.04
			c2.95,3.06,6.7,3.84,11.21,2.4c0.02-1.48,0.77-2.25,2.28-2.23c3.01-1.43,7.12-1.77,12.38-0.96c5.23,0.84,9.35-0.23,12.41-3.21
			c5.94,3.1,16.44,3.23,31.48,0.4c2.99,0.04,6.35,0.86,10.09,2.38c3.7,1.56,7.85,1.61,12.37,0.16c0.02-1.48-1.11-1.49-3.38-0.05
			c-2.27,1.48-2.64,0.74-1.1-2.26c7.48,0.09,13.84,0.18,19.11,0.25c5.23,0.07,11.6-0.59,19.14-2.01l-0.06,4.5
			c1.47,0.02,1.87-0.72,1.15-2.23c-0.76-1.49,0.38-2.25,3.4-2.21c2.97,1.55,6.72,1.98,11.23,1.26c4.51-0.67,9.01-1.01,13.51-0.95
			c20.99-1.2,39.38-1.74,55.12-1.54c15.74,0.2,31.11-1.07,46.15-3.9c4.44,4.55,6.67,6.09,6.69,4.59c7.52-2.89,15.78-3.52,24.76-1.94
			c8.97,1.62,17.2,1,24.76-1.93c8.95,3.13,17.16,4.36,24.69,3.69c7.49-0.64,14.99-1.67,22.53-3.09c11.94,3.18,23.91,4.06,35.95,2.71
			c12-1.31,24.75-0.41,38.2,2.75c7.52-2.89,12.75-2.82,15.74,0.2c1.48,0.02,1.87-0.33,1.15-1.11c-0.76-0.75-0.37-1.13,1.14-1.11
			c13.43,4.67,27.65,5.62,42.69,2.8c15-2.79,26.24-1.92,33.7,2.68c0.04-2.99,1.52-3.7,4.53-2.19c2.97,1.55,5.95,1.58,8.99,0.12
			c2.97,1.54,7.45,2.34,13.46,2.42c28.46,0.36,58.79,2.27,91,5.67c32.18,3.44,61.01,4.55,86.54,3.36c1.46,1.54,3.35,2.3,5.59,2.33
			c2.25,0.03,4.1,0.82,5.59,2.31c25.47,0.33,52.06,2.18,79.76,5.52c27.68,3.38,52.75,8.2,75.15,14.47
			c1.44,3.04,5.16,6.07,11.13,9.13c-0.11,8.99,5.06,13.56,15.57,13.69c-1.55,3.01-0.06,4.5,4.44,4.56
			c2.79,15.04,4.46,30.07,5.04,45.04c0.55,15.01-3,28.46-10.63,40.34l-2.25-0.03c-9.19,14.88-21.69,25.23-37.51,31
			c-15.81,5.81-33.5,8.96-52.96,9.44c-19.51,0.52-39.36-0.12-59.58-1.89c-20.22-1.73-39.32-2.75-57.3-2.98
			c-10.47-3.12-17.22-3.21-20.24-0.26c-5.96-3.06-12.32-4.28-19.06-3.62c-6.76,0.69-13.14-0.52-19.07-3.62
			c-23.98-1.78-48.7-2.88-74.17-3.21c-25.51-0.33-48.7-2.87-69.61-7.63c-1.53,1.49-2.67,2.21-3.41,2.2c-0.77-0.01-1.9,0.75-3.4,2.21
			c-8.97-1.59-17.95-2.83-26.94-3.72c-8.98-0.86-17.99-0.58-26.99,0.77c-3.01-1.51-7.5-1.95-13.48-1.29
			c-6.02,0.7-9.77-0.48-11.19-3.52c-3.03-0.04-6.03,1.44-9.06,4.38c-12.01-0.16-21.73-1.4-29.18-3.74
			c-7.49-2.36-15.71-2.07-24.75,0.8c-7.48-3.09-15.35-3.58-23.59-1.42c-8.28,2.14-15.4,0.92-21.32-3.66
			c-6.09,5.94-15.82,6.54-29.26,1.87c-7.56,2.93-15.78,3.56-24.76,1.94c-8.97-1.6-17.23-1.7-24.73-0.32
			c-3.02-0.04-4.49-0.8-4.47-2.32c0.02-1.47-1.49-1.48-4.49-0.06c-3.02-0.03-3.04,1.48-0.06,4.5c-8.98-1.58-17.98-1.35-27,0.78
			c-9.03,2.13-17.26,0.17-24.66-5.95c-3.04,1.48-6.03,1.44-8.99-0.11c-3.01-1.51-5.26-0.8-6.78,2.16c-4.49-0.06-5.25-1.54-2.19-4.53
			c-3.02-0.03-4.52,2.19-4.58,6.69c-5.99-1.55-10.07-3.85-12.28-6.9c-2.21-3.01-7.08-3.81-14.59-2.43c-1.49-1.5-1.48-2.27,0.03-2.25
			c1.48,0.02,2.26-0.72,2.28-2.22c-7.52-0.1-13.87-0.54-19.1-1.37c-5.26-0.8-9.38,0.26-12.41,3.21c2.95,3.06,5.91,4.58,8.93,4.61
			c2.99,0.04,5.96,0.85,8.97,2.37c-0.04,3.03-1.56,3.74-4.53,2.19c-3-1.52-4.49-0.8-4.52,2.18c-5.97-3.06-10.45-4.63-13.43-4.67
			c-3.02-0.04-7.5-1.57-13.44-4.66c0.02-1.48,0.77-1.86,2.27-1.11c1.47,0.8,2.98,0.43,4.52-1.06c-2.99-3.02-6.35-3.8-10.1-2.37
			c-3.77,1.45-7.14,0.68-10.09-2.38c-10.6,7.38-21.11,7.25-31.48-0.4c-3.02-0.03-4.16,0.72-3.4,2.21c0.72,1.51,1.84,2.27,3.35,2.29
			c-25.57,4.17-50.67,5.74-75.39,4.65c-24.73-1.05-49.84-1.76-75.31-2.09l0.06-4.5c-1.57,4.48-4.22,6.34-7.94,5.51
			c-3.75-0.79-7.13,0.29-10.16,3.25c-3-1.51-4.85-3.05-5.57-4.57c-0.76-1.49-1.87-2.27-3.34-2.29c-1.51-0.02-2.27,1.47-2.3,4.46
			c-8.96-3.1-18.7-5.09-29.16-6C501.05,286.63,489.78,289.11,477.72,294.93z M-540.55,434.76l2.25,0.03l-0.03,2.25l-2.25-0.03
			L-540.55,434.76z M-532.61,429.24c2.28-2.22,1.89-2.57-1.11-1.13C-535.27,431.1-534.89,431.46-532.61,429.24z M-457.1,415.59
			l2.25,0.03l0.03-2.25l-2.25-0.03L-457.1,415.59z M-429.97,316.99c-0.76-1.48-1.89-0.76-3.4,2.21c1.48,0.02,1.85,0.79,1.1,2.26
			c-0.79,1.51,0.33,1.52,3.37,0.04C-428.88,320.03-429.25,318.51-429.97,316.99z M-426.63,319.28c-1.55,3.01-1.16,3.36,1.11,1.15
			C-423.24,318.2-423.62,317.85-426.63,319.28z M-419.88,319.37c1.51-2.97,3.77-3.68,6.77-2.16c2.97,1.55,5.24,0.07,6.81-4.41
			c-4.52,1.45-8.28,1.41-11.24-0.15C-419.08,314.15-419.84,316.38-419.88,319.37z M-422.36,337.33c4.5,0.06,7.49-0.65,9.02-2.13
			c-1.49-1.5-3.34-2.3-5.59-2.33C-421.18,332.85-422.32,334.35-422.36,337.33z M-411.21,344.21l2.25,0.03
			c0.02-1.47-0.74-2.26-2.22-2.28L-411.21,344.21z M-408.84,335.26c1.48,0.02,2.26-0.71,2.28-2.22l-2.25-0.03L-408.84,335.26z
			 M-398.09,373.63c-3.02-0.04-4.87-0.81-5.59-2.33c-0.75-1.48-1.11-0.75-1.15,2.24c-0.02,1.5,1.09,2.65,3.33,3.42
			C-399.27,377.75-398.13,376.65-398.09,373.63z M-380.48,315.38c3.73,0.05,6.38-1.4,7.93-4.4c-3.04,1.48-6.42,2.17-10.15,2.12
			c-3.76-0.05-6.42,1.43-7.93,4.4C-387.62,316.06-384.24,315.33-380.48,315.38z M-393.62,375.93l-2.22-2.28
			C-395.88,376.67-395.15,377.42-393.62,375.93z M-383.65,299.6c2.99,0.04,4.5-0.68,4.53-2.19
			C-382.14,297.37-383.63,298.12-383.65,299.6z M-372.23,286.25c-3.02-0.03-3.77,0.73-2.28,2.23
			C-373.05,290-372.27,289.27-372.23,286.25c2.97,1.55,3.7,1.56,2.25,0.03C-371.47,284.79-372.21,284.78-372.23,286.25z
			 M-379.52,328.88c1.48,0.02,2.26-0.71,2.28-2.22c-1.49-1.5-2.62-1.51-3.37-0.04C-381.41,328.12-381.04,328.87-379.52,328.88z
			 M-384.66,378.29c-1.51-0.01-2.26,0.74-2.28,2.22C-385.46,380.53-384.68,379.8-384.66,378.29z M-379.64,337.88
			c2.99,0.04,5.62,0.46,7.86,1.22c2.24,0.81,3.38-0.3,3.41-3.32C-374.38,335.7-378.14,336.42-379.64,337.88z M-382.27,367.08
			c1.46,1.53,3.35,1.55,5.62,0.07c2.27-1.44,2.64-2.95,1.18-4.47c-1.53,1.48-3.4,1.85-5.64,1.04
			C-383.33,362.96-383.74,364.07-382.27,367.08z M-358.86,295.42c-0.04,3.02-1.57,4.48-4.56,4.45c0.08-5.99-2.16-6.78-6.72-2.34
			c4.44,4.55,10.04,6.13,16.81,4.71c6.76-1.38,11.64-3.58,14.7-6.56c-2.98-3.02-6.35-3.46-10.1-1.25
			C-352.51,296.62-355.89,296.97-358.86,295.42z M-372.75,326.72c1.48,0.02,3-0.69,4.53-2.19
			C-372.72,324.47-374.24,325.22-372.75,326.72z M-370.3,311.02c5.95,1.59,10.81,4.28,14.52,8.05c3.67,3.81,9.29,4.27,16.85,1.35
			c1.47,0.01,2.59,0.42,3.35,1.17c0.73,0.78,1.85,1.14,3.36,1.16c1.5-1.46,1.16-2.58-1.08-3.39c-2.24-0.76-2.62-1.16-1.11-1.14
			c3.01-1.43,4.51-1.41,4.5,0.06c-0.02,1.52,0.71,2.26,2.22,2.28c0.04-2.99,1.53-4.48,4.56-4.44c0.04-2.99-0.33-4.12-1.08-3.4
			c-0.78,0.77-1.12-0.36-1.08-3.38c-3.04,1.47-5.65,1.82-7.88,1.02c-2.24-0.76-4.87-1.18-7.86-1.22l-0.08,6.74
			c-1.49-1.5-2.23-1.5-2.25-0.03c-0.02,1.51-1.53,1.49-4.5-0.06c-3-1.52-4.84-3.05-5.57-4.57c-0.75-1.49-2.62-0.77-5.65,2.18
			l0.06-4.49c-3.04,1.46-5.64,1.43-7.87-0.1C-369.13,307.31-370.26,308.03-370.3,311.02z M-363.24,286.37l2.25,0.03l0.03-2.25
			l-2.25-0.03L-363.24,286.37z M-363.67,320.09c-1.51-0.01-2.63-0.77-3.35-2.29c-0.75-1.48-1.11-0.75-1.15,2.23
			C-366.71,321.57-365.2,321.59-363.67,320.09z M-368.28,329.03c1.44,3.04,2.21,3.05,2.25,0.03
			C-365.99,326.07-366.77,326.06-368.28,329.03z M-378.17,398.62l2.25,0.03L-378.17,398.62z M-366.12,335.81
			c1.49-1.46,2.62-1.44,3.37,0.04c0.72,1.51,1.85,0.79,3.4-2.21c-1.53,1.49-3.04,1.85-4.51,1.06
			C-365.36,333.96-366.1,334.33-366.12,335.81z M-363.81,331.34l2.25,0.03l0.03-2.25l-2.25-0.03L-363.81,331.34z M-364.19,360.57
			c-3.02-0.04-4.51,0.71-4.53,2.19c1.47,0.02,2.24,0.8,2.22,2.28c-0.02,1.51,0.72,1.52,2.25,0.03L-364.19,360.57l4.5,0.06l0.03-2.25
			l-4.5-0.06L-364.19,360.57z M-356.75,306.69c-1.53,1.49-1.15,2.24,1.1,2.26c2.24,0.03,3.38-0.7,3.4-2.21L-356.75,306.69z
			 M-352.25,306.75c2.99,0.04,5.24-0.67,6.77-2.16C-349.98,304.53-352.23,305.27-352.25,306.75z M-359.78,367.37
			c1.48,0.02,2.26-0.71,2.28-2.22C-360.52,365.12-361.27,365.88-359.78,367.37z M-354.85,333.7l-0.06,4.5
			c2.99,0.04,4.51-0.69,4.52-2.19c0.02-1.48,1.51-2.24,4.53-2.19c-0.02,1.51,1.45,2.27,4.47,2.31l2.25,0.03
			c1.47,0.01,2.99-0.71,4.53-2.19c-3.02-0.04-6-0.43-8.98-1.24C-346.6,331.95-350.33,332.28-354.85,333.7z M-360.21,401.1
			c-0.02,1.5-1.54,2.22-4.53,2.19c1.48,0.02,2.26-0.72,2.28-2.22L-360.21,401.1z M-353,365.21l2.25,0.03l0.03-2.25l-2.25-0.03
			L-353,365.21z M-340.92,300.15c2.99,0.04,5.24-0.67,6.77-2.16C-338.59,293.43-340.85,294.17-340.92,300.15z M-344.04,367.57
			c0.04-2.99-1.45-4.51-4.44-4.55c-1.55,3-1.57,4.86-0.07,5.62C-347.08,369.43-345.57,369.06-344.04,367.57z M-332.48,342.99
			c0.04-2.99-1.06-4.52-3.31-4.54c-2.24-0.03-3.38,0.73-3.4,2.2c-0.02,1.51,0.71,2.26,2.22,2.28L-332.48,342.99z M-336.8,329.43
			l2.25,0.03l0.03-2.25l-2.25-0.03L-336.8,329.43z M-341.68,358.6l-0.03,2.25l2.25,0.03C-339.44,359.41-340.2,358.63-341.68,358.6z
			 M-337.76,403.63c-1.55,3.01-4.55,4.44-9.05,4.38c0.02-1.48-0.74-2.25-2.22-2.27c1.52-2.98,3.03-3.69,4.53-2.19
			C-343.04,405.08-340.8,405.11-337.76,403.63z M-329.54,289.05c1.44,3.04,2.21,3.05,2.25,0.03
			C-327.25,286.09-328.02,286.08-329.54,289.05z M-327.46,302.57l8.99,0.11c1.53-4.48,0.43-6.36-3.3-5.67
			C-325.54,297.75-327.43,299.58-327.46,302.57z M-208.24,299.6c-1.55,3.01-1.56,4.13-0.04,3.37c1.48-0.72,2.25-0.32,2.24,1.15
			c-9.03,2.91-16.57,4.28-22.55,4.21c3.03-2.95,4.57-5.18,4.59-6.69c0.02-1.48,2.3-3.7,6.83-6.66c-3.02-0.04-6.4,0.3-10.13,0.99
			c-3.77,0.73-6.43,2.56-7.94,5.52l4.44,4.55c-4.5-0.06-5.99-1.55-4.44-4.55c-3-1.53-4.48-1.18-4.51,1.06
			c-0.03,2.25-1.55,3.36-4.54,3.32c0.02-1.48,0.38-2.25,1.16-2.24c0.73,0.01,1.13-0.73,1.15-2.23c-1.49-1.5-2.23-1.51-2.25-0.03
			c-0.02,1.5-0.79,1.49-2.25-0.03l-0.09,6.74l-6.8,4.41c-1.47-3-3.7-4.54-6.69-4.58c-3.02-0.04-5.27-0.07-6.74-0.09
			c1.48,0.02,2.24,0.42,2.24,1.15c-0.01,0.77-0.79,1.12-2.27,1.1c-4.5-0.06-8.27,0.67-11.27,2.1c-3.04,1.47-6.03,1.43-9-0.11
			c1.44,3.04,0.29,4.88-3.44,5.58c-3.77,0.73-6.41,1.04-7.88,1.02c0.04-2.98,3.05-4.46,9.05-4.38c-2.96-4.53-7.05-6.45-12.29-5.78
			c-5.28,0.71-10.12-0.47-14.58-3.56c-0.03,3.02,0.69,4.15,2.21,3.4c1.49-0.71,2.25,0.42,2.21,3.41c7.48,0.09,11.23,0.92,11.21,2.39
			c-6.05,2.94-10.54,2.89-13.49-0.18c-0.02,1.52,1.43,3.78,4.41,6.81c-3.06,2.99-4.93,3.31-5.64,1.06
			c-0.75-2.26-1.87-2.63-3.36-1.17c-0.02,1.51,0.71,2.26,2.22,2.28c-7.55,2.92-12.05,2.87-13.49-0.18c1.44,3.04,1.42,4.52-0.06,4.5
			c-1.51-0.02-1.52,0.75-0.03,2.25c1.52-2.96,3.04-3.69,4.53-2.19c1.46,1.53,2.21,3.05,2.19,4.54c7.5-1.39,15.4-3.53,23.69-6.45
			c8.26-2.88,17.65-3.5,28.13-1.89c-1.47-3-0.33-4.51,3.43-4.45c3.73,0.05,5.61,0.84,5.6,2.32c3-1.43,6.01-2.91,9.05-4.38
			c3.01-1.44,6.77-1.39,11.24,0.14c3.02-2.94,7.93-4.75,14.69-5.43c6.75-0.65,11.58,1.27,14.54,5.81c0.04-2.99-0.71-4.51-2.19-4.53
			c-1.51-0.02-1.49-1.5,0.06-4.5c7.52-2.89,15.79-3.52,24.76-1.93c8.98,1.62,15-2.79,18.16-13.26c-4.53,2.96-8.69,3.65-12.39,2.09
			c-3.74-1.53-7.84-2.35-12.34-2.41C-199.98,297.46-203.74,299.66-208.24,299.6z M-332.6,351.98l-0.09,6.74
			c2.99,0.04,5.23,0.84,6.72,2.33c1.45,1.53,2.97,0.81,4.53-2.19c-3.02-0.04-4.48-1.53-4.44-4.55l2.25,0.03
			c4.48,1.57,9.71,1.64,15.74,0.2c-2.96-4.54-7.06-5.71-12.32-3.53C-325.51,353.19-329.63,353.53-332.6,351.98z M-323.43,338.61
			c-4.56,4.44-6.83,5.91-6.81,4.41c2.99,0.04,5.25-0.29,6.76-1.04c1.48-0.72,3.72-0.3,6.73,1.21c3.05-4.46,8.3-5.87,15.8-4.3
			c7.47,1.61,12.73-0.57,15.83-6.54c-6.05,2.94-12.07,3.99-18.03,3.14c-5.99-0.81-10.51,0.26-13.53,3.2L-323.43,338.61z
			 M-328.13,354.28c-0.02,1.52,0.71,2.25,2.22,2.27c-1.53,1.5-3.04,1.87-4.51,1.08C-331.92,356.87-331.17,355.76-328.13,354.28z
			 M-318.21,282.45c-0.04,3.03,0.69,3.77,2.22,2.28c1.5-1.45,3.74-0.68,6.72,2.33l-2.19-4.52
			C-314.52,285.52-316.77,285.49-318.21,282.45z M-316.4,316.21l-4.49-0.06c-0.02,1.51,0.7,2.26,2.22,2.28
			C-317.2,318.44-316.42,317.72-316.4,316.21z M-318.58,311.68c-0.04,3.02,0.31,3.02,1.12,0.01
			C-316.68,308.72-317.07,308.71-318.58,311.68z M-277.91,296.46l4.49,0.06c-0.02,1.52-2.25-0.02-6.69-4.58
			c-0.04,3.02-0.83,4.49-2.31,4.46c-3-1.51-3.74-1.17-2.27,1.1c1.45,2.27,0.71,2.64-2.26,1.09l0.06-4.5
			c2.99,0.04,4.51-0.68,4.53-2.19c-5.99-1.55-10.87-1.26-14.63,0.94c-3.79,2.21-8.69,3.26-14.66,3.19c1.44,3.04,2.93,4.18,4.45,3.43
			c1.49-0.73,2.98,0.42,4.45,3.43l9,0.11l-0.03,2.25c2.96,1.55,6.33,2.33,10.09,2.38c3.72,0.05,5.64-1.41,5.68-4.43l-4.5-0.06
			l0.03-2.25l4.5,0.06L-277.91,296.46z M-309.3,289.31c1.44,3.04,2.21,3.05,2.25,0.03C-307.01,286.35-307.79,286.34-309.3,289.31z
			 M-314.75,363.46l0.03-2.25l-2.25-0.03l-0.03,2.25L-314.75,363.46z M-304.81,289.36l4.5,0.06c0.04-2.99-1.45-4.52-4.44-4.56
			L-304.81,289.36z M-317.06,367.92l2.25,0.03L-317.06,367.92z M-312.3,347.74c-0.04,3.02,2.21,3.4,6.73,1.21
			c4.52-2.2,6.76-1.04,6.7,3.46c-3.02-0.04-4.51,0.71-4.53,2.19c1.48,0.02,3.73,0.05,6.75,0.09c2.98,0.04,5.24-0.67,6.77-2.16
			c-3.02-0.03-4.48-1.53-4.43-4.55l33.72,0.44c1.5-1.46,1.51-2.24,0.03-2.25c-1.51-0.02-2.24-0.77-2.22-2.28l2.24,0.03
			c1.48,0.02,2.26-0.72,2.28-2.23c-7.54,1.42-16.54,2.04-27.01,1.91C-295.76,343.45-304.78,344.84-312.3,347.74z M-312.96,399.46
			l-2.28,2.22C-315.23,400.2-314.47,399.44-312.96,399.46z M-293.53,287.26l2.25,0.03c0.02-1.47-0.74-2.61-2.21-3.4
			c-1.5-0.76-2.24-0.38-2.26,1.09C-294.28,285-293.51,285.79-293.53,287.26z M-293.65,296.25c0.02-1.48,1.15-2.23,3.4-2.2
			c2.25,0.03,2.58,1.54,1.07,4.51c-1.51-0.01-2.24-0.38-2.23-1.15C-291.4,296.67-292.17,296.27-293.65,296.25z M-284.72,300.88
			c-0.04,3.02-0.83,4.49-2.3,4.47c-1.51-0.02-2.24-0.77-2.22-2.28C-287.75,301.61-286.23,300.86-284.72,300.88z M-279.96,280.69
			l4.5,0.06c0.02-1.48-1.49-2.27-4.47-2.3L-279.96,280.69z M-277.88,294.21l-0.03,2.25C-279.4,294.96-279.39,294.19-277.88,294.21z
			 M-270.94,278.56c-1.51-0.02-2.26,0.74-2.28,2.21C-271.74,280.8-270.96,280.06-270.94,278.56z M-268.63,274.1
			c-1.51-0.02-2.26,0.74-2.28,2.21C-269.43,276.33-268.65,275.59-268.63,274.1z M-266.38,274.12c4.5,0.06,6.76-0.65,6.78-2.16
			l-4.53,2.19L-266.38,274.12z M-259.6,271.96c2.95,3.06,4.43,5.33,4.41,6.81c-3.02-0.04-4.87-0.81-5.59-2.33
			c-0.76-1.48-1.89-0.76-3.4,2.21c10.45,1.63,19.46,0.25,27.04-4.15c-2.99-3.03-5.58-3.06-7.87-0.11c-2.29,2.99-4.92,2.96-7.88-0.1
			c0.04-2.99,1.17-3.71,3.4-2.21c2.23,1.54,2.59,0.81,1.16-2.23C-254.34,269.78-258.11,270.5-259.6,271.96z M-267.39,352.82
			l-6.74-0.09c-1.55,3.01-1.18,4.13,1.08,3.39C-270.8,355.4-268.92,354.31-267.39,352.82z M-264.39,294.39l2.25,0.03l0.03-2.25
			l-2.25-0.03L-264.39,294.39z M-267.04,325.83c2.95,3.06,4.47,2.31,4.53-2.19C-265.54,323.6-267.03,324.36-267.04,325.83z
			 M-255.28,285.51c-3.02-0.04-4.16,0.72-3.4,2.2C-257.97,289.23-256.83,288.51-255.28,285.51z M-257.7,298.97
			c4.44,4.55,6.71,3.12,6.8-4.41c-3.04,1.47-4.91,1.84-5.63,1.06C-257.3,294.86-257.66,295.98-257.7,298.97z M-267.74,379.8
			l2.25,0.03c0.02-1.48-0.75-2.26-2.22-2.28L-267.74,379.8z M-258.05,325.94l2.25,0.03l0.03-2.25l-2.25-0.03L-258.05,325.94z
			 M-250.78,285.56c2.97,1.55,6.72,1.6,11.24,0.15c4.52-1.42,9.01-1.36,13.49,0.17l0.06-4.5c10.51-2.85,16.55-5.03,18.07-6.51
			c-7.55,2.92-14.68,4.69-21.43,5.34C-236.11,280.9-243.26,282.68-250.78,285.56z M-260.96,377.64c1.44,3.04,2.21,3.05,2.25,0.03
			C-258.68,374.67-259.45,374.66-260.96,377.64z M-249.26,341.81c0.04-2.99-0.74-3-2.25-0.03
			C-250.07,344.82-249.3,344.83-249.26,341.81z M-242.08,308.16c3.01-1.43,3.74-1.42,2.25,0.03c-1.53,1.49-0.81,2.24,2.22,2.28
			c-0.02,1.5-1.15,2.23-3.4,2.2c-2.25-0.03-3.37-0.79-3.35-2.29c0.02-1.48,0.38-1.86,1.14-1.12
			C-242.49,310.05-242.1,309.67-242.08,308.16z M-254.34,386.72l-2.28,2.21L-254.34,386.72z M-246.95,337.34
			c-0.02,1.5,1.45,2.27,4.47,2.3c2.99,0.04,4.52-1.41,4.56-4.43c-1.49-1.5-3.35-1.91-5.61-1.2
			C-245.79,334.75-246.93,335.86-246.95,337.34z M-245.17,373.34c0.04-2.99-1.45-4.52-4.43-4.55
			C-249.64,371.81-248.19,373.3-245.17,373.34z M-235.54,323.99c1.5-1.45,4.14-1.81,7.89-1.02c3.71,0.82,7.1-0.27,10.16-3.24
			c-4.5-0.06-9.38-0.47-14.6-1.31C-237.35,317.61-238.5,319.45-235.54,323.99z M-233.12,310.53c1.52-2.98,1.91-3.35,1.14-1.12
			C-232.78,311.66-233.13,312.04-233.12,310.53z M-238.39,371.18l4.5,0.06c0.04-2.99-1.45-4.52-4.44-4.56L-238.39,371.18z
			 M-223.8,285.91c5.94,3.1,8.97,1.62,9.05-4.38c-3.04,1.47-5.65,1.82-7.89,1.02C-224.88,281.79-225.28,282.9-223.8,285.91z
			 M-221.78,303.92l2.25,0.03l0.03-2.25l-2.25-0.03L-221.78,303.92z M285.51,202.5c1.45,1.54,2.96,2.28,4.47,2.3
			c1.47,0.02,2.23,1.55,2.19,4.53c-7.56,2.93-15.79,3.56-24.77,1.94c-8.97-1.6-17.96-1.72-26.98-0.35
			c-0.04,3.02-0.82,4.13-2.29,3.33c-1.5-0.75-2.25-0.37-2.27,1.11c-1.51-0.02-2.24-0.77-2.22-2.28c-1.53,1.49-3.4,1.85-5.63,1.04
			c-2.24-0.75-3.37-0.38-3.39,1.09c1.48,0.02,2.59,0.8,3.35,2.28c0.71,1.52,0.32,2.25-1.15,2.23c-3.02-0.03-4.87-0.79-5.6-2.32
			c-0.75-1.49-2.61-2.28-5.59-2.32c-3.04,1.47-3.4,2.59-1.17,3.35c2.24,0.81,2.58,1.94,1.08,3.39c-1.51-0.01-2.24-0.38-2.23-1.15
			c0.01-0.74-1.49-1.15-4.48-1.18c-6.08,5.93-12.86,8.09-20.33,6.49c-7.5-1.58-14.25-0.93-20.26,1.98c-1.47-3-4.1-3.43-7.85-1.22
			c-3.79,2.2-7.16,1.8-10.1-1.25l-0.08,6.74c-2.98-3.02-8.21-3.48-15.73-1.32c-7.54,2.15-12.79,2.47-15.75,0.92l2.28-2.22
			c-10.5-0.13-15.72-1.68-15.68-4.7c4.53-2.93,9.78-3.6,15.77-2.05c5.96,1.59,10.47,0.14,13.55-4.32c-12-1.63-22.48-1.03-31.51,1.85
			c-9.04,2.91-19.55,4.24-31.54,4.09l0.06-4.5c-3.02-0.04-5.26-0.81-6.71-2.34c-1.56,3-1.58,4.47-0.06,4.5
			c1.47,0.02,2.23,0.81,2.22,2.28c-18.07,5.77-36.88,9.65-56.37,11.64c-19.53,2-37.56,5.14-54.1,9.43
			c7.42,4.59,16.43,3.96,27.01-1.91c2.95,3.07,7.06,3.12,12.37,0.16c5.27-2.92,9.38-2.87,12.37,0.16c1.49-1.46,1.51-2.58,0.04-3.37
			c-1.5-0.76-1.5-1.14,0.02-1.12c2.96,1.54,5.95,1.58,8.99,0.11c3.01-1.45,6.01-2.91,9.05-4.39c7.45,3.12,14.58,2.83,21.37-0.84
			c6.8-3.64,15.42-4.66,25.91-3.05c6.01-2.9,13.15-3.94,21.4-3.09c8.21,0.88,16.05,3.58,23.51,8.17c-3.04,1.47-6.02,1.43-9-0.11
			c-3-1.52-5.98-2.33-8.96-2.37c0.02-1.47-2.25-0.03-6.81,4.41c2.97,1.55,4.83,1.58,5.63,0.07c0.75-1.46,2.61-1.44,5.62,0.07
			c-7.58,4.41-15.81,5.08-24.77,1.94c-1.53,1.48-0.8,2.24,2.22,2.28c2.99,0.04,2.98,0.81-0.03,2.25
			c-8.98-1.59-18.74-1.71-29.23-0.38c-10.52,1.38-21.04,1.98-31.5,1.85c-0.04,3.02-2.31,4.47-6.81,4.41
			c4.46,3.08,10.44,2.77,18.01-0.9c7.53-3.63,13.53-3.19,17.97,1.36c1.48,0.02,3.73-0.31,6.76-1.04c2.99-0.69,4.49,0.45,4.45,3.43
			c-6.01-0.08-11.25,0.97-15.78,3.18c-4.52,2.18-10.54,3.22-18.03,3.13c-3.02-0.04-3.78,1.09-2.29,3.35
			c1.45,2.27,1.43,3.39-0.04,3.37c-1.47-3-6.66-6.06-15.62-9.2c-1.55,3.01-3.81,4.1-6.79,3.3c-3.01-0.78-6-0.44-9.01,1
			c-1.53,1.5-0.8,2.24,2.22,2.28c2.99,0.04,2.98,0.81-0.03,2.25c-10.46-3.12-19.06-3.97-25.82-2.59
			c-6.77,1.43-14.65,2.07-23.64,1.95c-1.51-0.01-1.91,0.75-1.15,2.23c0.72,1.53,0.32,2.26-1.15,2.25c-3.04,1.46-4.16,1.45-3.37-0.04
			c0.75-1.47-0.36-2.27-3.35-2.3c-0.02,1.52,0.72,1.91,2.24,1.16c1.49-0.73,2.24,0.42,2.2,3.4l-4.5-0.06
			c-2.98-3.03-5.95-4.58-8.93-4.62c-3.06,2.98-4.54,3.32-4.51,1.07c0.03-2.24-1.47-3.39-4.45-3.43c-3.06,2.98-3.43,4.46-1.18,4.48
			c2.25,0.03,2.58,1.54,1.07,4.51c4.53-2.93,8.24-1.37,11.18,4.64c-7.48-3.08-15.7-3.19-24.73-0.32c-9.04,2.91-17.3,3.53-24.77,1.94
			l4.5,0.06c1.47,0.02,2.26-0.72,2.28-2.23c-4.5-0.06-10.5-0.49-17.98-1.35c-7.51-0.83-12.74-1.29-15.72-1.32
			c2.93,4.53,7.01,6.83,12.28,6.9c5.23,0.07,9.34,0.12,12.37,0.16c-1.55,3-6.81,4.41-15.8,4.29c-1.59,5.99-4.6,7.46-9.05,4.38
			c-4.46-3.04-8.95-3.1-13.49-0.17c1.52-2.97,0.8-4.49-2.19-4.53c-3.02-0.04-3.74-1.52-2.19-4.53c1.49-1.46,3.74-1.81,6.76-1.04
			c2.98,0.81,5.97,0.46,9.01-1.01c-4.48-1.53-7.84-1.96-10.1-1.26c-2.26,0.74-5.64,1.06-10.13,1c-1.55,3-2.69,4.11-3.41,3.32
			c-0.76-0.75-1.9,0.37-3.42,3.33c-7.48-3.08-14.96-3.57-22.47-1.4c-7.54,2.15-15.06,4.69-22.58,7.57c3.01-1.43,4.87-1.41,5.62,0.07
			c0.72,1.53,1.82,3.05,3.31,4.54c1.47,0.02,2.25-0.31,2.26-1.09c0.01-0.74,1.49-1.1,4.51-1.07c0.04-2.99-1.46-3.74-4.46-2.31
			c-3.04,1.47-3.77,0.73-2.22-2.28c7.48,0.1,13.11-0.18,16.87-0.9c3.73-0.69,7.89-1.03,12.39-0.97c-0.02,1.52,2.96,2.29,8.96,2.37
			l-0.06,4.5l6.75,0.09c-0.02,1.51,0.32,2.25,1.1,2.26c0.74,0.01,1.12,0.79,1.1,2.26c-3.01-1.51-4.86-1.93-5.61-1.2
			c-0.78,0.77-1.91,1.1-3.39,1.08c-0.04,3.03,0.68,4.51,2.19,4.53c1.51-2.97,3.75-2.56,6.73,1.2c2.94,3.8,5.93,3.46,9.01-1
			c0.02-1.47-1.09-2.26-3.35-2.29c-2.25-0.03-2.62-1.52-1.07-4.52c13.53-2.81,26.67-4.89,39.44-6.24
			c12.74-1.31,25.14-4.17,37.22-8.51c7.45,3.11,13.8,3.56,19.1,1.37c5.26-2.18,10.19-4.71,14.72-7.67c-1.49-1.5-3.35-1.52-5.62-0.08
			c-2.26,1.48-3.38,0.73-3.34-2.3c2.97,1.55,5.6,1.59,7.87,0.1c2.27-1.44,3.37,0.04,3.31,4.54c7.52-2.89,14.67-3.92,21.4-3.1
			c6.74,0.86,13.85-0.17,21.4-3.09c-0.02,1.51-1.56,3.73-4.58,6.69c-7.5-1.57-13.48-1.3-18,0.89c-4.53,2.19-9.03,2.52-13.51,0.96
			c2.91,6.04,6.26,7.6,10.06,4.62c3.76-2.93,7.9-2.89,12.36,0.16c12.08-7.33,26.35-10.51,42.85-9.56
			c16.47,0.98,32.25-2.18,47.35-9.51c2.98,0.04,6.37-0.26,10.14-0.99c3.73-0.69,7.11-1.04,10.13-0.99c1.46,1.53,2.96,2.29,4.47,2.31
			c2.99,0.04,5.63-0.67,7.9-2.15c2.27-1.44,4.88-2.18,7.9-2.14c-0.04,3.02,1.07,3.77,3.34,2.28c2.27-1.44,4.87-1.4,7.87,0.11
			c0.04-2.98-0.71-4.12-2.21-3.4c-1.52,0.75-1.51,0.36,0.02-1.13c7.53-2.89,15.02-4.3,22.54-4.2c7.48,0.09,14.98-1.28,22.54-4.21
			c-2.98-3.02-5.96-3.8-8.96-2.37c-3.04,1.47-5.28,0.71-6.72-2.33c4.53-2.92,9.04-3.26,13.5-0.95c4.47,2.3,8.18,3.48,11.2,3.52
			c-1.51-0.02-2.23-1.16-2.2-3.4c0.03-2.25,0.78-3.36,2.29-3.34c7.48,0.09,13.5-0.57,18.01-2.02c4.52-1.43,10.48-0.61,17.96,2.48
			c-1.55,3-4.19,3.7-7.9,2.14c-3.74-1.52-4.87-0.8-3.4,2.21c5.97,0.08,9.71,1.63,11.18,4.64l-8.99-0.11
			c-0.04,3.02,0.69,4.14,2.21,3.39c1.48-0.71,2.25-0.31,2.23,1.16c-12.05,2.87-22.19,3.86-30.4,2.98
			c-8.25-0.84-16.87,0.18-25.9,3.04l-0.06,4.5c-2.98-3.02-6.7-3.07-11.24-0.14l0.06-4.5c-4.55,4.43-6.82,5.92-6.8,4.41
			c4.49,0.06,7.48,0.86,8.96,2.36c-1.54,3-3.07,3.34-4.51,1.07c-1.48-2.27-1.49-1.88-0.02,1.13c1.44,3.04,2.95,3.4,4.48,1.18
			c1.51-2.23,3.75-1.81,6.74,1.22c1.47,0.02,1.87-1.1,1.16-3.37c-0.74-2.26,0.4-3.37,3.42-3.33c-1.55,3-1.58,5.24-0.09,6.75
			c3.01-1.45,7.13-2.51,12.41-3.22c5.24-0.67,10.14-1.73,14.65-3.18l-2.22-2.28c1.48,0.02,2.25-0.31,2.26-1.09
			c0.01-0.74,0.75-1.11,2.27-1.1c1.47,0.02,1.85,0.8,1.09,2.26c-0.79,1.51-0.42,2.24,1.09,2.26l0.06-4.5
			c3.03-2.94,6.02-3.64,9.03-2.14c2.96,1.56,5.93,3.11,8.93,4.62c2.99,0.04,4.12-0.69,3.41-2.21c-0.76-1.49,0.39-2.97,3.43-4.45
			c1.45,1.54,1.83,2.66,1.08,3.39c-0.79,0.76,0.34,1.13,3.36,1.16c4.53-2.92,8.66-4,12.41-3.21c3.71,0.83,7.85,1.23,12.35,1.28
			c-4.44-4.55-3.67-6.79,2.33-6.72c2.98,0.04,5.23,0.46,6.73,1.21c1.47,0.8,3.71,1.18,6.73,1.22l0.06-4.5
			c2.99,0.04,4.86-0.68,5.65-2.18c0.76-1.46,1.13-0.72,1.09,2.26c-0.04,3.02-1.17,3.74-3.4,2.21c-2.23-1.5-2.62-0.78-1.15,2.23
			c6.01-2.91,10.91-3.97,14.66-3.19c3.71,0.82,7.87,0.49,12.38-0.96c-0.06,4.5,2.18,5.3,6.72,2.33c1.47,0.02,1.87-0.72,1.15-2.23
			c-0.75-1.49-0.36-2.25,1.15-2.24c1.48,0.02,1.86,0.41,1.11,1.15c-0.78,0.76-0.4,1.12,1.11,1.14c14.97,0.19,27.36-1.13,37.16-4.02
			c9.77-2.86,20.65-4.23,32.66-4.07c0.02-1.48-1.09-2.26-3.34-2.29c-2.25-0.03-1.9-0.02,1.12,0.01c1.48,0.02,2.24,0.79,2.22,2.28
			c7.5-1.39,14.65-2.42,21.4-3.11c6.76-0.65,14.62-0.16,23.59,1.44c10.53-4.37,22.18-6.08,34.92-5.17
			c12.71,0.93,25.1-0.81,37.17-5.15c7.48,0.1,14.61,0.19,21.36,0.28c6.75,0.09,13.86-1.3,21.42-4.23
			c8.97,1.63,17.58,1.74,25.86,0.34c8.24-1.37,16.11-1.27,23.61,0.3c7.53-2.9,13.54-3.55,18.01-2.02
			c4.48,1.57,11.23,0.92,20.26-1.98l-0.06,4.5c2.99,0.04,4.84,0.44,5.61,1.2c0.73,0.78,2.59,1.15,5.61,1.19
			c1.51-2.97,0.4-4.1-3.33-3.42c-3.76,0.72-4.88-0.41-3.33-3.41c4.52-1.42,9.37-1.74,14.63-0.94c5.22,0.84,9.35-0.23,12.41-3.21
			c20.93,3.28,41.92,2.78,62.98-1.44c21.03-4.23,42.02-4.7,62.99-1.44c7.52-2.89,17.65-3.5,30.38-1.86
			c12.7,1.67,22.83,1.06,30.38-1.87c11.94,3.18,24.3,3.69,37.09,1.61c12.75-2.08,26.62-1.51,41.59,1.66
			c5.99-1.41,12.75-2.83,20.29-4.24c7.51-1.38,14.99-1.28,22.48,0.29l2.28-2.23c10.47,0.14,19.85,0.65,28.09,1.5
			c8.22,0.87,16.88-0.92,25.93-5.29c-6.05,2.94-9.04,2.91-8.99-0.11c6.01-2.91,11.28-2.46,15.72,1.33
			c4.45,3.81,9.68,4.26,15.72,1.32c-17.92-4.73-33.65-6.4-47.16-5.1c1.48,0.02,2.59,1.16,3.33,3.42c0.71,2.26-0.43,3.36-3.41,3.32
			c0.07-5.97-2.14-9.02-6.63-9.08c-1.53,1.49-3.05,2.21-4.53,2.19c-4.49-0.06-10.1-0.87-16.83-2.46c-6.72-1.56-13.13-0.91-19.14,2
			c-3.02-0.04-4.49-0.79-4.47-2.3c0.02-1.48-0.75-1.49-2.25-0.03c-1.51-0.02-2.26,0.75-2.28,2.22c-0.02,1.52-0.79,1.51-2.25-0.03
			c-3.02-0.03-4.87-1.18-5.57-3.44c-0.75-2.26-2.59-3.4-5.58-3.45c-0.03,3.02-0.83,4.49-2.31,4.47c-1.51-0.02-2.26,0.74-2.28,2.21
			c-6.03,1.44-12.04,1.36-17.99-0.23c-5.99-1.54-12-0.88-18.02,2.02c-4.47-1.53-8.95-3.1-13.43-4.67c-4.47-1.54-8.24-0.85-11.27,2.1
			c-13.47-1.65-24.72-1.79-33.73-0.44c4.5,0.06,6.74,0.86,6.72,2.34l-110.17-1.42c-0.04,3.02,1.06,4.5,3.31,4.53
			c2.25,0.03,3.35,1.56,3.31,4.54c-1.49-1.49-3.73-2.3-6.71-2.33c-3.02-0.04-3.74-1.53-2.19-4.53c-3.04,1.48-4.91,1.84-5.64,1.06
			c-0.76-0.75-1.88-1.15-3.36-1.17c-13.59,7.34-27.09,7.91-40.5,1.73c-4.54,2.96-10.56,4.36-18.04,4.26
			c-7.52-0.1-15.01,0.58-22.51,1.97l0.06-4.5c-3.02-0.03-4.15,0.72-3.4,2.2c0.72,1.53,0.32,2.27-1.15,2.25
			c-2.98-3.02-5.22-4.57-6.69-4.59c-1.51-0.01-3.01-0.77-4.47-2.31c4.5,0.06,9-0.22,13.51-0.94c4.51-0.69,8.21,0.49,11.2,3.52
			c3.04-4.46,7.18-6.27,12.44-5.46c5.23,0.84,10.11,1.25,14.6,1.3c10.51-2.85,19.52-3.85,27.03-3.02
			c7.47,0.87,17.21,0.62,29.25-0.75c-2.98-3.03-8.21-3.48-15.72-1.32c-7.55,2.15-12.77,0.95-15.7-3.58
			c7.48,0.09,15.36-0.54,23.64-1.94c8.24-1.37,13.85-0.56,16.83,2.46c-0.04,3.03-1.56,3.74-4.52,2.2c-3-1.52-3.75-0.79-2.28,2.21
			c10.47,0.14,20.23,0.26,29.23,0.38c8.99,0.11,17.23-1.25,24.79-4.18c11.98,0.16,25.85,0.73,41.58,1.66
			c15.73,0.97,29.6-0.75,41.67-5.08c5.93,3.1,12.31,3.91,19.08,2.49c6.77-1.39,13.85-0.56,21.33,2.52
			c12.06-5.82,23.32-6.8,33.77-2.94c10.42,3.9,19.44,2.15,27.06-5.27l-4.5-0.06l0.06-4.5c20.97,0.27,44.19,0.95,69.69,2.02
			c25.46,1.11,48.69,1.01,69.71-0.23l0.09-6.74c3.01-1.43,5.99-1.4,8.99,0.12c2.97,1.55,5.96,1.58,8.99,0.11
			c0.04-2.99-1.46-3.74-4.46-2.31c-3.04,1.47-3.02-0.04,0.06-4.5c-3.02-0.04-4.16,1.08-3.42,3.33c0.71,2.26-0.42,2.63-3.39,1.07
			c1.51-2.96,1.54-4.83,0.08-5.62c-1.5-0.76-1.49-1.89,0.05-3.38c7.46,1.6,17.18,2.48,29.2,2.62c-2.98-3.02-5.94-4.57-8.94-4.61
			c-3.02-0.03-5.98-1.55-8.93-4.61c-0.04,3.02-0.83,4.49-2.31,4.46c-5.97-3.06-10.45-4.24-13.45-3.55
			c-3.03,0.73-6.74-0.43-11.2-3.51l0.06-4.5c-3.02-0.04-3.77,0.72-2.28,2.21c1.46,1.53,0.72,1.52-2.25-0.02
			c-2.98-3.03-4.83-3.79-5.59-2.32c-0.79,1.5-2.65,0.73-5.6-2.32c-21.02,1.24-44.64,1.68-70.85,1.34
			c-26.25-0.34-50.59-0.65-73.08-0.94c18.02-2.75,36.76-3.64,56.25-2.65c19.45,1.02,37.43,1.6,53.95,1.81l0.03-2.25
			c0.02-1.48,0.77-2.23,2.28-2.21c-0.02,1.51-0.81,2.63-2.3,3.34c-1.52,0.76-0.78,1.12,2.24,1.16c1.49-1.46,4.13-1.42,7.87,0.1
			c3.7,1.56,7.08,0.86,10.15-2.13c-3.02-0.03-5.26-0.8-6.72-2.33c-1.49-1.5-3.74-1.53-6.74-0.09l0.06-4.5
			c-4.52,1.45-7.54,1.8-9.01,1.01c-1.5-0.76-3.73-1.91-6.7-3.47c1.42,4.52-1.6,6.73-9.08,6.64c0.04-2.99,0.79-4.49,2.3-4.47
			c1.48,0.02,3-0.69,4.52-2.2c-3.02-0.03-4.88,0.33-5.63,1.06c-0.78,0.76-2.65,1.09-5.64,1.05c-1.55,3-1.18,3.74,1.1,2.26
			c2.27-1.45,3.38-0.69,3.35,2.3c-8.98-1.6-17.96-2.49-26.96-2.6c-8.99-0.11-17.24-0.96-24.71-2.56l2.28-2.23
			c-4.5-0.06-7.53,0.68-9.02,2.14l4.5,0.06c-1.55,3-3.07,3.73-4.53,2.19c-1.49-1.49-3.74-1.52-6.74-0.09l0.06-4.5
			c-3.04,1.48-5.3,1.83-6.76,1.05c-1.5-0.76-3.74-1.18-6.73-1.22c-0.04,3.03,1.81,3.79,5.59,2.32c3.74-1.43,5.63-0.66,5.59,2.32
			c-4.46-3.04-10.46-3.5-17.97-1.35c-7.55,2.15-13.5,0.95-17.95-3.61c-1.51-0.01-1.52,0.76-0.03,2.25c1.46,1.53,0.71,2.26-2.28,2.22
			c-4.5-0.06-9.38-0.47-14.6-1.31c-5.27-0.81-8.65,0.27-10.16,3.24c-7.48-3.09-11.98-3.14-13.49-0.18c-1.49-1.5-3.72-3.03-6.69-4.59
			c-3-1.51-5.26-0.8-6.77,2.16c5.97,0.07,8.97,1.63,8.93,4.61c-11.98-3.14-22.83-3.66-32.59-1.54c-9.79,2.12-19.91,1.64-30.34-1.52
			c-3.06,2.98-3.82,4.45-2.3,4.47c-1.53,1.5-2.25-0.03-2.19-4.52c-3.02-0.04-4.16,0.71-3.4,2.2c0.72,1.53,0.32,2.25-1.16,2.24
			c0.02-1.48-1.48-2.27-4.47-2.31c-1.52-0.02-1.91,0.75-1.16,2.23c0.72,1.52,0.32,2.26-1.15,2.24c-11.97-3.14-23.56-3.68-34.84-1.57
			c-11.27,2.1-20.65,1.63-28.09-1.49c-3.06,2.99-3.82,4.45-2.31,4.47c-1.51-0.02-2.24-0.38-2.23-1.16c0.01-0.74-0.76-1.13-2.23-1.15
			c-3.04,1.47-7.55,2.15-13.52,2.07c-6.01-0.08-10.49-1.61-13.43-4.67c-3.06,2.98-8.29,2.92-15.74-0.2
			c-0.04,3.02-0.83,4.14-2.29,3.35c-1.5-0.76-2.25-0.38-2.26,1.09c2.96,1.55,5.59,1.97,7.85,1.23c2.26-0.7,4.12-0.3,5.61,1.2
			c-16.53,1.29-30.76,0.72-42.71-1.68c-11.99-2.41-22.46-2.15-31.49,0.72c-0.02,1.5,1.1,1.91,3.36,1.16
			c2.26-0.71,3.37,0.43,3.33,3.42c-6.01-0.08-10.48-1.61-13.43-4.67c-1.57,4.48-1.21,6.73,1.03,6.75c2.25,0.03,4.1,0.83,5.59,2.32
			c-3.06,2.99-7.18,4.06-12.41,3.22c-5.26-0.81-9.38-0.47-12.38,0.96c-1.44-5.99-4.76-9.41-9.99-10.25
			c-5.26-0.8-9.37-1.24-12.35-1.28c1.47,0.02,2.59,0.81,3.34,2.3c0.72,1.51,0.32,2.25-1.16,2.23c-7.5-1.57-16.09-2.81-25.81-3.71
			c-9.76-0.85-19.12,0.14-28.15,3.02c-1.55,3-1.17,3.74,1.1,2.26c2.27-1.44,3.38-0.69,3.34,2.3c-3-1.52-6.37-1.95-10.1-1.26
			c-3.77,0.72-7.13,0.29-10.1-1.25c3.01-1.43,5.99-1.79,9.01-1.01c2.98,0.81,4.5-0.29,4.54-3.31c-3.02-0.03-6.01,0.31-9.01,1.01
			c-3.03,0.73-6.02,1.05-9.01,1.01c-1.55,3-1.17,3.74,1.1,2.26c2.27-1.45,3.38-0.69,3.34,2.3l-6.75-0.09
			c0.04-2.99-0.72-4.51-2.19-4.53c-0.04,3.02-2.3,3.73-6.77,2.16c-4.48-1.53-7.51-0.83-9.02,2.13c1.45,1.54,3.35,1.56,5.62,0.08
			c2.27-1.45,4.13-1.42,5.62,0.07c-7.54,1.42-13.53,2.47-18.03,3.15c-4.51,0.71-10.52,0.98-18,0.89l0.06-4.5
			c-10.53,1.38-19.91,1.99-28.14,1.88c-8.26-0.11-16.88,1.3-25.91,4.16c-3.03-0.04-5.61-0.8-7.84-2.35
			c-2.23-1.5-4.14-0.79-5.65,2.18c2.95,3.06,5.92,3.84,8.96,2.37c3-1.43,5.99-1.4,8.99,0.12c-4.51,1.45-8.67,2.52-12.4,3.21
			c-3.77,0.73-7.89,1.02-12.38,0.96c-1.49-1.49-1.86-3-1.07-4.5c0.76-1.47,0.38-2.25-1.09-2.26c-1.53,1.5-3.78,1.85-6.76,1.04
			c-3.02-0.78-5.27,0.32-6.79,3.28c1.44,3.04,3.33,3.42,5.61,1.2s4.14-1.81,5.61,1.19c-4.54,2.97-8.69,3.65-12.39,2.09
			c-3.74-1.52-7.11-1.57-10.12-0.13l0.06-4.5c-3.04,1.48-7.16,2.16-12.4,2.09c-5.27-0.07-8.66,1.41-10.17,4.38
			c2.98,0.04,6.36-0.66,10.14-2.13c3.75-1.43,6.37-0.65,7.84,2.35c-7.48-3.08-11.21-2.4-11.27,2.11c-5.97-3.07-11.21-3.13-15.74-0.2
			c-4.53,2.96-9.03,2.91-13.49-0.17c1.5-1.45,3.39-1.82,5.64-1.06c2.24,0.81,4.85-0.28,7.91-3.27c-12.01-0.16-19.52,1.26-22.54,4.22
			c1.45,1.52,3.35,1.94,5.61,1.19c2.26-0.7,3.37,0.43,3.33,3.42c-4.48-1.53-8.61-2.36-12.34-2.41c-3.76-0.05-7.11-1.57-10.06-4.63
			c-6.05,2.94-11.69,4.35-16.92,4.28c-5.27-0.07-10.14,1.38-14.67,4.31c2.98,0.04,5.63-0.28,7.88-1.02
			c2.26-0.7,6.38-1.04,12.38-0.96c-0.04,3.02,0.68,4.5,2.19,4.52c-3.02-0.04-4.5,0.72-4.52,2.2c2.95,3.06,5.57,3.83,7.84,2.35
			c2.27-1.44,4.15-2.94,5.68-4.43c2.94,3.07,7.05,3.47,12.35,1.28c5.26-2.18,9.37-1.74,12.35,1.29
			c-21.05,2.74-41.67,5.09-61.93,7.07c-20.27,1.99-38.67,4.39-55.19,7.17c0.02-1.48-0.74-2.27-2.22-2.29
			c-1.51-0.02-2.24-0.75-2.22-2.27c2.98,0.04,3.73-0.3,2.26-1.09c-1.5-0.76-0.75-1.87,2.29-3.35c-0.02,1.52,1.45,2.26,4.47,2.3
			c2.99,0.04,4.52-1.41,4.56-4.43c-4.52,1.45-7.89,1.41-10.12-0.13c-2.23-1.5-4.87-0.79-7.9,2.15c2.99,0.04,4.49,0.83,4.47,2.3
			l-4.5-0.06l-0.09,6.76l6.75,0.08c-12.05,2.87-21.07,4.23-27.04,4.15c-0.04,3.02-1.17,3.74-3.4,2.2c-2.23-1.5-3.35-1.51-3.37-0.04
			c5.93,3.09,10.43,3.15,13.49,0.17c7.48,0.1,14.24-0.56,20.26-1.99c5.99-1.4,12.01-2.1,18.02-2.02c1.47,0.02,2.97,1.16,4.45,3.43
			c1.45,2.27,3.7,1.95,6.76-1.03c-1.49-1.5-3-1.9-4.48-1.19c-1.52,0.75-1.5-0.37,0.04-3.36c4.5,0.06,9.35,0.12,14.61,0.18
			c5.24,0.07,11.61-0.59,19.14-2.01c3.04-4.46,9.81-5.84,20.29-4.24c10.45,1.65,19.44,1.77,26.98,0.35L285.51,202.5z
			 M-217.23,299.49c1.44,3.04,2.21,3.05,2.25,0.03C-214.94,296.53-215.71,296.52-217.23,299.49z M-205.35,250.16
			c1.52-2.96,2.28-2.96,2.24,0.03C-203.14,253.21-203.91,253.2-205.35,250.16z M-217.66,333.22c1.44,3.04,2.21,3.05,2.25,0.03
			C-215.38,330.25-216.15,330.24-217.66,333.22z M-198.93,274.99c-4.5-0.06-6.75,0.69-6.77,2.16
			C-202.71,277.19-200.45,276.47-198.93,274.99c7.44,3.12,13.46,2.81,18-0.89c4.55-3.66,10.53-4.72,18.03-3.14
			c1.49-1.46,3.01-1.83,4.51-1.07c1.47,0.8,2.26-0.33,2.29-3.35c-7.5-1.58-14.61-0.53-21.4,3.11
			C-184.28,273.32-191.44,275.09-198.93,274.99z M-208.44,315.34c2.98,0.04,4.5-0.68,4.52-2.19
			C-208.41,313.1-209.93,313.85-208.44,315.34z M-210.92,333.3c-0.02,1.5,4.47,2.31,13.46,2.42c-1.47-3.01-3.7-4.55-6.69-4.59
			C-207.17,331.11-209.43,331.84-210.92,333.3z M-209.02,360.31l-2.25-0.03c-1.53,1.5-1.54,2.24-0.03,2.25
			C-209.82,362.55-209.03,361.82-209.02,360.31z M-201.69,315.43l2.25,0.03l0.03-2.25l-2.25-0.03L-201.69,315.43z M-185.23,259.42
			c2.99,0.04,4.51-0.68,4.53-2.19l-4.5-0.06L-185.23,259.42z M-200.02,360.43c4.5,0.06,6.72,1.6,6.69,4.59
			C-197.83,364.96-200.06,363.45-200.02,360.43z M-197.92,371.7l0.03-2.25c-1.49-1.49-2.62-1.16-3.39,1.08
			C-202.08,372.77-200.96,373.17-197.92,371.7z M-188.15,311.11l2.25,0.03l0.03-2.25l-2.25-0.03L-188.15,311.11z M-183.5,299.92
			c-0.04,3.03-0.81,3.02-2.25-0.03C-184.24,296.92-183.46,296.93-183.5,299.92z M-178.51,261.75c1.47,0.02,2.25-0.31,2.26-1.09
			c0.01-0.74,0.75-1.12,2.26-1.1C-177.01,259.53-178.49,260.28-178.51,261.75z M-172.32,304.56c-4.49-0.06-6.4,0.7-5.65,2.18
			C-177.25,308.25-175.38,307.55-172.32,304.56z M-169.49,259.63c-1.53,1.49-0.03,2.24,4.47,2.3c0.04-2.98-0.71-4.51-2.19-4.53
			C-168.72,257.38-169.47,258.15-169.49,259.63z M-179.35,326.95c1.45,1.54,2.97,1.17,4.51-1.06c1.51-2.23,3.01-1.82,4.49,1.18
			l0.03-2.25l0.03-2.24C-174.8,322.52-177.84,323.99-179.35,326.95z M-165.46,295.66c-1.49-1.5,0.03-2.6,4.54-3.31
			c4.51-0.68,6.74,0.47,6.7,3.46c-3.04,1.47-5.29,1.83-6.76,1.04C-162.48,296.08-163.98,295.67-165.46,295.66z M-159.89,300.22
			c0.7,3.04,0.31,3.04-1.13-0.01C-160.98,297.22-160.63,297.23-159.89,300.22z M-163.56,322.67l-0.03,2.25l2.27-2.21
			c1.48,0.02,2.26-0.7,2.28-2.23l-2.28,2.23L-163.56,322.67z M-153.78,262.07l-0.09,6.76c3.02-2.96,6.8-4.42,11.3-4.36
			c4.5,0.06,8.24-1.37,11.3-4.36C-141.81,263-149.3,263.65-153.78,262.07z M-142.25,239.74l-2.25-0.03
			c-1.53,1.49-1.54,2.22-0.03,2.25C-143.05,241.97-142.27,241.25-142.25,239.74z M-145.11,286.92c-0.02,1.51,1.83,1.92,5.61,1.2
			c3.74-0.69,4.14-2.55,1.2-5.6c-1.53,1.49-3.05,1.85-4.51,1.06C-144.32,282.82-145.07,283.94-145.11,286.92z M-147.79,320.62
			c0.02-1.47,1.16-2.58,3.41-3.32c2.26-0.71,1.89-1.84-1.08-3.39C-148.51,316.88-149.28,319.13-147.79,320.62z M-126.69,253.43
			c0.02-1.47,0.77-2.24,2.28-2.22l-2.22-2.27l-2.28,2.21L-126.69,253.43z M-126.77,260.17l2.24,0.03c1.5-1.45,1.16-2.24-1.09-2.26
			C-127.86,257.9-128.26,258.68-126.77,260.17z M-128.6,315.24c-2.24-0.76-3.38,0.35-3.42,3.33c7.45,3.12,15.7,2.84,24.75-0.8
			c9.04-3.61,16.56-6.16,22.59-7.59c-1.51-0.01-2.25-0.38-2.24-1.15c0.01-0.74-0.76-1.13-2.24-1.15
			c-15.04,2.83-27.04,4.15-36.03,4.04C-125.23,314.94-126.37,316.05-128.6,315.24z M-122.27,260.23c4.5,0.06,7.49-0.64,9.02-2.14
			C-119.26,258.02-122.25,258.76-122.27,260.23z M-119.94,253.51l2.24,0.03c0.02-1.48,0.38-2.25,1.16-2.24
			c0.73,0.01,1.13-0.73,1.15-2.23l-4.49-0.06L-119.94,253.51z M-111,258.12l2.25,0.03l0.03-2.25l-2.25-0.03L-111,258.12z
			 M-121.24,354.7c0.02-1.48,1.5-2.23,4.52-2.2C-118.25,354-119.77,354.72-121.24,354.7z M-106.73,276.18l4.49,0.06
			c0.02-1.48-0.74-2.61-2.2-3.41C-105.95,272.07-106.7,273.19-106.73,276.18z M-95.26,258.32c0.04-2.98-1.46-4.5-4.44-4.55
			C-99.74,256.79-98.29,258.29-95.26,258.32z M-92.99,256.11c-1.51-0.02-2.26,0.74-2.28,2.21
			C-93.79,258.34-93.01,257.62-92.99,256.11z M-105.36,343.65c2.99,0.04,4.84,0.84,5.59,2.33c0.72,1.51,2.57,2.28,5.59,2.31
			c0.04-2.99-1.45-5.25-4.41-6.8C-101.59,339.98-103.84,340.69-105.36,343.65z M-88.46,253.92l2.25,0.03l0.03-2.25l-2.25-0.03
			L-88.46,253.92z M-83.96,253.98c1.46,1.53,2.58,1.54,3.37,0.04c0.76-1.47,0.38-2.24-1.09-2.26c-0.02,1.51-0.8,1.88-2.26,1.09
			C-85.45,252.1-85.46,252.48-83.96,253.98z M-86.39,267.44l2.22,2.28c0.04-2.99-0.72-4.51-2.19-4.53L-86.39,267.44z M-79.47,254.03
			c4.5,0.06,5.25-1.41,2.3-4.47c-0.02,1.5-0.41,2.24-1.15,2.23C-79.08,251.79-79.45,252.56-79.47,254.03z M-87.31,339.39
			c-1.51-0.02-2.24-0.39-2.23-1.16c0.01-0.73-0.76-1.13-2.23-1.14c-1.55,3-1.57,4.48-0.06,4.5
			C-90.36,341.6-88.84,340.88-87.31,339.39z M-53.12,303.85c-3.02-0.04-4.49-0.41-4.48-1.18c0.01-0.74-0.76-1.14-2.23-1.15
			c-3.08,4.46-7.58,4.4-13.49-0.18c-5.95-4.58-10.46-3.12-13.55,4.33c2.95,3.06,5.9,5.35,8.91,6.86c3.03-2.96,7.54-4.01,13.54-3.2
			C-58.47,310.17-54.69,308.33-53.12,303.85c1.47,0.02,2.26-0.71,2.28-2.22c0.02-1.48-0.75-2.26-2.22-2.28L-53.12,303.85z
			 M-75.32,281.08c-3.02-0.04-4.13-0.8-3.35-2.3C-77.9,277.32-76.79,278.06-75.32,281.08z M-80.48,332.73
			c0.04-2.98-0.72-4.51-2.19-4.53C-85.73,331.18-84.98,332.67-80.48,332.73z M-75.32,281.08c2.99,0.04,3.37,0.81,1.1,2.26
			C-76.49,284.81-76.87,284.08-75.32,281.08z M-70.44,251.9c4.48,1.57,8.59,1.62,12.37,0.16c3.74-1.42,7.9-2.14,12.39-2.09
			c-2.98-3.02-7.07-4.2-12.32-3.53C-63.29,247.14-67.42,248.95-70.44,251.9z M-85.18,348.41c1.47,0.02,2.23,1.55,2.19,4.53
			C-86.01,352.89-86.73,351.41-85.18,348.41z M-76.42,366.52c-4.52,1.44-8.26-0.11-11.18-4.65c5.93,3.09,11.2,3.17,15.74,0.2
			c4.54-2.92,9.02-2.14,13.46,2.42C-65.92,364.4-71.9,365.1-76.42,366.52z M-66.27,276.69c-1.49-1.5-1.1-1.87,1.14-1.11
			c2.24,0.8,2.58,1.94,1.08,3.38l-2.25-0.02L-66.27,276.69z M-73.93,348.55c2.99,0.04,3.72,0.44,2.24,1.16
			c-1.52,0.75-2.27,1.86-2.3,3.34L-73.93,348.55z M-47.76,236.45l-4.49-0.06c-1.53,1.5-1.54,2.62-0.04,3.38
			C-50.84,240.56-49.31,239.45-47.76,236.45z M-59.52,276.78c1.51-2.97,2.29-2.96,2.25,0.02
			C-57.31,279.83-58.08,279.82-59.52,276.78z M-64.65,326.19l-0.03,2.24l2.24,0.03l0.06-4.49l-2.24-0.03L-64.65,326.19z
			 M-55.17,288.08c2.98,0.04,5.62,0.45,7.85,1.23c2.24,0.8,4.84,0.44,7.89-1.02c-1.47-3.01-4.43-4.9-8.93-5.74
			C-52.84,281.75-55.11,283.58-55.17,288.08z M-53.87,362.3c1.47,0.02,2.97,0.82,4.46,2.31c-0.02,1.51-1.15,2.23-3.4,2.21
			C-55.06,366.79-55.42,365.31-53.87,362.3z M-49,333.13c2.97,1.55,7.45,3.12,13.44,4.67c5.95,1.59,10.46,0.91,13.52-2.07
			c2.96,1.55,5.95,2.32,8.97,2.37c2.98,0.04,5.25-1.41,6.8-4.42c-7.48-3.08-14.21-4.29-20.19-3.63
			C-32.49,330.74-39.99,331.78-49,333.13z M-27.43,229.97c5.97,0.07,9-0.62,9.02-2.13C-22.91,227.78-25.94,228.5-27.43,229.97z
			 M-47.07,357.89c2.99,0.04,4.85,0.44,5.61,1.2c0.73,0.78,2.59,0.42,5.64-1.06c-0.04,3.02-1.95,4.12-5.67,3.31
			C-45.24,360.55-47.09,359.41-47.07,357.89z M73.11,280.73c-3.04,1.48-4.51,1.45-4.5-0.06c0.02-1.47-1.48-2.27-4.47-2.3
			c-4.57,5.94-11.35,8.11-20.32,6.48c-8.97-1.59-15.75,0.57-20.32,6.48c-1.45-4.52-2.93-6.78-4.41-6.8c-1.51-0.02-4.5-0.06-9-0.12
			c-1.55,3.01-1.17,3.75,1.1,2.26c2.27-1.45,3.38-0.69,3.34,2.29c-4.52,1.45-9.02,1.79-13.51,0.95c-4.49-0.8-9.76-0.47-15.75,0.92
			c-3.06,2.99-10.58,5.88-22.6,8.7c4.48,1.57,8.96,2.37,13.46,2.43c4.55-4.44,10.94-6.22,19.18-5.38
			c8.21,0.88,16.09-0.15,23.65-3.07c12.02-2.84,24.02-4.55,36.05-5.16c11.99-0.59,24.01-3.07,36.08-7.41
			c7.48,0.09,14.97-0.16,22.5-0.83c7.49-0.64,14.27-3.19,20.34-7.6c-10.55,2.89-18.02,2.01-22.46-2.55
			c-3.06,2.99-7.94,5.52-14.71,7.69c-6.78,2.16-13.91,2.45-21.38,0.85L73.11,280.73z M-26,292.95l-6.75-0.08
			c1.5-1.46,2.63-1.45,3.38,0.04C-28.65,294.43-27.52,294.44-26,292.95z M-20.75,234.55c-0.04,3.02,1.07,4.17,3.33,3.42
			c2.26-0.7,4.14-1.81,5.67-3.29L-20.75,234.55z M-33.58,358.06l2.25,0.03l-0.03,2.25l-2.25-0.03L-33.58,358.06z M-9.5,234.69
			l2.25,0.03l0.03-2.25l-2.25-0.03L-9.5,234.69z M-7.2,230.23c4.46,3.08,8.95,3.13,13.49,0.17c-3.02-0.03-5.61-0.8-7.84-2.35
			C-3.78,226.55-5.69,227.26-7.2,230.23z M-5.44,268.47c-0.04,3.02-1.17,3.75-3.4,2.21c-2.23-1.51-2.61-1.52-1.12-0.01
			c-3.02-0.04-3.75-0.79-2.22-2.28C-10.69,266.93-8.44,266.96-5.44,268.47z M-17.79,353.78c-0.06,4.49-3.1,6.7-9.07,6.62
			c0.04-2.98,0.79-4.1,2.29-3.33C-23.1,357.85-20.84,356.76-17.79,353.78z M-2.96,250.52c-3-1.52-4.48-1.18-4.51,1.06
			c-0.03,2.24,1.43,3.39,4.45,3.43L-2.96,250.52z M1.26,271.94c2.98,0.81,5.96,1.21,8.98,1.24c-4.55,4.44-9.05,4.38-13.49-0.17
			C-3.23,271.52-1.75,271.16,1.26,271.94z M-3.4,284.25c-0.02,1.51,0.71,2.26,2.22,2.27l0.03-2.24L-3.37,282L-3.4,284.25z
			 M6.29,230.4c1.45,1.54,3.69,2.29,6.71,2.33c2.99,0.04,4.51-1.41,4.56-4.43C14.58,225.27,10.85,225.96,6.29,230.4z M-8.44,326.91
			c2.97,1.55,4.48,1.18,4.51-1.06C-3.9,323.59-5.42,323.96-8.44,326.91z M0.64,320.28c1.44,3.04,2.21,3.4,2.24,1.16
			C2.9,319.19,2.13,318.82,0.64,320.28z M28.81,228.44c-2.98-3.03-6.7-3.07-11.24-0.15C20.49,232.82,24.25,232.88,28.81,228.44z
			 M15.05,336.21c-0.77-0.01-1.13,0.75-1.15,2.23c-4.48-1.54-6.71-3.08-6.69-4.59l8.99,0.11C16.18,335.48,15.79,336.22,15.05,336.21
			z M29.97,225.08c2.24,0.8,3.38-0.31,3.42-3.33c-1.51-0.02-2.25-0.38-2.24-1.15c0.01-0.74-0.76-1.13-2.24-1.15
			c-0.02,1.5-0.8,2.24-2.28,2.21C26.63,223.17,27.74,224.32,29.97,225.08z M19.24,273.3c1.51-2.97,1.9-3.35,1.14-1.11
			C19.57,274.42,19.22,274.81,19.24,273.3z M19.06,286.78L16.78,289L19.06,286.78z M31.73,263.34c0.73,0.79,1.1,1.91,1.09,3.38
			l-2.22-2.28C30.61,262.97,30.97,262.59,31.73,263.34z M20.73,331.78l-0.06,4.5C19.18,334.78,19.2,333.27,20.73,331.78z
			 M46.94,217.43c-1.55,3.01-1.17,3.74,1.09,2.26c2.27-1.45,3.39-0.7,3.35,2.29c-3.02-0.04-5.26-0.81-6.72-2.33
			c-1.49-1.5-3.74-1.52-6.75-0.09c2.91,6.05,6.25,8.34,10.03,6.88c3.74-1.43,8.64-2.13,14.64-2.06c0.08-5.97-0.67-7.5-2.19-4.53
			l-0.03,2.25c-3.01-1.51-5.23-3.05-6.69-4.59C52.19,216.02,49.94,216,46.94,217.43z M37.34,264.53l-2.25-0.02L37.34,264.53z
			 M25.08,343.08l2.24,0.03l-0.03,2.25l-2.25-0.03L25.08,343.08z M39.58,264.56l6.75,0.09c-1.53,1.5-3.4,2.59-5.66,3.3
			C38.41,268.7,38.04,267.56,39.58,264.56z M29.55,345.39l6.75,0.08c-0.04,3.03-1.18,4.48-3.43,4.45
			C30.62,349.9,29.51,348.42,29.55,345.39z M50.89,260.21c-1.53,1.5-3.79,2.2-6.78,2.16C44.13,260.89,46.39,260.15,50.89,260.21z
			 M36.47,331.98c3.01-1.43,3.39-1.43,1.13,0.02C35.33,333.48,34.94,333.47,36.47,331.98z M48.35,282.67
			c-2.98-3.03-4.45-3.43-4.48-1.19C43.84,283.73,45.31,284.13,48.35,282.67z M50.8,266.95c-1.55,3-2.67,2.99-3.37-0.04
			C46.69,263.91,47.82,263.93,50.8,266.95z M59.91,258.07c2.96,1.55,2.95,2.67-0.05,3.38C56.83,262.18,56.85,261.05,59.91,258.07z
			 M64.7,235.65c-0.04,3.02,2.19,4.53,6.68,4.59C71.42,237.24,69.19,235.7,64.7,235.65z M75.73,251.53c-4.5-0.06-9,0.66-13.52,2.07
			c0.02-1.47,1.53-3.71,4.58-6.69c2.95,3.06,5.93,3.83,8.97,2.36c3.01-1.43,6.77-2.16,11.27-2.1
			C83.98,250.16,80.23,251.59,75.73,251.53z M84.7,253.89c-0.04,3.02-1.57,4.48-4.56,4.44c-3.02-0.03-3.03,0.74-0.03,2.25
			c-3.04,1.48-6.41,1.44-10.11-0.13c-3.74-1.52-6.37-2.33-7.84-2.35c3.03-2.95,6.8-4.02,11.29-3.24
			C77.93,255.71,81.66,255.37,84.7,253.89z M71.58,224.5c-1.51-0.02-1.9,0.36-1.14,1.11c0.73,0.78,0.34,1.13-1.14,1.11
			C69.33,225.23,70.07,224.47,71.58,224.5z M68.85,262.69c-0.02,1.51-1.15,2.23-3.4,2.2c-2.25-0.03-2.63-0.77-1.09-2.26
			L68.85,262.69z M63.4,336.83c2.96,1.54,5.94,2.32,8.96,2.36c-0.04,3.02-1.95,4.12-5.66,3.3C62.94,341.71,61.84,339.83,63.4,336.83
			z M82.16,276.35c0.04-2.99-0.7-5.24-2.17-6.78l-6.8,4.42C76.18,274.03,79.16,274.84,82.16,276.35z M85.25,211.17
			c-1.51-0.02-2.26,0.75-2.28,2.23C84.45,213.42,85.23,212.68,85.25,211.17z M70.54,305.44c7.48,0.09,11.25-0.6,11.27-2.11
			l-11.24-0.15L70.54,305.44z M68.06,323.39c1.5-1.45,1.87-0.71,1.1,2.27C68.35,328.67,68.01,327.89,68.06,323.39z M95.34,213.56
			c2.23,1.53,4.82,2.3,7.84,2.35c-1.47-3.01-4.08-4.9-7.8-5.72c-3.75-0.79-6.4,0.3-7.91,3.28
			C90.47,212.02,93.11,212.05,95.34,213.56z M82.37,260.61l4.5,0.06c-0.02,1.52-1.16,2.24-3.4,2.21
			C81.21,262.84,80.83,262.11,82.37,260.61z M72.56,323.45l8.99,0.12c-0.02,1.52-1.54,2.23-4.52,2.2
			C74,325.72,72.54,324.96,72.56,323.45z M87.07,244.93l2.25,0.03l-0.03,2.25l-2.25-0.02L87.07,244.93z M91.91,218.01l2.24,0.03
			l0.03-2.24l-2.24-0.03L91.91,218.01z M111.74,249.74c1.46,1.53-0.03,2.25-4.52,2.2c-0.04,3.02,1.42,4.16,4.45,3.42
			c3-0.69,5.24-0.28,6.73,1.22c-4.54,2.96-9.05,3.65-13.52,2.07c-4.48-1.53-9.75-1.6-15.74-0.2c0.04-2.99,0.79-4.1,2.29-3.35
			c1.47,0.8,2.25-0.31,2.28-3.33c1.44,3.04,2.56,3.78,3.35,2.28c0.75-1.46,2.61-0.71,5.59,2.33c1.49-1.46,2.64-3.34,3.44-5.58
			C106.87,248.55,108.74,248.24,111.74,249.74z M76.88,337.01l4.5,0.06c-0.02,1.5-0.8,2.24-2.28,2.21
			C77.6,339.26,76.86,338.51,76.88,337.01z M103.06,224.9l-4.53,2.19C98.56,225.61,100.04,224.86,103.06,224.9z M103.21,213.66
			l2.25,0.03l0.03-2.25l-2.25-0.03L103.21,213.66z M107.36,240.7l-0.03,2.25l-2.28,2.21c-4.5-0.06-6-0.81-4.47-2.3
			C103.57,242.9,105.83,242.18,107.36,240.7z M114.51,209.31c-0.02,1.5,0.71,2.25,2.22,2.27c1.47,0.02,2.27-1.45,2.31-4.47
			C116.01,207.07,114.53,207.83,114.51,209.31z M99.66,314.81c3.01-1.43,3.39-1.43,1.12,0.01C98.52,316.3,98.13,316.29,99.66,314.81
			z M111.8,245.25c1.52-2.96,2.29-3.34,2.26-1.09C114.03,246.4,113.26,246.78,111.8,245.25z M123.07,243.15l-6.74-0.09l0.06-4.5
			C120.94,234.11,123.16,235.66,123.07,243.15z M123.53,207.16c-0.02,1.52,1.45,2.27,4.47,2.32c2.99,0.04,5.24-0.67,6.78-2.17
			c0.02-1.47-1.86-2.63-5.58-3.44C125.44,203.08,123.57,204.18,123.53,207.16z M106.35,319.39l2.24,0.03l-0.03,2.25l-2.24-0.03
			L106.35,319.39z M123.01,247.64c1.52-2.97,2.29-2.96,2.25,0.03C125.22,250.7,124.45,250.69,123.01,247.64z M127.45,252.2
			c1.47,0.02,1.85,0.8,1.1,2.26c-0.8,1.5-1.92,1.49-3.38-0.04l0.03-2.25L127.45,252.2z M119.93,312.82
			c0.04-2.99-0.72-4.51-2.19-4.52C114.67,311.27,115.43,312.76,119.93,312.82z M129.87,238.73c0.04-2.98,1.91-4.08,5.66-3.3
			c3.71,0.82,6.33,2.71,7.8,5.72C135.81,241.06,131.33,240.26,129.87,238.73z M136.96,211.84c1.44,3.04,2.21,3.05,2.25,0.03
			C139.25,208.88,138.48,208.87,136.96,211.84z M134.25,247.79c-3.02-0.04-2.62-0.78,1.16-2.24c3.74-1.42,5.63-0.66,5.59,2.33
			L134.25,247.79z M136.85,220.83l2.25,0.03l0.03-2.25l-2.24-0.03L136.85,220.83z M151.4,313.22c0.02-1.48,1.16-2.23,3.4-2.2
			c2.24,0.03,3.4-1.43,3.43-4.45c-6.05,2.94-11.29,3.61-15.77,2.04c-4.48-1.53-10.48-2.38-17.96-2.47
			c2.95,3.06,7.04,4.58,12.31,4.66C142.05,310.86,146.92,311.69,151.4,313.22z M134.23,250.04c1.49-1.46,2.26-1.45,2.25,0.02
			c-0.02,1.51,0.72,1.52,2.24,0.03c-0.02,1.51-1.16,2.62-3.42,3.33C133.05,254.16,132.67,253.04,134.23,250.04z M141.4,216.4
			l-0.03,2.25c1.46,1.53,2.23,1.54,2.25,0.02C143.64,217.2,142.88,216.41,141.4,216.4z M150.14,236.75
			c-1.53,1.49-3.39,1.47-5.62-0.08c-2.23-1.5-4.12-2.3-5.59-2.32C141.95,231.4,145.7,232.19,150.14,236.75z M147.8,243.46l4.49,0.06
			c-0.04,3.02-1.18,4.48-3.43,4.46C146.62,247.95,146.25,246.46,147.8,243.46z M164.02,206.56c1.48-0.72,4.5-0.29,8.98,1.24
			c0.02-1.47-0.36-2.25-1.1-2.26c-0.77-0.01-1.11-0.75-1.09-2.26c-3.06,2.99-5.31,3.31-6.76,1.04c-1.48-2.27-3-1.9-4.51,1.06
			C160.99,206.92,162.5,207.32,164.02,206.56z M144.8,301.89c-1.55,3-0.06,4.5,4.44,4.56c4.49,0.06,5.99-1.41,4.55-4.45
			c-1.49-1.5-2.61-1.51-3.37-0.04C149.63,303.47,147.77,303.45,144.8,301.89z M171.01,187.54c-1.53,1.48-3.79,2.2-6.77,2.16
			C164.25,188.22,166.51,187.49,171.01,187.54z M160.98,268.37c-3.04,1.47-4.51,1.07-4.48-1.18
			C156.52,264.94,157.99,265.34,160.98,268.37z M162.94,290.88c0.02-1.48-0.74-2.61-2.21-3.4c-1.5-0.76-2.24-0.38-2.26,1.09
			c1.47,0.02,2.24,0.42,2.23,1.16C160.69,290.5,161.42,290.86,162.94,290.88z M158.29,302.06l6.74,0.09
			C165.09,297.65,162.85,297.62,158.29,302.06z M189.51,322.71c-4.56,4.44-9.85,5.88-15.8,4.29c-5.99-1.56-11.98-3.14-17.93-4.72
			c7.5-1.38,14.26-2.42,20.29-3.12C182.05,318.5,186.53,319.69,189.51,322.71z M155.73,326.78l8.99,0.11
			c-0.02,1.51-1.93,2.61-5.66,3.3C155.28,330.91,154.17,329.77,155.73,326.78z M169.71,288.72c-1.53,1.5-0.03,2.25,4.47,2.31
			l0.03-2.25L169.71,288.72z M167.23,306.68c2.99,0.04,4.52-1.42,4.55-4.44l-4.5-0.06L167.23,306.68z M174.03,302.27
			c-0.04,3.02,1.44,3.04,4.49,0.06C175.55,299.31,174.07,299.29,174.03,302.27z M178.67,291.08l2.28-2.22l-4.49-0.06L178.67,291.08z
			 M191.04,203.53l2.24,0.03l0.03-2.24l-2.24-0.03L191.04,203.53z M185.88,255.2l4.5,0.06l-2.2-4.52c-0.02,1.51-0.8,2.24-2.28,2.22
			C184.4,252.93,184.39,253.7,185.88,255.2z M200.06,201.4c0.02-1.48-0.74-2.26-2.22-2.27l-0.03,2.25L200.06,201.4z M199.49,246.37
			c-1.53,1.5-2.66,1.48-3.37-0.04c-0.76-1.49-1.89-0.76-3.4,2.21c-0.02,1.51,1.09,2.26,3.35,2.28
			C198.31,250.86,199.45,249.4,199.49,246.37z M192.65,253.04c-0.04,3.02,1.42,4.51,4.44,4.55c2.99,0.04,4.52-1.42,4.55-4.44
			L192.65,253.04z M199.6,237.38c-1.51-0.01-2.25,0.36-2.26,1.1c-0.01,0.77-0.79,1.11-2.26,1.09
			C195.09,238.1,196.58,237.34,199.6,237.38z M206.78,203.74c0.04-2.98-1.07-4.5-3.32-4.54c-2.25-0.03-2.64,0.74-1.15,2.23
			C203.77,202.97,205.27,203.71,206.78,203.74z M202.37,196.94c2.97,1.55,5.22,1.19,6.76-1.03c1.5-2.24,3.76-2.56,6.76-1.04
			c0.04-2.99-1.46-3.74-4.47-2.31C208.38,194.03,205.38,195.5,202.37,196.94z M208.65,233c-3-1.52-5.98-2.32-8.96-2.37
			c0.04-2.99,1.91-4.08,5.66-3.3C209.07,228.16,210.17,230.04,208.65,233z M236.81,316.57c-3.06,2.98-6.45,4.41-10.17,4.36
			c-3.76-0.05-7.87-0.09-12.37-0.16c-4.48-1.53-9.36-1.98-14.6-1.31c-5.28,0.7-9.38-0.47-12.33-3.52c7.48,0.09,15.35,0.58,23.6,1.42
			C219.15,318.24,227.8,317.96,236.81,316.57z M221.42,201.68c5.24,0.07,9.37-1.36,12.43-4.34c-10.47-3.12-18.74-1.71-24.79,4.18
			C212.04,201.56,216.16,201.61,221.42,201.68z M215.37,235.33c-1.53,1.5-3.79,2.59-6.79,3.3c-3.03,0.73-4.49-0.41-4.46-3.43
			L215.37,235.33z M221.25,302.87l-0.06,4.5c-7.54,1.4-15.76,2.04-24.76,1.93c0.04-2.99,2.31-4.47,6.8-4.41
			c4.5,0.06,7.48,0.86,8.97,2.37C215.22,304.31,218.23,302.83,221.25,302.87z M218.17,192.64c4.5,0.06,6.76-0.65,6.77-2.16
			C220.44,190.43,218.19,191.17,218.17,192.64z M222.2,228.68c-3.06,2.99-6.06,3.68-9.02,2.14
			C213.24,226.32,216.24,225.61,222.2,228.68z M213.09,237.56c5.97,0.08,8.97,2.36,8.91,6.86c-3-1.52-4.48-1.54-4.5-0.06
			c-0.02,1.51-0.8,1.5-2.25-0.03c0.02-1.48-0.36-2.25-1.1-2.26C213.39,242.06,213.05,240.58,213.09,237.56z M350.31,234.82
			c-1.51-0.02-1.9,0.36-1.13,1.11c0.73,0.79,0.34,1.13-1.14,1.11c-3.02-0.04-4.88-0.79-5.6-2.32c-0.75-1.49-2.61-1.51-5.62-0.08
			c-1.51-0.02-2.27,1.49-2.31,4.47c-12.05,2.87-22.93,4.2-32.66,4.08c-9.77-0.12-19.89,0.51-30.38,1.86l-0.06,4.5
			c-3.02-0.04-4.48-1.53-4.44-4.55c-3.04,1.47-5.65,2.17-7.9,2.14c-2.25-0.03-4.15,0.72-5.65,2.18c-4.5-0.06-7.53,0.68-9.02,2.13
			c-7.5-1.57-13.86-1.65-19.11-0.25c-5.29,1.44-8.64-0.11-10.06-4.63c10.51-2.85,20.64-3.84,30.39-2.98
			c9.73,0.9,18.36-1.62,25.96-7.54c-8.99-0.12-16.52,0.56-22.51,1.96c-6.02,1.43-14.29,2.06-24.76,1.93
			c16.54-4.29,31.57-6.68,45.07-7.29c13.5-0.56,28.49-2.24,45.04-5.04c-1.55,3-4.2,4.44-7.93,4.4c-3.76-0.05-7.13-0.1-10.12-0.13
			c-3.06,2.98-6.79,3.67-11.27,2.1c-4.48-1.53-8.25-0.84-11.27,2.1c1.43,3.05,5.19,3.83,11.21,2.4c5.99-1.4,10.5-2.12,13.52-2.08
			l-0.06,4.5c2.99,0.04,4.52-1.41,4.56-4.44c7.46,1.61,15.34,0.97,23.64-1.94c8.25-2.88,13.88-2.81,16.86,0.21
			C345.06,233.28,347.31,233.3,350.31,234.82z M231.69,190.57l-4.5-0.06c-0.04,3.02,0.68,4.51,2.19,4.53
			C230.86,195.05,231.65,193.59,231.69,190.57z M209.75,322.97l-2.28,2.22C207.49,323.72,208.24,322.95,209.75,322.97z
			 M219.09,296.11c-0.04,3.02-1.57,4.48-4.56,4.43C211.55,297.52,213.08,296.03,219.09,296.11z M226.73,226.49l-2.28,2.22
			L226.73,226.49z M240.8,181.69c-3.02-0.04-4.16,0.72-3.4,2.21C238.12,185.42,239.25,184.69,240.8,181.69z M228.63,253.5
			l-2.28,2.21C226.37,254.24,227.12,253.48,228.63,253.5z M221.31,298.38l2.25,0.03l2.25,0.03l-2.28,2.23
			C222.02,300.64,221.29,299.89,221.31,298.38z M227.99,302.96l-0.03,2.25l-2.25-0.03C225.74,303.7,226.49,302.94,227.99,302.96z
			 M231.42,298.51c2.25,0.03,3.35,1.56,3.31,4.54l-6.74-0.09C228.03,299.98,229.17,298.48,231.42,298.51z M234.62,312.05
			c2.97,1.54,6.34,1.58,10.12,0.13c3.74-1.43,7.11-0.65,10.09,2.38C244.29,317.44,237.55,316.58,234.62,312.05z M246.16,289.7
			l-6.75-0.08C242.36,292.68,244.6,292.71,246.16,289.7z M234.51,321.04c1.48,0.02,2.24,0.8,2.22,2.28l-2.25-0.03L234.51,321.04z
			 M243.53,318.91c4.5,0.06,6.73,0.86,6.71,2.33c0.02-1.47-1.1-1.49-3.37-0.04C244.61,322.68,243.49,321.93,243.53,318.91z
			 M250.62,292.01l-2.22-2.28C248.37,292.76,249.09,293.5,250.62,292.01z M253.05,278.55c1.43,3.05,2.21,3.06,2.25,0.03
			C255.34,275.59,254.56,275.58,253.05,278.55z M267.69,188.79c0.02-1.48,0.77-1.86,2.27-1.11c1.46,0.8,2.23,1.93,2.2,3.41
			c-3.04,1.47-4.17,1.46-3.37-0.04C269.55,189.58,269.17,188.81,267.69,188.79z M272.22,186.6c0.04-2.99,1.51-2.97,4.5,0.06
			L272.22,186.6z M270.66,308.02c-0.04,3.02,2.2,4.16,6.7,3.45c4.51-0.67,8.24-1.01,11.26-0.97c-3.06,2.98-6.8,4.06-11.29,3.23
			c-4.49-0.79-7.52,0.29-9.04,3.26c-2.98-3.03-5.57-4.18-7.83-3.48c-2.26,0.75-4.88-0.42-7.82-3.47c3.01-1.43,5.99-1.39,8.99,0.11
			C264.6,311.69,267.6,310.99,270.66,308.02z M270.66,220.3c2.24,0.03,3.35,1.55,3.31,4.54l-4.47-2.3
			C268.02,221.04,268.41,220.28,270.66,220.3z M266.88,251.74l-2.28,2.22C264.62,252.49,265.37,251.72,266.88,251.74z
			 M261.55,316.89c-0.02,1.5-1.16,2.62-3.42,3.33c-2.26,0.74-3.37-0.39-3.33-3.41c1.5-1.46,2.27-1.45,2.25,0.03
			C257.03,318.34,258.51,318.36,261.55,316.89z M268.87,272c1.49-1.46,3.73-0.69,6.72,2.35c3.02-2.96,6.03-4.43,9.05-4.39
			c2.98,0.04,6.75,0.09,11.24,0.14C283.94,263.97,274.94,264.6,268.87,272z M275.42,287.83c-1.55,3-1.18,4.48,1.07,4.51
			c2.25,0.03,3.39-1.43,3.43-4.45L275.42,287.83z M294.44,207.11c1.51-2.96,2.29-2.95,2.25,0.03
			C296.65,210.16,295.88,210.15,294.44,207.11z M302.38,201.6c-2.24-0.77-4.14-0.41-5.64,1.05c1.54-4.48,5.31-5.16,11.27-2.1
			C306.49,202.04,304.62,202.4,302.38,201.6z M295.91,267.85c7.47,1.61,13.07,2.8,16.82,3.59c3.72,0.82,9.35-0.23,16.91-3.16
			c-4.5-0.06-6.73-0.82-6.72-2.33c2.99,0.04,6.75,0.09,11.25,0.15c4.5,0.06,8.24-1.37,11.3-4.35c-10.52,1.38-19.14,2-25.88,1.91
			C312.83,263.57,304.94,264.98,295.91,267.85z M315.03,180.4l-4.5-0.06c-1.53,1.5-1.15,2.24,1.1,2.27
			C313.87,182.63,315,181.91,315.03,180.4z M299.92,306.14l-8.99-0.11c0.04-2.99,1.53-4.48,4.55-4.44
			C298.47,301.62,299.96,303.15,299.92,306.14z M290.84,312.77c2.98,0.04,4.48,0.82,4.47,2.3
			C290.81,315.02,289.31,314.25,290.84,312.77z M312.52,200.6c1.46,1.53-0.03,2.25-4.53,2.19
			C308.01,201.32,309.5,200.56,312.52,200.6z M315.11,173.65c1.48,0.02,2.26-0.33,2.27-1.1c0.01-0.73,1.48-0.33,4.48,1.18
			c0.04-2.99-1.45-4.52-4.43-4.55C314.4,169.15,313.64,170.65,315.11,173.65z M323.9,189.51c2.97,1.54,1.83,2.65-3.41,3.32
			c-5.28,0.71-7.87-0.45-7.83-3.47c1.48,0.02,3.37,0.43,5.61,1.19C320.51,191.36,322.38,190.99,323.9,189.51z M313.32,313.06
			c-3.02-0.04-5.62,0.31-7.88,1.02c-2.26,0.74-4.89,0.32-7.86-1.22c1.5-1.46,4.53-2.55,9.04-3.26
			C311.12,308.92,313.36,310.07,313.32,313.06z M309.75,241.04l2.25,0.03c0.02-1.47-0.74-2.26-2.22-2.28L309.75,241.04z
			 M304.67,285.96c4.52-1.42,9.76-2.13,15.77-2.05C312.98,279.32,307.74,280.03,304.67,285.96z M330.13,230.07
			c-2.98-3.03-5.96-3.46-8.98-1.24c-3.05,2.21-5.29,1.83-6.73-1.21C321.96,223.21,327.18,224.06,330.13,230.07z M319.29,198.44
			c0.02-1.47,0.76-1.86,2.26-1.1c1.47,0.79,2.98,0.43,4.51-1.07C324.54,197.77,322.28,198.48,319.29,198.44z M304.44,303.94
			l2.24,0.03l-0.03,2.25l-2.24-0.03L304.44,303.94z M330.88,171.6c1.48,0.02,2.26-0.71,2.28-2.22
			C331.65,169.36,330.9,170.13,330.88,171.6z M328.4,189.57c0.02-1.48,1.15-2.24,3.4-2.21c2.25,0.03,3.36,0.82,3.34,2.3
			c-3.04,1.46-4.52,1.84-4.51,1.06C330.65,189.98,329.88,189.59,328.4,189.57z M332.84,194.12l4.49,0.06l-0.06,4.5l-4.49-0.06
			L332.84,194.12z M320.12,308.65c5.97,0.08,8.97,1.62,8.94,4.62c-1.49-1.5-3.34-2.3-5.59-2.33
			C321.22,310.91,320.1,310.15,320.12,308.65z M329.43,284.03l-4.5-0.06c-1.55,3.01-1.18,4.48,1.07,4.52
			C328.25,288.51,329.4,287.05,329.43,284.03z M344.17,187.52l-2.28,2.22C341.91,188.26,342.66,187.5,344.17,187.52z M359.77,198.96
			c-2.99-3.03-6.35-3.45-10.1-1.25c-3.79,2.2-6.41,1.04-7.83-3.48c2.97,1.55,5.96,1.59,8.99,0.12
			C353.83,192.91,356.8,194.42,359.77,198.96z M359.94,185.48c-1.55,3-3.81,4.09-6.79,3.28c-3.01-0.76-5.99-1.2-8.98-1.23
			c1.51-2.97,3.77-3.68,6.77-2.16C353.91,186.9,356.9,186.94,359.94,185.48z M351.03,178.61l0.03-2.25l0.03-2.25
			c-3.06,2.98-4.54,2.96-4.5-0.06C346.55,177.08,348.01,178.56,351.03,178.61z M353.99,297.84c1.5-1.46,3.71,0.82,6.66,6.83
			c-3.02-0.04-7.14,0.29-12.38,0.96c-5.28,0.71-9.4,1.01-12.38,0.97c1.52-2.96,0.79-4.1-2.21-3.4c-3.03,0.73-4.49-0.41-4.46-3.43
			c8.99,0.11,14.24-0.55,15.77-2.04c1.48,0.02,2.24,0.8,2.22,2.27c-0.02,1.52,0.71,2.26,2.22,2.28c1.48,0.02,2.26-0.33,2.27-1.1
			c0.01-0.74,1.49-1.1,4.51-1.07L353.99,297.84z M332.87,279.57c0.72,1.52,1.85,0.8,3.4-2.2
			C333.25,277.34,332.11,278.09,332.87,279.57z M350.31,234.82c-1.47-3-1.07-3.74,1.16-2.23
			C353.69,234.13,353.29,234.86,350.31,234.82z M338.17,304.38l2.25,0.03c1.47,0.02,2.26-0.7,2.28-2.21
			C339.67,302.15,338.19,302.9,338.17,304.38z M364.67,167.54c-3-1.51-4.13-1.52-3.37-0.04
			C362.01,169.02,363.14,169.03,364.67,167.54z M366.54,196.8c-1.49-1.5-3-1.9-4.48-1.18c-1.53,0.75-1.51-0.37,0.04-3.37
			C365.09,192.29,366.58,193.82,366.54,196.8z M364.55,176.53c1.51-2.96,2.29-2.95,2.25,0.03
			C366.76,179.58,365.99,179.57,364.55,176.53z M359.33,232.69c1.46,1.53,2.57,1.93,3.36,1.17c0.75-0.73,1.12,0.4,1.08,3.38
			c-3-1.51-4.13-1.52-3.37-0.04c0.72,1.53-0.42,2.25-3.4,2.21c-1.47-2.99-1.46-4.13,0.04-3.37
			C358.5,236.83,359.29,235.71,359.33,232.69z M347.28,295.5l2.24,0.03l-0.03,2.25l-2.24-0.03L347.28,295.5z M377.49,219.43
			c-0.04,3.02-1.95,4.47-5.68,4.42c-3.76-0.05-6.38-0.82-7.84-2.35c0.04-2.99,1.52-3.7,4.53-2.19
			C371.47,220.87,374.45,220.9,377.49,219.43z M368.79,196.83c1.51-2.97,2.29-3.35,2.26-1.09
			C371.02,197.99,370.24,198.36,368.79,196.83z M379.06,184.59c0.75-0.72,2.62-1.08,5.64-1.05c-4.55,4.44-8.32,4.39-11.24-0.15
			C376.42,184.95,378.28,185.35,379.06,184.59z M356.1,309.11c1.51-2.97,2.29-2.96,2.25,0.03
			C358.31,312.16,357.53,312.15,356.1,309.11z M368.18,244.05c3.03-2.95,4.54-3.32,4.51-1.08
			C372.66,245.23,371.15,245.6,368.18,244.05z M389.91,302.8c-3.06,2.98-6.79,3.28-11.26,0.98c-4.47-2.31-8.97-1.97-13.51,0.95
			c0.04-2.98-1.07-4.52-3.31-4.54c-2.25-0.03-2.63-0.77-1.09-2.26C368.23,298.02,377.94,299.65,389.91,302.8z M372.88,228.36
			c1.47,0.02,2.23,1.54,2.19,4.53l-2.22-2.28L372.88,228.36z M365.47,280c-1.53,1.49-0.81,3.02,2.19,4.52
			c3-1.43,5.65-2.17,7.89-2.14c2.25,0.03,4.13-1.42,5.68-4.42c-3.04,1.47-5.65,1.82-7.89,1.02
			C371.11,278.2,368.47,278.56,365.47,280z M381.87,228.48c-0.02,1.51-1.54,2.22-4.53,2.19l2.28-2.22L381.87,228.48z M391.39,188.13
			c2.95,3.06,5.19,3.82,6.71,2.34c1.5-1.46,3-0.71,4.47,2.3c-4.44-4.55-6.71-3.08-6.8,4.41c-3.02-0.03-4.88-0.81-5.59-2.32
			c-0.75-1.48-2.61-2.28-5.59-2.32c0.04-2.99,1.17-3.36,3.39-1.08c2.22,2.28,4.81,3.44,7.83,3.47c0.04-2.99-0.72-4.12-2.21-3.4
			C392.07,192.28,391.35,191.15,391.39,188.13z M388.76,217.33l-2.28,2.22l0.03-2.25L388.76,217.33z M393.72,181.41
			c1.46,1.53,2.96,2.29,4.47,2.31c-0.02,1.51-1.15,2.23-3.4,2.21C392.54,185.89,392.17,184.41,393.72,181.41z M390.9,226.35
			l-0.03,2.25l-2.28,2.21c0.02-1.48-0.75-2.26-2.22-2.27C386.39,227.06,387.87,226.31,390.9,226.35z M402.23,219.75
			c-1.53,1.49-3.05,1.85-4.51,1.06c-1.5-0.76-3.01-0.39-4.51,1.07l-2.22-2.28C394.03,215.14,397.79,215.2,402.23,219.75z
			 M390.9,226.35l2.24,0.03l-0.03,2.25l-2.24-0.03L390.9,226.35z M477.72,294.93c-3.08,4.46-6.8,4.42-11.24-0.15
			c2.95,3.06,6.3,4.58,10.06,4.63c3.72,0.05,6.38-1.4,7.93-4.4c4.46,3.08,9.31,3.14,14.61,0.19c5.28-2.92,10.89-2.85,16.87,0.22
			c-3.06,2.98-8.31,4.04-15.78,3.18c-7.51-0.84-12.76,0.22-15.78,3.16l-24.73-0.32l0.06-4.5c-7.52-0.1-13.89,0.6-19.15,2
			c-5.29,1.44-11.63,0.63-19.08-2.5c-0.02,1.52,0.71,2.26,2.22,2.28c-7.53,1.41-14.63,0.94-21.34-1.4
			c-6.71-2.34-13.81-5.03-21.26-8.15c10.51-2.85,21.02-3.11,31.5-0.72c10.44,2.38,19.4,5.14,26.88,8.22
			c1.48,0.02,2.27-1.44,2.31-4.47c2.94,3.06,5.19,3.44,6.72,1.22c1.51-2.24,3.75-1.82,6.73,1.21c1.48,0.02,2.27-1.45,2.31-4.47
			C465.02,290.27,471.75,291.86,477.72,294.93z M404.97,181.55c-3.06,2.99-4.93,3.7-5.65,2.18
			C398.56,182.24,400.47,181.49,404.97,181.55z M390.55,253.33l-0.06,4.5c2.97,1.55,7.08,1.6,12.37,0.16
			c5.25-1.4,10.16-2.85,14.68-4.31c-2.99-3.03-7.09-3.46-12.36-1.28C399.88,254.58,395.03,254.9,390.55,253.33z M388.04,273.53
			l2.28-2.21C388.8,271.3,388.06,272.05,388.04,273.53z M415.66,224.42c-3.04,1.47-6.43,2.94-10.18,4.37
			c-3.78,1.46-6.4,0.68-7.84-2.35c2.97,1.55,5.96,1.19,9.01-1.01C409.67,223.21,412.66,222.91,415.66,224.42z M416.33,172.7
			c-0.04,3.02-0.82,3.75-2.28,2.23c-1.49-1.5-3.73-2.3-6.72-2.34C408.83,171.13,411.85,171.17,416.33,172.7z M413.96,181.67
			c-1.53,1.49-3.79,2.2-6.78,2.16C407.26,177.86,409.52,177.11,413.96,181.67z M431.83,190.9c1.47,0.02,1.13-0.34-1.11-1.15
			c-2.24-0.76-2.61-1.89-1.08-3.38c2.96,1.54,6.33,1.97,10.1,1.25c3.74-0.69,5.61,1.2,5.55,5.7c-7.54,1.41-13.89,0.94-19.09-1.37
			c-5.25-2.32-10.09-2.73-14.6-1.31C414.62,187.69,421.36,187.77,431.83,190.9z M416.33,172.7c3-1.43,7.12-2.15,12.39-2.09
			c5.24,0.07,10.13-0.6,14.65-2.06l-4.53,2.19l-0.03,2.24c-2.98-3.02-6.7-3.45-11.22-1.26C423.05,173.91,419.29,174.26,416.33,172.7
			z M416.21,181.69c-1.49-1.49-0.75-2.26,2.28-2.22c2.98,0.04,3.71,0.82,2.22,2.28L416.21,181.69z M425.23,179.56l-2.28,2.22
			C422.97,180.3,423.72,179.54,425.23,179.56z M418.02,215.46l2.25,0.02l4.5,0.06c-0.02,1.51-1.15,2.23-3.4,2.21
			C419.12,217.72,418,216.97,418.02,215.46z M459.02,175.5c-3.06,2.98-7.58,4.39-13.55,4.32c-6.01-0.08-11.24-0.15-15.74-0.2
			c4.51-1.41,9.02-2.13,13.52-2.07C447.75,177.6,452.99,176.93,459.02,175.5z M424.59,229.03c1.51-2.98,2.29-2.97,2.25,0.03
			C426.81,232.08,426.03,232.07,424.59,229.03z M419.49,276.19c-1.51-0.01-2.25,0.74-2.27,2.22
			C418.69,278.43,419.47,277.7,419.49,276.19z M424.28,253.77c7.48,0.09,14.98-0.54,22.52-1.96c-1.48-3.01-5.23-3.79-11.22-2.4
			C429.55,250.85,425.77,252.31,424.28,253.77z M445.64,166.34c2.95,3.06,4.47,2.3,4.52-2.2
			C447.14,164.1,445.66,164.86,445.64,166.34z M465.56,191.33c-3-1.52-5.6-1.55-7.87-0.1c-2.27,1.47-4.9,0.7-7.84-2.35
			c1.51-2.97,4.16-4.06,7.91-3.28C461.47,186.42,464.09,188.32,465.56,191.33z M447.28,213.58c3-1.44,4.86-1.42,5.62,0.08
			c0.72,1.51,2.58,1.54,5.62,0.07c-0.04,3.02-1.56,3.73-4.53,2.19C451,214.4,448.76,213.6,447.28,213.58z M465.9,164.34l-8.99-0.11
			c-0.04,3.03,1.07,4.16,3.33,3.42C462.5,166.93,464.38,165.83,465.9,164.34z M444.46,258.52l2.25,0.03
			c0.02-1.47-0.75-2.26-2.22-2.27L444.46,258.52z M463.74,157.57c4.5,0.06,6.75-0.65,6.77-2.16
			C466.02,155.36,463.76,156.1,463.74,157.57z M522.03,171.81c-21.09,5.74-41.34,6.99-60.77,3.72c7.48,0.09,16.49-0.52,27.01-1.9
			C498.76,172.29,510.02,171.66,522.03,171.81z M458.73,197.99c1.51-2.97,2.29-2.96,2.25,0.03
			C460.94,201.04,460.16,201.03,458.73,197.99z M461.15,184.53c0.04-2.99,0.4-3.73,1.15-2.24c0.72,1.52,1.83,2.28,3.34,2.3
			l-2.25-0.03L461.15,184.53z M460.69,220.5l-2.28,2.21C458.43,221.25,459.18,220.48,460.69,220.5z M455.72,256.42l4.5,0.06
			c0.02-1.48-1.48-2.27-4.47-2.31L455.72,256.42z M467.92,182.36c2.99,0.04,4.49,0.84,4.47,2.32l-4.5-0.06L467.92,182.36z
			 M460.05,269.96c0.04-2.98-0.74-2.99-2.25-0.03C459.24,272.97,460.01,272.98,460.05,269.96z M457.43,299.17
			c-1.55,3-2.68,3.34-3.39,1.08C453.29,297.99,454.42,297.65,457.43,299.17z M457.72,276.69l-0.03,2.25
			c1.45,1.53,2.23,1.15,2.26-1.09c0.03-2.25-0.73-3.39-2.2-3.41L457.72,276.69z M471.55,249.88c-1.49-1.49-3.73-2.3-6.72-2.33
			c-1.55,3-0.83,4.49,2.19,4.52C470.01,252.11,471.53,251.39,471.55,249.88z M476.92,182.48l-2.27,2.22
			C474.66,183.22,475.41,182.46,476.92,182.48z M462.3,269.99c-0.04,3.02,2.19,4.53,6.69,4.59c0.04-2.98-0.33-4.5-1.07-4.51
			c-0.77-0.01-1.11-0.75-1.09-2.26c-1.51-0.01-2.25,0.36-2.27,1.1C464.55,269.68,463.77,270.01,462.3,269.99z M483.2,218.54
			c-1.53,1.49-4.53,2.19-9.02,2.13C474.2,219.2,477.19,218.47,483.2,218.54z M476.57,209.46c1.48,0.02,2.24,0.8,2.22,2.27
			l-2.25-0.03L476.57,209.46z M469.1,265.58c2.93,4.53,7.4,6.11,13.43,4.67c5.99-1.39,11.25-0.59,15.71,2.45
			c1.51-2.97,3.42-3.68,5.65-2.18c2.23,1.54,4.1,0.83,5.65-2.18c-7.54,1.42-14.27,0.6-20.2-2.51
			C483.37,262.78,476.62,262.7,469.1,265.58z M580.4,179.31c1.46,1.54,3.71,1.56,6.75,0.09c-6.05,2.94-14.33,4.69-24.81,5.3
			c-10.51,0.64-17.24-1.34-20.16-5.88c-3.06,2.99-7.92,4.04-14.66,3.19c-6.73-0.83-12.36-0.52-16.87,0.9
			c-0.02,1.51,0.71,2.26,2.22,2.28c1.47,0.02,2.24,0.8,2.22,2.28c-6.05,2.94-7.54,1.41-4.44-4.56c-3.02-0.03-7.53,0.68-13.52,2.08
			c-6.03,1.43-10.51,0.64-13.46-2.43c10.49-1.34,20.62-1.98,30.38-1.86c9.73,0.12,20.61-1.2,32.66-4.07
			c1.47,0.02,2.24,0.42,2.23,1.16c-0.01,0.77,0.72,1.13,2.23,1.15c3.01-1.44,6.38-1.4,10.12,0.13c3.71,1.56,5.61,0.85,5.65-2.17
			l2.22,2.27c2.98,0.04,4.52-1.42,4.55-4.44C576.68,176.28,578.91,177.81,580.4,179.31z M478.76,213.99
			c1.52-2.96,2.29-2.96,2.25,0.03C480.97,217.04,480.2,217.03,478.76,213.99z M476.05,249.93c4.51-1.41,7.89-1.76,10.13-1
			c2.24,0.81,4.84,1.19,7.86,1.23c-1.47-3.01-4.09-4.54-7.82-4.59C482.46,245.52,479.08,246.98,476.05,249.93z M494.12,243.41
			l2.25,0.03c1.49-1.46,1.16-2.58-1.08-3.38c-2.24-0.77-2.63-0.4-1.14,1.1L494.12,243.41z M503.58,207.55
			c2.99,0.04,4.48,1.57,4.44,4.55c0.02-1.47-0.75-1.87-2.23-1.15C504.27,211.71,503.54,210.58,503.58,207.55z M500.93,239
			c-1.51-0.02-2.26,0.74-2.28,2.22C500.12,241.24,500.91,240.52,500.93,239z M516.46,167.25c-0.81,3.01-1.16,3-1.12-0.02
			C516.86,164.26,517.24,164.26,516.46,167.25z M520.4,211.15c-3.75-0.79-6.37-1.95-7.83-3.48c3-1.43,5.65-1.79,7.89-1.02
			c2.24,0.8,5.61,1.19,10.1,1.25C527.5,210.89,524.11,211.97,520.4,211.15z M517.36,185.25l4.5,0.06l-2.28,2.23l-2.24-0.03
			L517.36,185.25z M536.93,237.22c1.44,3.04,3.32,3.81,5.59,2.32c2.27-1.45,3.38-0.69,3.35,2.29c-7.52-0.09-12-0.88-13.46-2.42
			c-1.53,1.5-1.16,2.24,1.09,2.26c2.25,0.03,2.59,0.81,1.09,2.26c-3-1.51-7.1-2.34-12.33-2.41c-5.27-0.07-9.4,1.39-12.43,4.35
			c7.44,3.12,13.44,3.93,17.96,2.48c4.52-1.43,10.49-1.35,17.99,0.23c0.04-2.99,2.3-4.47,6.8-4.42c4.5,0.06,8.24-1.37,11.3-4.35
			c-6.01-0.08-9.74-2.37-11.15-6.89c-1.55,3-4.2,4.1-7.92,3.28C541.07,235.41,538.43,235.76,536.93,237.22z M522.06,169.56
			l6.75,0.09c-0.02,1.52-1.16,2.62-3.42,3.33C523.13,173.73,522.02,172.59,522.06,169.56z M509.54,268.35
			c-0.04,3.02,0.69,4.16,2.21,3.4c1.48-0.72,3.73-0.3,6.73,1.21l0.06-4.5c-1.49-1.5-2.61-1.51-3.37-0.04
			C514.37,269.93,512.51,269.9,509.54,268.35z M544.57,167.61c-7.5-1.58-13.47-1.65-17.99-0.23c1.53-4.48,4.19-6.3,7.94-5.52
			C538.24,162.67,541.59,164.58,544.57,167.61z M580.55,168.07c-7.54,1.42-15.78,2.82-24.79,4.18c-9.01,1.39-16.52,0.56-22.46-2.54
			c7.48,0.1,14.23-0.17,20.25-0.86C559.53,168.18,568.53,167.91,580.55,168.07z M552.96,214.94c-0.02,1.5,2.96,2.29,8.96,2.36
			c1.44,3.04-0.06,4.5-4.55,4.44c-4.5-0.06-5.99-1.55-4.44-4.55c-3.04,1.47-6.03,1.43-8.99-0.11c-3.04,1.47-3.79,2.21-2.28,2.22
			c1.47,0.02,1.46,0.79-0.03,2.25c-3.02-0.03-5.62,0.31-7.89,1.02c-2.26,0.75-4.88-0.4-7.83-3.47c0.04-2.99,1.18-4.1,3.41-3.33
			c2.24,0.81,4.09,1.96,5.58,3.45c2.99,0.04,5.99-1.4,9.05-4.38c3.02-2.95,6.78-2.9,11.24,0.15L552.96,214.94z M523.41,239.29
			l4.5,0.06c0.02-1.47-1.48-2.27-4.47-2.3L523.41,239.29z M539.55,208.02c-1.55,3.01-2.68,3.74-3.4,2.21
			c-0.76-1.49-2.62-1.51-5.62-0.08c0.04-2.98,1.18-4.48,3.43-4.45C536.21,205.73,538.07,206.53,539.55,208.02z M535.37,183.23
			c0.02-1.48,0.37-1.12,1.11,1.14C537.19,186.62,536.81,186.27,535.37,183.23z M537.6,185.51c0.02-1.48,0.38-2.25,1.16-2.24
			c0.73,0.01,1.11,0.79,1.09,2.27L537.6,185.51z M543.62,154.1c-0.77-0.01-1.13,0.75-1.15,2.23l2.25,0.03
			C544.74,154.88,544.36,154.11,543.62,154.1z M525.14,279.8c1.51-2.97,1.91-3.35,1.14-1.11
			C525.47,280.93,525.12,281.31,525.14,279.8z M551.43,158.7c0.02-1.47-0.74-2.25-2.22-2.28c-1.51-0.02-2.26,0.74-2.27,2.21
			l2.24,0.03L551.43,158.7z M538.78,268.73c4.44,4.55,8.92,5.38,13.46,2.42c-1.47-3-3.7-4.54-6.69-4.59
			C542.53,266.52,540.27,267.27,538.78,268.73z M555.32,205.97c0.02-1.48,1.15-2.23,3.4-2.2c2.25,0.03,2.59,0.8,1.09,2.26
			L555.32,205.97z M542.95,293.52c1.51-2.97,2.29-2.96,2.25,0.03C545.16,296.57,544.39,296.56,542.95,293.52z M547.5,289.08
			c2.99,0.04,4.85,0.44,5.61,1.19c0.72,0.79,2.58,1.16,5.61,1.2l0.06-4.5C554.3,285.45,550.54,286.13,547.5,289.08z M566.56,206.12
			l-2.24-0.03L566.56,206.12z M698.5,264.04c-0.04,3.02,0.68,4.5,2.19,4.52c-3.04,1.47-4.16,1.08-3.36-1.16
			c0.77-2.23-0.34-3.37-3.33-3.42c-4.54,2.96-7.92,3.66-10.15,2.12c-2.23-1.51-4.84-3.05-7.81-4.6
			c-13.57,5.84-30.08,5.62-49.46-0.64c1.48,0.02-0.03,2.25-4.58,6.69c-4.46-3.04-10.08-3.5-16.85-1.33
			c-6.77,2.16-11.65,1.74-14.6-1.32c-7.62,7.42-18.87,8.02-33.75,1.81c-0.02,1.52-0.42,2.25-1.16,2.24
			c-0.77-0.01-1.14,0.76-1.15,2.23c2.98,0.04,5.23,0.46,6.73,1.21c1.47,0.8,3.72,0.44,6.76-1.04c-0.04,3.02,0.29,4.5,1.07,4.51
			c0.74,0.01,1.11,0.79,1.1,2.28c7.52-2.9,13.54-3.95,18.03-3.15c4.48,0.83,10.44,2.03,17.94,3.61c12.08-7.33,24.83-7.17,38.22,0.49
			c1.5-1.47,2.63-2.23,3.41-2.22c0.73,0.01,1.87-0.71,3.4-2.2c-10.46-3.12-15.67-5.43-15.65-6.95c3-1.43,7.49-1.02,13.47,1.31
			c5.94,2.32,10.45,2.03,13.51-0.96c2.93,4.53,6.28,6.48,10.04,5.76c3.73-0.69,7.09,0.48,10.08,3.5c-3.02-0.04-4.51,0.72-4.53,2.2
			c1.46,1.53,2.97,1.55,4.5,0.06c1.49-1.46,3.73-0.69,6.71,2.33c1.52-2.96,6.83-5.89,15.85-8.8l-0.06,4.5
			c-6.01-0.08-9.01,1.4-9.05,4.39c4.52-1.43,8.64-2.88,12.43-4.35c3.74-1.43,8.64-2.87,14.67-4.31c-1.49-1.49-1.1-2.26,1.15-2.23
			c2.25,0.02,3.39-1.43,3.43-4.45c-5.97-3.07-11.19-4.25-15.69-3.58C707.5,263.8,703,264.1,698.5,264.04z M623.12,179.86
			c-3.04,1.48-7.53,0.68-13.46-2.42c-5.97-3.06-11.2-3.13-15.74-0.2c-3-1.51-5.98-1.93-8.98-1.24c-3.03,0.74-6.02,0.31-8.98-1.24
			C596.98,172.04,612.7,173.76,623.12,179.86z M574.81,264.69l-11.25-0.15c-1.55,3-0.06,4.5,4.44,4.55
			C572.5,269.16,574.77,267.71,574.81,264.69z M560.97,291.5c1.44,3.04,2.21,3.05,2.25,0.03
			C563.26,288.54,562.48,288.53,560.97,291.5z M580.05,206.29l-2.22-2.28c0.04-2.99,1.52-2.96,4.5,0.06L580.05,206.29z
			 M611.59,202.2c-3.06,2.98-7.19,4.06-12.41,3.22c-5.26-0.81-10.1-1.26-14.6-1.32c3.02-2.95,7.53-4.01,13.53-3.19
			C604.08,201.75,608.57,202.16,611.59,202.2z M576.82,282.71c-0.02,1.51,1.1,2.27,3.34,2.3c2.25,0.03,4.12-0.69,5.65-2.18
			c-1.51-0.02-3.75-0.79-6.72-2.33C576.1,278.97,575.35,279.71,576.82,282.71z M590.09,213.16c0.74,0,1.11,0.79,1.09,2.27
			l-2.24-0.03c-1.49-1.5-1.47-3,0.06-4.5C588.98,212.42,589.31,213.15,590.09,213.16z M590.29,285.14l2.25,0.02l0.03-2.25
			l-2.25-0.03L590.29,285.14z M661.4,175.85l-0.03,2.25l-2.25-0.03c-1.51-0.02-2.24-0.77-2.22-2.28
			c-6.05,2.94-13.18,3.21-21.37,0.85c-8.23-2.35-16.08-3.58-23.57-3.67c7.48,0.1,17.61-0.51,30.38-1.86
			c12.74-1.31,22.83,1.07,30.27,7.13C666.61,178.17,662.86,177.39,661.4,175.85z M606.57,242.61c4.44,4.56,6.69,4.59,6.75,0.09
			c-3.02-0.04-4.87-0.8-5.59-2.33C606.97,238.89,606.61,239.63,606.57,242.61z M618.34,202.29c-1.53,1.5-2.65,1.48-3.37-0.04
			C614.21,200.76,615.34,200.77,618.34,202.29z M706.54,162.94c-7.52-0.1-13.88,0.21-19.12,0.87c-5.28,0.71-11.63,0.24-19.1-1.37
			c-4.5-0.06-9.39,0.65-14.64,2.06c-5.29,1.44-11.66,2.09-19.14,2c-6.01-0.08-8.99-0.86-8.97-2.37c5.97,0.08,12.37,0.16,19.11,0.25
			c6.75,0.09,13.13-1.31,19.17-4.25c2.97,1.55,6.33,1.97,10.1,1.25c3.74-0.68,7.1-0.25,10.11,1.26
			C696.08,159.82,703.56,159.92,706.54,162.94z M617.79,245l2.25,0.03l0.03-2.25l-2.25-0.03L617.79,245z M658.87,198.31
			c-1.55,3.01-6.07,4.81-13.56,5.45c-7.53,0.68-12.01-0.51-13.45-3.55c5.97,0.08,10.47-0.22,13.5-0.95
			C648.36,198.56,652.86,198.23,658.87,198.31z M633.61,238.46c0.02-1.48-1.08-2.61-3.33-3.42c-2.24-0.77-3.37-0.4-3.39,1.08
			l-0.03,2.25L633.61,238.46z M633.99,209.23l-0.03,2.25l2.25,0.03C636.23,210.03,635.47,209.25,633.99,209.23z M631.34,240.68
			l-0.06,4.5L631.34,240.68z M645.23,209.38c-3.01-1.51-4.13-1.17-3.39,1.09C642.55,212.72,643.68,212.38,645.23,209.38z
			 M649.64,216.19c1.46,1.52,2.57,2.28,3.35,2.29c0.74,0,1.85,0.8,3.34,2.29c-3.04,1.47-6.02,0.7-8.97-2.37
			c-1.49-1.5-1.1-1.49,1.13,0.01C650.72,219.96,651.08,219.22,649.64,216.19z M661.69,153.38c2.99,0.04,4.51-0.68,4.53-2.19
			l-4.5-0.06L661.69,153.38z M653.85,238.72c-1.47-3-1.08-3.73,1.15-2.23c2.23,1.54,3.37,0.81,3.4-2.21
			c-3.02-0.04-5.28,0.32-6.76,1.04C650.13,236.07,650.85,237.21,653.85,238.72z M665.99,169.17l4.5,0.06l4.47,2.3
			C670.46,171.47,667.44,170.7,665.99,169.17z M667.89,196.18c2.96,1.55,5.6,1.97,7.85,1.22c2.26-0.7,4.11,0.45,5.58,3.45
			c-3.04,1.47-6.03,1.82-9.01,1.01C669.3,201.08,667.85,199.2,667.89,196.18z M660.42,252.3c4.44,4.55,6.69,4.58,6.75,0.08
			c-3.04,1.47-4.51,0.72-4.47-2.3c0.04-2.99-0.73-3-2.25-0.03C658.94,250.04,658.93,250.81,660.42,252.3z M653.04,301.68
			c7.48,0.09,14.96,0.58,22.47,1.42c7.48,0.87,15.74,0.59,24.75-0.81C680.69,308.05,664.95,307.85,653.04,301.68z M664.54,281.59
			c0.04-2.99-1.45-4.52-4.44-4.56C658.55,280.03,660.05,281.54,664.54,281.59z M715.43,172.05c-7.52-0.09-13.88,0.21-19.12,0.89
			c-5.28,0.7-10.13,0.26-14.6-1.32c-1.49-1.49-2.23-1.15-2.27,1.1c-0.03,2.25,0.7,3.38,2.21,3.4c-3.04,1.47-4.49-0.79-4.42-6.8
			c5.99-1.4,13.14-2.08,21.39-1.98C706.84,167.44,712.44,169.02,715.43,172.05z M678.99,207.56c-1.51-0.02-2.26,0.75-2.28,2.22
			C678.19,209.8,678.97,209.08,678.99,207.56z M666.82,279.37c1.44,3.04,2.21,3.05,2.25,0.03
			C669.11,276.41,668.33,276.4,666.82,279.37z M676.13,254.76c7.49,0.09,8.21,1.61,2.2,4.52c2.95,3.06,7.06,3.46,12.35,1.28
			c5.26-2.18,9.38-2.47,12.38-0.96l0.03-2.25l0.02-2.24c-3-1.52-7.48-2.35-13.46-2.43c-6-0.08-10.49-0.87-13.46-2.42L676.13,254.76z
			 M692.68,192c-0.02,1.51-1.15,2.23-3.41,2.21c-2.24-0.03-2.62-0.77-1.09-2.26L692.68,192z M689.19,288.65
			c0.01-1.47-1.49-2.27-4.47-2.3C683.19,287.83,684.69,288.6,689.19,288.65z M689.42,270.66l-2.27,2.21L689.42,270.66z
			 M708.82,160.72l4.5,0.06c-0.02,1.51-1.16,2.23-3.4,2.21C707.67,162.96,707.3,162.21,708.82,160.72z M693.98,266.22l2.25,0.03
			l-0.03,2.25l-2.25-0.03L693.98,266.22z M715.6,158.56c4.47,1.56,8.97,2.37,13.46,2.42c-3.02-0.04-6.4,0.3-10.13,0.99
			C715.16,162.7,714.05,161.57,715.6,158.56z M715.34,178.79c4.49,0.06,7.47,0.87,8.97,2.37c-1.55,3-3.42,3.72-5.65,2.17
			C716.42,181.83,715.32,180.31,715.34,178.79z M698.18,288.77c4.5,0.06,6.75-0.65,6.77-2.16
			C700.46,286.55,698.21,287.3,698.18,288.77z M712.08,257.46c-3.04,1.47-4.16,1.46-3.37-0.04c0.76-1.46-0.36-2.25-3.35-2.29
			c-1.55,3-1.18,4.48,1.07,4.51C708.68,259.67,710.55,258.95,712.08,257.46z M725.86,235.15c-3.02-0.04-5.62-0.42-7.86-1.22
			c-2.24-0.77-4.87-1.19-7.86-1.23c1.44,3.04,4.05,4.94,7.8,5.72C721.66,239.25,724.31,238.15,725.86,235.15z M707.2,286.64
			c-0.03,3.02,1.08,4.15,3.34,3.4c2.25-0.7,3.4-2.55,3.45-5.57C710.96,284.44,708.7,285.18,707.2,286.64z M726.73,167.69
			c1.51-2.97,2.29-2.96,2.25,0.03C728.94,170.75,728.16,170.74,726.73,167.69z M721.68,210.36c1.46,1.54,2.96,2.29,4.47,2.31
			c-1.53,1.5-3.05,1.87-4.51,1.07C720.13,212.97,720.15,211.85,721.68,210.36z M731.34,158.76c1.51-2.97,2.28-2.96,2.24,0.03
			C733.55,161.82,732.78,161.81,731.34,158.76z M731.23,167.75c1.51-2.97,2.28-2.96,2.24,0.03
			C733.43,170.81,732.66,170.8,731.23,167.75z M733.47,167.78l6.75,0.09L733.47,167.78z M730.88,194.74
			c-1.49-1.5-1.1-1.87,1.14-1.11c2.24,0.8,2.57,1.93,1.08,3.39l-2.24-0.03L730.88,194.74z M733.32,179.03
			c1.48,0.02,2.24,0.79,2.22,2.28l-2.25-0.03L733.32,179.03z M735.66,172.31c1.5-1.45,5.98-0.66,13.46,2.42
			c-1.55,3-3.07,3.72-4.52,2.19c-1.5-1.49-3.74-1.52-6.75-0.09C737.89,173.85,737.14,172.33,735.66,172.31z M720.73,284.56
			c2.99,0.04,4.51-0.68,4.53-2.19l-2.25-0.03C721.49,282.33,720.74,283.09,720.73,284.56z M742.7,149.91l6.74,0.09l0.03-2.25
			C745.04,143.2,742.78,143.94,742.7,149.91z M744.34,197.16l-9-0.12c0.04-2.98,1.92-4.47,5.68-4.42
			C744.75,192.67,745.85,194.19,744.34,197.16z M751.41,259.1c-9.79,2.12-18.42,3.14-25.9,3.04c1.42,4.52,6.66,6.83,15.65,6.94
			c1.47,0.02,1.87-0.71,1.15-2.23c-0.75-1.49-0.36-2.25,1.15-2.23c7.52-2.9,15-2.8,22.48,0.29c7.45,3.11,14.95,1.7,22.54-4.21
			c1.46,1.53,3.35,2.29,5.59,2.32c2.25,0.02,3.39-1.43,3.43-4.46c-8.99-0.11-14.26-0.92-15.71-2.44c-0.02,1.51-0.81,2.23-2.28,2.21
			C770.56,256.75,761.18,256.97,751.41,259.1z M729.72,284.67c1.47,0.02,2.24,0.42,2.23,1.16c-0.01,0.77,0.72,1.14,2.23,1.15
			l0.06-4.49c-1.51-0.02-2.25,0.35-2.26,1.09C731.97,284.35,731.2,284.7,729.72,284.67l0.03-2.25l-2.25-0.03
			C725.97,283.89,726.7,284.64,729.72,284.67z M749.33,159l2.25,0.03l-0.03,2.24l-2.25-0.03L749.33,159z M749.24,165.74l2.25,0.03
			l-0.03,2.24l-2.25-0.03L749.24,165.74z M819.03,159.9c-8.97-1.6-20.22-1.74-33.73-0.44c-13.51,1.33-24.74,0.46-33.7-2.68
			c10.45,1.64,21.34,1.78,32.6,0.42C795.47,155.86,807.06,156.75,819.03,159.9z M778.12,193.1c1.48,0.02,2.24,0.42,2.23,1.15
			c-0.01,0.77,0.72,1.14,2.23,1.16c-6.02,1.42-12.05,2.47-18.03,3.13c-6.02,0.7-12.01-0.5-17.94-3.6c7.51-1.38,13.51-1.3,17.99,0.23
			C769.08,196.74,773.59,196.06,778.12,193.1z M736.72,264.53c0.02-1.48,0.76-1.85,2.26-1.1c1.47,0.79,1.45,1.92-0.04,3.38
			C738.96,265.33,738.2,264.55,736.72,264.53z M746.41,210.67c1.51-2.96,2.29-2.95,2.25,0.03
			C748.62,213.73,747.85,213.72,746.41,210.67z M890.92,165.32c-13.51,1.33-27.77,1.15-42.72-0.55c-3.06,2.99-7.57,4.39-13.54,4.32
			c-6.01-0.08-10.5-0.87-13.46-2.42c-1.51-0.02-2.26,1.09-2.29,3.35c-0.03,2.25-0.81,2.63-2.26,1.09
			c-12.01-0.16-22.88,0.09-32.62,0.71c-9.78,0.64-19.88-0.61-30.31-3.77c10.51-2.85,21.03-3.84,31.52-2.97
			c10.46,0.91,20.22,1.38,29.21,1.51l0.06-4.5c11.94,3.18,24.69,3.69,38.21,1.61C866.23,161.62,878.95,162.17,890.92,165.32z
			 M745.84,255.65l-4.52,2.19C742.78,257.86,744.3,257.14,745.84,255.65z M743.27,280.36l2.25,0.02l0.03-2.26l-2.25-0.02
			L743.27,280.36z M755.15,231.03L752.9,231l-2.28,2.22C753.61,233.26,755.13,232.54,755.15,231.03z M765.21,147.95l2.25,0.03
			c0.02-1.48-0.74-2.27-2.22-2.28L765.21,147.95z M757.63,213.07c2.96,1.56,3.33,3.06,1.07,4.52c-2.27,1.48-3.38,0.73-3.34-2.3
			C756.83,215.3,757.61,214.59,757.63,213.07z M750.33,255.71l2.25,0.02c0.02-1.48-0.74-2.26-2.22-2.28L750.33,255.71z
			 M747.49,301.78c1.47,0.78,2.23,1.93,2.21,3.4l-2.25-0.03l-2.22-2.28C745.25,301.39,745.99,301.01,747.49,301.78z M759.33,255.83
			c0.04-2.99-0.33-4.12-1.08-3.4c-0.78,0.77-1.9,0.37-3.36-1.16C754.85,254.29,756.31,255.78,759.33,255.83z M768.41,249.2
			c0.04-2.99-1.45-4.52-4.44-4.56C760.91,247.62,762.4,249.12,768.41,249.2z M758.72,303.04l2.25,0.02l-0.03,2.25l-2.25-0.03
			L758.72,303.04z M782.65,190.91c1.46,1.53,5.21,2.31,11.21,2.39c-3.06,2.99-6.07,4.42-9.05,4.38
			C783.32,196.18,782.61,193.93,782.65,190.91z M781.46,283.1c-3.04,1.47-4.52,1.83-4.51,1.06c0.01-0.73-0.77-0.35-2.26,1.1
			l2.25,0.03C779.93,285.32,781.44,284.61,781.46,283.1z M774.6,292l4.5,0.06l0.06-4.5l-2.24-0.03l-2.28,2.22L774.6,292z
			 M803.58,137.21c-1.51-0.02-2.26,0.74-2.28,2.21C802.78,139.44,803.56,138.71,803.58,137.21z M796.11,193.33
			c1.51-2.97,2.29-2.96,2.25,0.03C798.32,196.38,797.55,196.36,796.11,193.33z M796.08,195.58l2.25,0.03l-0.03,2.24l-2.25-0.03
			L796.08,195.58z M783.83,274.12c4.5,0.06,5.98-0.66,4.53-2.19C785.33,271.9,783.84,272.65,783.83,274.12z M807.93,148.5
			c2.99,0.04,4.51-0.68,4.53-2.19C807.96,146.25,806.44,147.01,807.93,148.5z M800.64,191.14c2.97,1.54,6.72,2.33,11.21,2.39
			c-0.04,3.02-1.95,4.12-5.66,3.3C802.44,196.05,800.6,194.16,800.64,191.14z M814.71,146.34l2.25,0.02L814.71,146.34z
			 M799.83,254.09c-1.55,3.01-1.95,4.47-1.19,4.48c0.74,0.01,1.12,0.79,1.1,2.26c10.49-1.34,19.49-1.61,27-0.78
			c7.48,0.86,15.74,0.59,24.75-0.81c-3-1.51-8.24-1.96-15.73-1.33c-7.53,0.68-12.75-0.5-15.7-3.57c4.5,0.06,5.21,1.58,2.19,4.53
			c-3-1.51-5.25-1.54-6.74-0.09c-1.48-3.01-4.09-4.9-7.8-5.72C803.96,252.29,801.32,252.64,799.83,254.09z M824.81,147.59
			c0.73,0.79,2.59,0.43,5.64-1.05l-11.24-0.14C822.19,146.43,824.04,146.85,824.81,147.59z M816.58,175.6
			c1.48,0.02,2.24,0.81,2.22,2.28l-2.25-0.03L816.58,175.6z M799.22,301.31l-0.03,2.25l-2.25-0.03l0.03-2.25L799.22,301.31z
			 M821.31,157.67c1.51-2.97,1.9-3.35,1.14-1.11C821.64,158.8,821.29,159.18,821.31,157.67z M821.08,175.66l4.5,0.06
			c-0.02,1.51-1.54,2.23-4.53,2.19L821.08,175.66z M856.82,194.11c-4.5-0.06-10.13,0.26-16.88,0.9c-6.76,0.69-13.15,0.22-19.1-1.37
			c3.02-2.94,7.14-3.63,12.39-2.09c5.22,1.57,10.85,0.91,16.89-2.03C850.1,192.55,852.33,194.05,856.82,194.11z M850.57,155.8
			c-3.06,2.97-6.06,3.68-9.02,2.13c-3.01-1.51-5.99-1.55-9-0.11c1.52-2.96,3.78-3.68,6.78-2.16
			C842.29,157.2,846.05,157.25,850.57,155.8z M850.71,144.56c-1.51-0.02-2.26,0.74-2.28,2.21
			C849.91,146.79,850.69,146.07,850.71,144.56z M842.11,288.37c-3-1.52-5.25-1.93-6.73-1.21c-1.52,0.75-3.76,0.34-6.73-1.21
			c-0.04,3.03,1.79,4.92,5.55,5.69C837.92,292.46,840.56,291.37,842.11,288.37z M859.59,153.66l-0.06,4.5l-6.74-0.09
			c0.02-1.48,1.15-1.86,3.39-1.08C858.41,157.8,859.55,156.69,859.59,153.66z M842.4,265.89l4.49,0.06l0.06-4.5l-2.25-0.03
			l-2.27,2.22L842.4,265.89z M875.3,156.12c-3.04,1.47-5.29,1.83-6.76,1.03c-1.5-0.76-3.74-1.17-6.73-1.21
			c1.52-2.96,3.42-3.33,5.64-1.05C869.67,157.16,872.26,157.59,875.3,156.12z M865.84,191.98c-1.55,3-3.42,3.71-5.65,2.17
			c-2.23-1.5-3.33-3.03-3.31-4.54c2.98,0.04,4.49,0.45,4.48,1.18C861.35,191.56,862.82,191.94,865.84,191.98z M857.85,288.58
			c-1.49-1.5-3.73-2.3-6.71-2.34c-1.55,3.01-0.83,4.49,2.19,4.53C856.32,290.8,857.84,290.08,857.85,288.58z M865.84,191.98
			c7.52-2.9,15.4-3.53,23.64-1.95c8.21,1.61,15.33,1.7,21.36,0.27c-0.04,3.02-1.18,4.48-3.43,4.45c-2.25-0.03-2.62-0.78-1.1-2.26
			c-7.55,2.92-14.66,3.57-21.38,1.97C878.2,192.91,871.82,192.05,865.84,191.98z M858.29,254.85c-1.51-0.02-2.26,0.74-2.28,2.22
			C857.49,257.09,858.27,256.35,858.29,254.85z M875.3,156.12l2.25,0.03c-0.02,1.51-0.42,2.24-1.15,2.23
			C875.62,158.37,875.28,157.63,875.3,156.12z M877.55,156.14c10.51-2.85,21.75-2.71,33.73,0.44c-6.03,1.43-12.39,1.74-19.13,0.87
			C885.41,156.62,880.54,156.19,877.55,156.14z M862.78,254.9c2.99,0.04,4.49,0.45,4.48,1.18c-0.01,0.77,0.72,1.14,2.23,1.16
			c0.02-1.48,0.38-2.25,1.15-2.24c0.74,0.01,1.14-0.72,1.16-2.23C867.31,252.71,864.27,253.45,862.78,254.9z M860.3,272.86
			l-0.03,2.24l2.25,0.03C862.54,273.66,861.78,272.88,860.3,272.86z M864.83,270.67c-0.02,1.52,1.45,2.27,4.46,2.31l0.06-4.5
			C866.34,268.44,864.85,269.2,864.83,270.67z M923.12,284.92c-10.54,2.88-19.94,3.88-28.15,3c-8.24-0.84-18.36-1.36-30.33-1.51
			c7.44,3.12,17.54,4.72,30.29,4.88c12.72,0.17,22.85-0.45,30.38-1.85C925.33,287.97,924.57,286.45,923.12,284.92z M890.95,163.06
			c9.02-1.36,17.21,0.22,24.68,4.81c-5.99-1.56-10.87-2-14.6-1.32C897.26,167.29,893.9,166.12,890.95,163.06z M873.76,275.28
			c-1.54,3-0.83,4.49,2.19,4.53c2.99,0.04,4.51-0.68,4.53-2.19C878.99,276.12,876.75,275.32,873.76,275.28z M913.67,145.37
			c1.48,0.02,2.26-0.71,2.28-2.23C914.44,143.12,913.69,143.89,913.67,145.37z M915.8,154.39l-2.27,2.23
			C912.03,155.11,912.78,154.35,915.8,154.39z M910.84,190.31l35.98,0.46C939.22,196.67,927.24,196.53,910.84,190.31z
			 M924.94,143.25c-1.53,1.5-3.04,1.87-4.51,1.08c-1.51-0.76-2.25-0.38-2.26,1.09C922.66,145.48,924.92,144.78,924.94,143.25z
			 M922.43,163.47c-1.52,1.49-3.04,1.85-4.51,1.06c-1.5-0.75-0.75-1.87,2.29-3.34C920.19,162.69,920.92,163.45,922.43,163.47z
			 M905.48,257.7c1.47,0.01,2.99-0.71,4.52-2.2C906.98,255.47,905.49,256.23,905.48,257.7z M918.97,257.87
			c-4.48-1.53-6.38-1.56-5.62-0.07C914.07,259.33,915.93,259.35,918.97,257.87z M943.82,161.5c0.72,1.51,1.84,1.53,3.37,0.04
			l-2.28,2.22c-1.51-0.02-2.23-0.77-2.22-2.28C942.72,160,943.07,160,943.82,161.5z M960.68,161.72l4.5,0.06
			c-0.02,1.5-1.15,2.23-3.4,2.2C959.53,163.94,959.16,163.2,960.68,161.72z M955.75,195.38c4.46,3.08,8.94,4.26,13.45,3.54
			c4.5-0.68,9.75-0.99,15.75-0.92c-2.98-3.04-7.81-4.96-14.55-5.82C963.68,191.37,958.78,192.43,955.75,195.38z M967.78,134.82
			c-1.51-0.01-2.26,0.75-2.28,2.22C966.97,137.05,967.76,136.32,967.78,134.82z M971.93,161.86l-2.28,2.21
			C969.66,162.61,970.41,161.84,971.93,161.86z M976.65,143.92c1.44,3.04,2.21,3.05,2.25,0.03
			C978.94,140.96,978.17,140.95,976.65,143.92z M985.39,164.28c-3.06,2.98-4.53,2.96-4.5-0.06
			C980.93,161.23,982.4,161.25,985.39,164.28z M985.45,159.78l4.49,0.06l-2.28,2.23L985.45,159.78z M989.91,162.09
			c5.97,0.08,12.73-0.2,20.26-0.87c7.49-0.64,14.23,0.57,20.19,3.63c-7.54,1.42-14.64,2.07-21.39,1.98
			C1002.22,166.74,995.85,165.19,989.91,162.09z M994.64,144.15l2.25,0.03l4.49,0.06C996.95,139.69,994.7,139.66,994.64,144.15z
			 M989.48,195.81c5.95,1.59,11.95,2.79,17.94,3.61c5.96,0.85,10.47-0.22,13.54-3.2c-7.54,1.41-13.89,0.94-19.09-1.37
			C996.62,192.53,992.51,192.86,989.48,195.81z M1005.82,148.79c0.02-1.47-0.73-2.99-2.19-4.53
			C1003.59,147.3,1004.31,148.77,1005.82,148.79z M995.1,283.6c-3.05,1.46-4.17,1.45-3.38-0.05c0.76-1.47-0.36-2.27-3.34-2.3
			c-1.55,3-0.83,4.88,2.18,5.66C993.54,287.72,995.06,286.62,995.1,283.6z M1030.5,153.61c-4.44-4.55-6.67-6.05-6.69-4.58
			C1028.31,149.09,1030.54,150.63,1030.5,153.61z M1037.1,164.94c-3.06,2.99-5.31,3.3-6.76,1.03c-1.48-2.26-2.19-4.13-2.17-5.64
			C1031.15,160.37,1034.12,161.91,1037.1,164.94z M1017.93,256.9c1.44,3.04,1.82,3.05,1.13,0.01
			C1018.32,253.92,1017.97,253.91,1017.93,256.9z M1068.58,165.35c-6.04,2.94-11.68,4-16.91,3.16c-5.26-0.8-10.09-1.99-14.57-3.56
			c3.03-2.95,7.53-3.63,13.52-2.07C1056.58,164.45,1062.57,165.27,1068.58,165.35z M1048.53,150.47c0.03-2.24-1.48-2.62-4.48-1.18
			C1047,152.34,1048.5,152.72,1048.53,150.47z M1059.18,196.71c-3-1.52-6.37-1.56-10.11-0.13c-3.78,1.46-7.14,0.68-10.09-2.37
			c-0.04,3.02,2.54,4.53,7.81,4.6C1052.02,198.87,1056.14,198.18,1059.18,196.71z M1053.01,151.65c-0.03,3.02,2.19,4.53,6.69,4.59
			C1059.74,153.25,1057.52,151.71,1053.01,151.65z M1057.19,176.44c1.48,0.02,2.23,0.81,2.22,2.28l-2.24-0.03L1057.19,176.44z
			 M1056.71,214.66l2.24,0.03c0.01-1.47-0.74-2.26-2.22-2.28L1056.71,214.66z M1066.39,160.82l2.25,0.02l-2.28,2.23L1066.39,160.82z
			 M1066.19,176.56c2.99,0.04,6.75-0.27,11.26-0.98c4.5-0.69,8.22,0.5,11.2,3.52c-4.5-0.06-8.64,0.27-12.38,0.97
			C1072.5,180.79,1069.13,179.62,1066.19,176.56z M1075.38,160.94c-0.04,3.03-0.83,4.49-2.31,4.46c0.02-1.47,0.38-2.24,1.16-2.23
			C1074.97,163.18,1075.36,162.45,1075.38,160.94z M1087.75,161.1c0.72,1.52,2.58,1.54,5.62,0.07
			C1088.89,159.63,1087,159.61,1087.75,161.1z M1093.17,176.9l-2.28,2.23C1090.91,177.65,1091.66,176.89,1093.17,176.9z
			 M1144.91,175.33c7.48,0.09,11.99-0.59,13.52-2.08C1153.98,170.2,1149.47,170.89,1144.91,175.33z"/>
	</g>
	<g class="st2">
		
			<rect x="341.19" y="316.84" transform="matrix(0.9869 -0.1612 0.1612 0.9869 -46.9156 59.5429)" class="st3" width="4.74" height="4.23"/>
		
			<rect x="328.55" y="318.99" transform="matrix(0.9869 -0.1612 0.1612 0.9869 -47.428 57.5334)" class="st3" width="4.74" height="4.23"/>
		
			<rect x="364.69" y="311.08" transform="matrix(0.9869 -0.1612 0.1612 0.9869 -45.6261 63.9184)" class="st3" width="12.98" height="4.23"/>
		
			<rect x="382.55" y="307.07" transform="matrix(0.988 -0.1547 0.1547 0.988 -43.0934 64.767)" class="st3" width="24.24" height="4.5"/>
		
			<rect x="352.36" y="306.22" transform="matrix(0.9869 -0.1612 0.1612 0.9869 -45.0587 61.2039)" class="st3" width="4.74" height="4.23"/>
		
			<rect x="319.61" y="305.86" transform="matrix(0.9869 -0.1612 0.1612 0.9869 -45.3442 56.9459)" class="st3" width="17.45" height="4.23"/>
	</g>
	<g class="st2">
		
			<rect x="153.99" y="247.31" transform="matrix(-0.9869 0.1612 -0.1612 -0.9869 350.882 470.3996)" class="st3" width="4.74" height="4.23"/>
		
			<rect x="166.63" y="245.16" transform="matrix(-0.9869 0.1612 -0.1612 -0.9869 375.6543 464.0836)" class="st3" width="4.74" height="4.23"/>
		
			<rect x="122.26" y="253.07" transform="matrix(-0.9869 0.1612 -0.1612 -0.9869 296.9409 486.2963)" class="st3" width="12.98" height="4.23"/>
		
			<rect x="93.13" y="256.82" transform="matrix(-0.988 0.1547 -0.1547 -0.988 249.2995 498.7376)" class="st3" width="24.24" height="4.5"/>
		
			<rect x="142.82" y="257.93" transform="matrix(-0.9869 0.1612 -0.1612 -0.9869 330.4052 493.2918)" class="st3" width="4.74" height="4.23"/>
		
			<rect x="162.86" y="258.3" transform="matrix(-0.9869 0.1612 -0.1612 -0.9869 382.8971 489.7719)" class="st3" width="17.45" height="4.23"/>
	</g>
</g>
</svg>
